<?xml version="1.0" encoding="utf-8" standalone="no"?>
<!DOCTYPE svg PUBLIC "-//W3C//DTD SVG 1.1//EN"
  "http://www.w3.org/Graphics/SVG/1.1/DTD/svg11.dtd">
<svg xmlns:xlink="http://www.w3.org/1999/xlink" width="609.8328pt" height="609.8328pt" viewBox="0 0 609.8328 609.8328" xmlns="http://www.w3.org/2000/svg" version="1.1">
 <metadata>
  <rdf:RDF xmlns:dc="http://purl.org/dc/elements/1.1/" xmlns:cc="http://creativecommons.org/ns#" xmlns:rdf="http://www.w3.org/1999/02/22-rdf-syntax-ns#">
   <cc:Work>
    <dc:type rdf:resource="http://purl.org/dc/dcmitype/StillImage"/>
    <dc:date>2025-12-18T15:08:51.746321</dc:date>
    <dc:format>image/svg+xml</dc:format>
    <dc:creator>
     <cc:Agent>
      <dc:title>Matplotlib v3.9.4, https://matplotlib.org/</dc:title>
     </cc:Agent>
    </dc:creator>
   </cc:Work>
  </rdf:RDF>
 </metadata>
 <defs>
  <style type="text/css">*{stroke-linejoin: round; stroke-linecap: butt}</style>
 </defs>
 <g id="figure_1">
  <g id="patch_1">
   <path d="M 0 609.8328 
L 609.8328 609.8328 
L 609.8328 0 
L 0 0 
z
" style="fill: #ffffff"/>
  </g>
  <g id="patch_2">
   <path d="M 3.6 606.2328 
L 606.2328 606.2328 
L 606.2328 3.6 
L 3.6 3.6 
z
" style="fill: #ffffff"/>
  </g>
  <g id="pane3d_1">
   <g id="patch_3">
    <path d="M 199.875578 357.257657 
L 546.706265 394.117602 
L 552.7936 125.212032 
L 197.026573 96.530817 
" style="fill: #f2f2f2; opacity: 0.5; stroke: #f2f2f2; stroke-linejoin: miter"/>
   </g>
  </g>
  <g id="pane3d_2">
   <g id="patch_4">
    <path d="M 199.875578 357.257657 
L 62.207501 476.290545 
L 55.177084 189.329946 
L 197.026573 96.530817 
" style="fill: #e6e6e6; opacity: 0.5; stroke: #e6e6e6; stroke-linejoin: miter"/>
   </g>
  </g>
  <g id="pane3d_3">
   <g id="patch_5">
    <path d="M 199.875578 357.257657 
L 62.207501 476.290545 
L 443.516095 521.903865 
L 546.706265 394.117602 
" style="fill: #ececec; opacity: 0.5; stroke: #ececec; stroke-linejoin: miter"/>
   </g>
  </g>
  <g id="grid3d_1">
   <g id="Line3DCollection_1">
    <path d="M 537.881769 405.045478 
L 188.061925 367.472177 
L 184.885011 104.473929 
" style="fill: none; stroke: #b0b0b0; stroke-width: 0.5"/>
    <path d="M 527.357292 418.078538 
L 173.982436 379.645821 
L 170.407159 113.945461 
" style="fill: none; stroke: #b0b0b0; stroke-width: 0.5"/>
    <path d="M 516.586494 431.41663 
L 159.58466 392.094668 
L 155.593504 123.636679 
" style="fill: none; stroke: #b0b0b0; stroke-width: 0.5"/>
    <path d="M 505.560627 445.070589 
L 144.857682 404.828155 
L 140.432225 133.555315 
" style="fill: none; stroke: #b0b0b0; stroke-width: 0.5"/>
    <path d="M 494.27052 459.051771 
L 129.79008 417.856159 
L 124.910942 143.709469 
" style="fill: none; stroke: #b0b0b0; stroke-width: 0.5"/>
    <path d="M 482.70656 473.372081 
L 114.369898 431.189016 
L 109.016677 154.107631 
" style="fill: none; stroke: #b0b0b0; stroke-width: 0.5"/>
    <path d="M 470.858661 488.044009 
L 98.584614 444.837554 
L 92.735823 164.758703 
" style="fill: none; stroke: #b0b0b0; stroke-width: 0.5"/>
    <path d="M 458.716234 503.080667 
L 82.421106 458.813118 
L 76.054102 175.672025 
" style="fill: none; stroke: #b0b0b0; stroke-width: 0.5"/>
    <path d="M 446.268159 518.495826 
L 65.865616 473.127604 
L 58.956524 186.857404 
" style="fill: none; stroke: #b0b0b0; stroke-width: 0.5"/>
    <path d="M 546.129628 394.831686 
L 199.10338 357.925328 
L 196.233118 97.049902 
" style="fill: none; stroke: #b0b0b0; stroke-width: 0.5"/>
    <path d="M 544.081713 397.367735 
L 196.361202 360.296316 
L 193.415254 98.893372 
" style="fill: none; stroke: #b0b0b0; stroke-width: 0.5"/>
    <path d="M 542.024475 399.91533 
L 193.606954 362.67774 
L 190.584672 100.745162 
" style="fill: none; stroke: #b0b0b0; stroke-width: 0.5"/>
    <path d="M 539.957848 402.474552 
L 190.840555 365.069671 
L 187.741287 102.605329 
" style="fill: none; stroke: #b0b0b0; stroke-width: 0.5"/>
    <path d="M 535.796173 407.628191 
L 185.270982 369.885328 
L 182.015755 106.35102 
" style="fill: none; stroke: #b0b0b0; stroke-width: 0.5"/>
    <path d="M 533.700993 410.222771 
L 182.467645 372.309197 
L 179.133432 108.23666 
" style="fill: none; stroke: #b0b0b0; stroke-width: 0.5"/>
    <path d="M 531.596165 412.8293 
L 179.651831 374.743854 
L 176.237952 110.130907 
" style="fill: none; stroke: #b0b0b0; stroke-width: 0.5"/>
    <path d="M 529.48162 415.447861 
L 176.823456 377.189371 
L 173.329225 112.033821 
" style="fill: none; stroke: #b0b0b0; stroke-width: 0.5"/>
    <path d="M 525.223112 420.721414 
L 171.128686 382.113278 
L 167.471662 115.865888 
" style="fill: none; stroke: #b0b0b0; stroke-width: 0.5"/>
    <path d="M 523.079012 423.376575 
L 168.26212 384.591816 
L 164.522643 117.795161 
" style="fill: none; stroke: #b0b0b0; stroke-width: 0.5"/>
    <path d="M 520.924922 426.044107 
L 165.382653 387.08151 
L 161.560006 119.733343 
" style="fill: none; stroke: #b0b0b0; stroke-width: 0.5"/>
    <path d="M 518.760773 428.724096 
L 162.490195 389.582435 
L 158.583658 121.680495 
" style="fill: none; stroke: #b0b0b0; stroke-width: 0.5"/>
    <path d="M 514.402013 434.121796 
L 156.665959 394.618284 
L 152.589446 125.601959 
" style="fill: none; stroke: #b0b0b0; stroke-width: 0.5"/>
    <path d="M 512.207259 436.839685 
L 153.734002 397.153363 
L 149.571388 127.576398 
" style="fill: none; stroke: #b0b0b0; stroke-width: 0.5"/>
    <path d="M 510.002159 439.570386 
L 150.788697 399.699981 
L 146.539231 129.560061 
" style="fill: none; stroke: #b0b0b0; stroke-width: 0.5"/>
    <path d="M 507.78664 442.31399 
L 147.829955 402.258219 
L 143.492877 131.553011 
" style="fill: none; stroke: #b0b0b0; stroke-width: 0.5"/>
    <path d="M 503.324046 447.840275 
L 141.871787 407.409871 
L 137.357175 135.567039 
" style="fill: none; stroke: #b0b0b0; stroke-width: 0.5"/>
    <path d="M 501.076821 450.623141 
L 138.872174 410.003446 
L 134.267626 137.588248 
" style="fill: none; stroke: #b0b0b0; stroke-width: 0.5"/>
    <path d="M 498.818876 453.419282 
L 135.858749 412.608964 
L 131.163473 139.619011 
" style="fill: none; stroke: #b0b0b0; stroke-width: 0.5"/>
    <path d="M 496.550135 456.228793 
L 132.831417 415.226507 
L 128.044613 141.659395 
" style="fill: none; stroke: #b0b0b0; stroke-width: 0.5"/>
    <path d="M 491.979952 461.888311 
L 126.734643 420.498003 
L 121.762354 145.769302 
" style="fill: none; stroke: #b0b0b0; stroke-width: 0.5"/>
    <path d="M 489.678352 464.738513 
L 123.665005 423.152124 
L 118.598741 147.838964 
" style="fill: none; stroke: #b0b0b0; stroke-width: 0.5"/>
    <path d="M 487.365641 467.602475 
L 120.581069 425.818609 
L 115.419997 149.918525 
" style="fill: none; stroke: #b0b0b0; stroke-width: 0.5"/>
    <path d="M 485.041737 470.480298 
L 117.482734 428.497544 
L 112.226012 152.008057 
" style="fill: none; stroke: #b0b0b0; stroke-width: 0.5"/>
    <path d="M 480.360027 476.277926 
L 111.242461 433.893114 
L 105.791881 156.21732 
" style="fill: none; stroke: #b0b0b0; stroke-width: 0.5"/>
    <path d="M 478.002054 479.197938 
L 108.100318 436.609926 
L 102.55151 158.337197 
" style="fill: none; stroke: #b0b0b0; stroke-width: 0.5"/>
    <path d="M 475.632559 482.132219 
L 104.943366 439.339543 
L 99.295454 160.467337 
" style="fill: none; stroke: #b0b0b0; stroke-width: 0.5"/>
    <path d="M 473.251456 485.080874 
L 101.7715 442.082055 
L 96.023597 162.607814 
" style="fill: none; stroke: #b0b0b0; stroke-width: 0.5"/>
    <path d="M 468.454085 491.021731 
L 95.382602 447.606132 
L 89.432018 166.92008 
" style="fill: none; stroke: #b0b0b0; stroke-width: 0.5"/>
    <path d="M 466.037644 494.014149 
L 92.165354 450.387882 
L 86.112062 169.092023 
" style="fill: none; stroke: #b0b0b0; stroke-width: 0.5"/>
    <path d="M 463.609247 497.02137 
L 88.932762 453.1829 
L 82.775838 171.274609 
" style="fill: none; stroke: #b0b0b0; stroke-width: 0.5"/>
    <path d="M 461.168807 500.043506 
L 85.684717 455.99128 
L 79.423225 173.467917 
" style="fill: none; stroke: #b0b0b0; stroke-width: 0.5"/>
    <path d="M 456.251437 506.132966 
L 79.141819 461.64851 
L 72.668348 177.887014 
" style="fill: none; stroke: #b0b0b0; stroke-width: 0.5"/>
    <path d="M 453.774323 509.200516 
L 75.846741 464.497556 
L 69.265838 180.112964 
" style="fill: none; stroke: #b0b0b0; stroke-width: 0.5"/>
    <path d="M 451.284802 512.283432 
L 72.535758 467.360354 
L 65.846448 182.349958 
" style="fill: none; stroke: #b0b0b0; stroke-width: 0.5"/>
    <path d="M 448.782779 515.38183 
L 69.208755 470.237003 
L 62.410053 184.598077 
" style="fill: none; stroke: #b0b0b0; stroke-width: 0.5"/>
    <path d="M 443.740849 521.625539 
L 62.506222 476.03226 
L 55.485734 189.128024 
" style="fill: none; stroke: #b0b0b0; stroke-width: 0.5"/>
   </g>
  </g>
  <g id="grid3d_2">
   <g id="Line3DCollection_2">
    <path d="M 217.705488 98.197909 
L 220.05141 359.401874 
L 84.31023 478.934542 
" style="fill: none; stroke: #b0b0b0; stroke-width: 0.5"/>
    <path d="M 287.131429 103.794887 
L 287.773574 366.599147 
L 158.571141 487.817863 
" style="fill: none; stroke: #b0b0b0; stroke-width: 0.5"/>
    <path d="M 357.511735 109.468805 
L 356.403473 373.892891 
L 233.939125 496.833616 
" style="fill: none; stroke: #b0b0b0; stroke-width: 0.5"/>
    <path d="M 428.866222 115.221258 
L 425.95948 381.285059 
L 310.439124 505.984784 
" style="fill: none; stroke: #b0b0b0; stroke-width: 0.5"/>
    <path d="M 501.215258 121.053891 
L 496.460469 388.777656 
L 388.096835 515.27444 
" style="fill: none; stroke: #b0b0b0; stroke-width: 0.5"/>
    <path d="M 203.933117 97.087608 
L 206.614322 357.973827 
L 69.588753 477.173513 
" style="fill: none; stroke: #b0b0b0; stroke-width: 0.5"/>
    <path d="M 231.51526 99.311225 
L 233.52409 360.833703 
L 99.075019 480.700752 
" style="fill: none; stroke: #b0b0b0; stroke-width: 0.5"/>
    <path d="M 245.362586 100.427568 
L 247.032503 362.269329 
L 113.883311 482.472166 
" style="fill: none; stroke: #b0b0b0; stroke-width: 0.5"/>
    <path d="M 259.24762 101.546951 
L 260.576793 363.708769 
L 128.7353 484.248807 
" style="fill: none; stroke: #b0b0b0; stroke-width: 0.5"/>
    <path d="M 273.170516 102.669387 
L 274.157102 365.152036 
L 143.631178 486.030698 
" style="fill: none; stroke: #b0b0b0; stroke-width: 0.5"/>
    <path d="M 301.130514 104.923465 
L 301.426354 368.050116 
L 173.555385 489.610325 
" style="fill: none; stroke: #b0b0b0; stroke-width: 0.5"/>
    <path d="M 315.16793 106.055133 
L 315.115588 369.50496 
L 188.584106 491.408107 
" style="fill: none; stroke: #b0b0b0; stroke-width: 0.5"/>
    <path d="M 329.243833 107.189904 
L 328.841421 370.963693 
L 203.657503 493.211234 
" style="fill: none; stroke: #b0b0b0; stroke-width: 0.5"/>
    <path d="M 343.358381 108.32779 
L 342.604 372.426332 
L 218.775776 495.019729 
" style="fill: none; stroke: #b0b0b0; stroke-width: 0.5"/>
    <path d="M 371.704054 110.612961 
L 370.239989 375.363387 
L 249.147752 498.652919 
" style="fill: none; stroke: #b0b0b0; stroke-width: 0.5"/>
    <path d="M 385.9355 111.760271 
L 384.113698 376.837836 
L 264.401861 500.477663 
" style="fill: none; stroke: #b0b0b0; stroke-width: 0.5"/>
    <path d="M 400.206235 112.910749 
L 398.024748 378.316254 
L 279.701655 502.307872 
" style="fill: none; stroke: #b0b0b0; stroke-width: 0.5"/>
    <path d="M 414.516421 114.064407 
L 411.973292 379.798656 
L 295.047341 504.143571 
" style="fill: none; stroke: #b0b0b0; stroke-width: 0.5"/>
    <path d="M 443.255804 116.381317 
L 439.983467 382.775479 
L 325.877213 507.831536 
" style="fill: none; stroke: #b0b0b0; stroke-width: 0.5"/>
    <path d="M 457.685331 117.544597 
L 454.045404 384.269932 
L 341.361818 509.683852 
" style="fill: none; stroke: #b0b0b0; stroke-width: 0.5"/>
    <path d="M 472.154971 118.711109 
L 468.145447 385.768435 
L 356.893148 511.541758 
" style="fill: none; stroke: #b0b0b0; stroke-width: 0.5"/>
    <path d="M 486.66489 119.88087 
L 482.28375 387.271004 
L 372.471416 513.405279 
" style="fill: none; stroke: #b0b0b0; stroke-width: 0.5"/>
    <path d="M 515.806243 122.230186 
L 510.675761 390.288407 
L 403.769618 517.149268 
" style="fill: none; stroke: #b0b0b0; stroke-width: 0.5"/>
    <path d="M 530.438016 123.40977 
L 524.929785 391.803275 
L 419.489983 519.029786 
" style="fill: none; stroke: #b0b0b0; stroke-width: 0.5"/>
    <path d="M 545.110748 124.592656 
L 539.222697 393.322275 
L 435.258145 520.916023 
" style="fill: none; stroke: #b0b0b0; stroke-width: 0.5"/>
   </g>
  </g>
  <g id="grid3d_3">
   <g id="Line3DCollection_3">
    <path d="M 61.796236 459.503948 
L 199.70848 341.9657 
L 547.063006 378.35872 
" style="fill: none; stroke: #b0b0b0; stroke-width: 0.5"/>
    <path d="M 60.453392 404.69304 
L 199.163258 292.069694 
L 548.227263 326.92813 
" style="fill: none; stroke: #b0b0b0; stroke-width: 0.5"/>
    <path d="M 59.096117 349.293125 
L 198.612766 241.691369 
L 549.403164 274.983205 
" style="fill: none; stroke: #b0b0b0; stroke-width: 0.5"/>
    <path d="M 57.724177 293.294658 
L 198.056926 190.823696 
L 550.590883 222.516193 
" style="fill: none; stroke: #b0b0b0; stroke-width: 0.5"/>
    <path d="M 56.337335 236.687886 
L 197.495662 139.45951 
L 551.7906 169.519181 
" style="fill: none; stroke: #b0b0b0; stroke-width: 0.5"/>
   </g>
  </g>
  <g id="axis3d_1">
   <g id="line2d_1">
    <path d="M 546.706265 394.117602 
L 443.516095 521.903865 
" style="fill: none; stroke: #000000; stroke-width: 0.5; stroke-linecap: square"/>
   </g>
   <g id="xtick_1">
    <g id="line2d_2">
     <path d="M 534.987468 404.734608 
L 543.675167 405.667733 
" style="fill: none; stroke: #000000; stroke-width: 0.5; stroke-linecap: square"/>
    </g>
    <g id="text_1">
     <!-- $\mathdefault{530000}$ -->
     <g transform="translate(535.990067 423.077821) scale(0.1 -0.1)">
      <defs>
       <path id="CMR17-35" d="M 730 3692 
C 794 3666 1056 3584 1325 3584 
C 1920 3584 2246 3911 2432 4100 
C 2432 4157 2432 4192 2394 4192 
C 2387 4192 2374 4192 2323 4163 
C 2099 4058 1837 3973 1517 3973 
C 1325 3973 1037 3999 723 4139 
C 653 4171 640 4171 634 4171 
C 602 4171 595 4164 595 4037 
L 595 2203 
C 595 2089 595 2057 659 2057 
C 691 2057 704 2070 736 2114 
C 941 2401 1222 2522 1542 2522 
C 1766 2522 2246 2382 2246 1289 
C 2246 1085 2246 715 2054 421 
C 1894 159 1645 25 1370 25 
C 947 25 518 320 403 814 
C 429 807 480 795 506 795 
C 589 795 749 840 749 1038 
C 749 1210 627 1280 506 1280 
C 358 1280 262 1190 262 1011 
C 262 454 704 -128 1382 -128 
C 2042 -128 2669 440 2669 1264 
C 2669 2030 2170 2624 1549 2624 
C 1222 2624 947 2503 730 2274 
L 730 3692 
z
" transform="scale(0.015625)"/>
       <path id="CMR17-33" d="M 1414 2157 
C 1984 2157 2234 1662 2234 1090 
C 2234 320 1824 25 1453 25 
C 1114 25 563 194 390 693 
C 422 680 454 680 486 680 
C 640 680 755 782 755 948 
C 755 1133 614 1216 486 1216 
C 378 1216 211 1165 211 926 
C 211 335 787 -128 1466 -128 
C 2176 -128 2720 430 2720 1085 
C 2720 1707 2208 2157 1600 2227 
C 2086 2328 2554 2756 2554 3329 
C 2554 3820 2048 4179 1472 4179 
C 890 4179 378 3829 378 3329 
C 378 3110 544 3072 627 3072 
C 762 3072 877 3155 877 3321 
C 877 3486 762 3569 627 3569 
C 602 3569 570 3569 544 3557 
C 730 3959 1235 4032 1459 4032 
C 1683 4032 2106 3925 2106 3320 
C 2106 3143 2080 2828 1862 2550 
C 1670 2304 1453 2304 1242 2284 
C 1210 2284 1062 2269 1037 2269 
C 992 2263 966 2257 966 2208 
C 966 2163 973 2157 1101 2157 
L 1414 2157 
z
" transform="scale(0.015625)"/>
       <path id="CMR17-30" d="M 2688 2025 
C 2688 2416 2682 3080 2413 3591 
C 2176 4039 1798 4198 1466 4198 
C 1158 4198 768 4058 525 3597 
C 269 3118 243 2524 243 2025 
C 243 1661 250 1106 448 619 
C 723 -39 1216 -128 1466 -128 
C 1760 -128 2208 -7 2470 600 
C 2662 1042 2688 1559 2688 2025 
z
M 1466 -26 
C 1056 -26 813 325 723 812 
C 653 1188 653 1738 653 2096 
C 653 2588 653 2997 736 3387 
C 858 3929 1216 4096 1466 4096 
C 1728 4096 2067 3923 2189 3400 
C 2272 3036 2278 2607 2278 2096 
C 2278 1680 2278 1169 2202 792 
C 2067 95 1690 -26 1466 -26 
z
" transform="scale(0.015625)"/>
      </defs>
      <use xlink:href="#CMR17-35" transform="scale(0.996264)"/>
      <use xlink:href="#CMR17-33" transform="translate(45.690477 0) scale(0.996264)"/>
      <use xlink:href="#CMR17-30" transform="translate(91.380954 0) scale(0.996264)"/>
      <use xlink:href="#CMR17-30" transform="translate(137.071431 0) scale(0.996264)"/>
      <use xlink:href="#CMR17-30" transform="translate(182.761908 0) scale(0.996264)"/>
      <use xlink:href="#CMR17-30" transform="translate(228.452386 0) scale(0.996264)"/>
     </g>
    </g>
   </g>
   <g id="xtick_2">
    <g id="line2d_3">
     <path d="M 524.432459 417.760436 
L 533.211859 418.715275 
" style="fill: none; stroke: #000000; stroke-width: 0.5; stroke-linecap: square"/>
    </g>
    <g id="text_2">
     <!-- $\mathdefault{540000}$ -->
     <g transform="translate(525.613157 436.243755) scale(0.1 -0.1)">
      <defs>
       <path id="CMR17-34" d="M 2150 4122 
C 2150 4256 2144 4256 2029 4256 
L 128 1254 
L 128 1088 
L 1779 1088 
L 1779 457 
C 1779 224 1766 160 1318 160 
L 1197 160 
L 1197 0 
C 1402 0 1747 0 1965 0 
C 2182 0 2528 0 2733 0 
L 2733 160 
L 2611 160 
C 2163 160 2150 224 2150 457 
L 2150 1088 
L 2803 1088 
L 2803 1254 
L 2150 1254 
L 2150 4122 
z
M 1798 3703 
L 1798 1254 
L 256 1254 
L 1798 3703 
z
" transform="scale(0.015625)"/>
      </defs>
      <use xlink:href="#CMR17-35" transform="scale(0.996264)"/>
      <use xlink:href="#CMR17-34" transform="translate(45.690477 0) scale(0.996264)"/>
      <use xlink:href="#CMR17-30" transform="translate(91.380954 0) scale(0.996264)"/>
      <use xlink:href="#CMR17-30" transform="translate(137.071431 0) scale(0.996264)"/>
      <use xlink:href="#CMR17-30" transform="translate(182.761908 0) scale(0.996264)"/>
      <use xlink:href="#CMR17-30" transform="translate(228.452386 0) scale(0.996264)"/>
     </g>
    </g>
   </g>
   <g id="xtick_3">
    <g id="line2d_4">
     <path d="M 513.630485 431.09104 
L 522.503524 432.068361 
" style="fill: none; stroke: #000000; stroke-width: 0.5; stroke-linecap: square"/>
    </g>
    <g id="text_3">
     <!-- $\mathdefault{550000}$ -->
     <g transform="translate(514.993301 449.717933) scale(0.1 -0.1)">
      <use xlink:href="#CMR17-35" transform="scale(0.996264)"/>
      <use xlink:href="#CMR17-35" transform="translate(45.690477 0) scale(0.996264)"/>
      <use xlink:href="#CMR17-30" transform="translate(91.380954 0) scale(0.996264)"/>
      <use xlink:href="#CMR17-30" transform="translate(137.071431 0) scale(0.996264)"/>
      <use xlink:href="#CMR17-30" transform="translate(182.761908 0) scale(0.996264)"/>
      <use xlink:href="#CMR17-30" transform="translate(228.452386 0) scale(0.996264)"/>
     </g>
    </g>
   </g>
   <g id="xtick_4">
    <g id="line2d_5">
     <path d="M 502.572776 444.737244 
L 511.541454 445.73785 
" style="fill: none; stroke: #000000; stroke-width: 0.5; stroke-linecap: square"/>
    </g>
    <g id="text_4">
     <!-- $\mathdefault{560000}$ -->
     <g transform="translate(504.121866 463.511308) scale(0.1 -0.1)">
      <defs>
       <path id="CMR17-36" d="M 678 2176 
C 678 3690 1395 4032 1811 4032 
C 1946 4032 2272 4009 2400 3776 
C 2298 3776 2106 3776 2106 3553 
C 2106 3381 2246 3323 2336 3323 
C 2394 3323 2566 3348 2566 3560 
C 2566 3954 2246 4179 1805 4179 
C 1043 4179 243 3390 243 1984 
C 243 253 966 -128 1478 -128 
C 2099 -128 2688 427 2688 1283 
C 2688 2081 2170 2662 1517 2662 
C 1126 2662 838 2407 678 1960 
L 678 2176 
z
M 1478 25 
C 691 25 691 1200 691 1436 
C 691 1896 909 2560 1504 2560 
C 1613 2560 1926 2560 2138 2120 
C 2253 1870 2253 1609 2253 1289 
C 2253 944 2253 690 2118 434 
C 1978 171 1773 25 1478 25 
z
" transform="scale(0.015625)"/>
      </defs>
      <use xlink:href="#CMR17-35" transform="scale(0.996264)"/>
      <use xlink:href="#CMR17-36" transform="translate(45.690477 0) scale(0.996264)"/>
      <use xlink:href="#CMR17-30" transform="translate(91.380954 0) scale(0.996264)"/>
      <use xlink:href="#CMR17-30" transform="translate(137.071431 0) scale(0.996264)"/>
      <use xlink:href="#CMR17-30" transform="translate(182.761908 0) scale(0.996264)"/>
      <use xlink:href="#CMR17-30" transform="translate(228.452386 0) scale(0.996264)"/>
     </g>
    </g>
   </g>
   <g id="xtick_5">
    <g id="line2d_6">
     <path d="M 491.250142 458.710391 
L 500.316521 459.735124 
" style="fill: none; stroke: #000000; stroke-width: 0.5; stroke-linecap: square"/>
    </g>
    <g id="text_5">
     <!-- $\mathdefault{570000}$ -->
     <g transform="translate(492.989803 477.63536) scale(0.1 -0.1)">
      <defs>
       <path id="CMR17-37" d="M 2886 3941 
L 2886 4081 
L 1382 4081 
C 634 4081 621 4165 595 4288 
L 480 4288 
L 294 3094 
L 410 3094 
C 429 3215 474 3540 550 3661 
C 589 3712 1062 3712 1171 3712 
L 2579 3712 
L 1869 2661 
C 1395 1954 1069 999 1069 165 
C 1069 89 1069 -128 1299 -128 
C 1530 -128 1530 89 1530 171 
L 1530 465 
C 1530 1508 1709 2196 2003 2636 
L 2886 3941 
z
" transform="scale(0.015625)"/>
      </defs>
      <use xlink:href="#CMR17-35" transform="scale(0.996264)"/>
      <use xlink:href="#CMR17-37" transform="translate(45.690477 0) scale(0.996264)"/>
      <use xlink:href="#CMR17-30" transform="translate(91.380954 0) scale(0.996264)"/>
      <use xlink:href="#CMR17-30" transform="translate(137.071431 0) scale(0.996264)"/>
      <use xlink:href="#CMR17-30" transform="translate(182.761908 0) scale(0.996264)"/>
      <use xlink:href="#CMR17-30" transform="translate(228.452386 0) scale(0.996264)"/>
     </g>
    </g>
   </g>
   <g id="xtick_6">
    <g id="line2d_7">
     <path d="M 479.652945 473.022371 
L 488.819156 474.072114 
" style="fill: none; stroke: #000000; stroke-width: 0.5; stroke-linecap: square"/>
    </g>
    <g id="text_6">
     <!-- $\mathdefault{580000}$ -->
     <g transform="translate(481.587628 492.102123) scale(0.1 -0.1)">
      <defs>
       <path id="CMR17-38" d="M 1741 2264 
C 2144 2467 2554 2773 2554 3263 
C 2554 3841 1990 4179 1472 4179 
C 890 4179 378 3759 378 3180 
C 378 3021 416 2747 666 2505 
C 730 2442 998 2251 1171 2130 
C 883 1983 211 1634 211 934 
C 211 279 838 -128 1459 -128 
C 2144 -128 2720 362 2720 1010 
C 2720 1590 2330 1857 2074 2029 
L 1741 2264 
z
M 902 2822 
C 851 2854 595 3051 595 3351 
C 595 3739 998 4032 1459 4032 
C 1965 4032 2336 3676 2336 3262 
C 2336 2669 1670 2331 1638 2331 
C 1632 2331 1626 2331 1574 2370 
L 902 2822 
z
M 2080 1519 
C 2176 1449 2483 1240 2483 851 
C 2483 381 2010 25 1472 25 
C 890 25 448 438 448 940 
C 448 1443 838 1862 1280 2060 
L 2080 1519 
z
" transform="scale(0.015625)"/>
      </defs>
      <use xlink:href="#CMR17-35" transform="scale(0.996264)"/>
      <use xlink:href="#CMR17-38" transform="translate(45.690477 0) scale(0.996264)"/>
      <use xlink:href="#CMR17-30" transform="translate(91.380954 0) scale(0.996264)"/>
      <use xlink:href="#CMR17-30" transform="translate(137.071431 0) scale(0.996264)"/>
      <use xlink:href="#CMR17-30" transform="translate(182.761908 0) scale(0.996264)"/>
      <use xlink:href="#CMR17-30" transform="translate(228.452386 0) scale(0.996264)"/>
     </g>
    </g>
   </g>
   <g id="xtick_7">
    <g id="line2d_8">
     <path d="M 467.771077 487.685661 
L 477.03932 488.761342 
" style="fill: none; stroke: #000000; stroke-width: 0.5; stroke-linecap: square"/>
    </g>
    <g id="text_7">
     <!-- $\mathdefault{590000}$ -->
     <g transform="translate(469.905388 506.924224) scale(0.1 -0.1)">
      <defs>
       <path id="CMR17-39" d="M 2253 1864 
C 2253 464 1670 31 1190 31 
C 1043 31 685 31 538 294 
C 704 268 826 357 826 518 
C 826 692 685 749 595 749 
C 538 749 365 723 365 506 
C 365 71 742 -128 1203 -128 
C 1939 -128 2688 674 2688 2073 
C 2688 3817 1971 4179 1485 4179 
C 851 4179 243 3628 243 2778 
C 243 1991 762 1408 1414 1408 
C 1952 1408 2189 1903 2253 2112 
L 2253 1864 
z
M 1427 1510 
C 1254 1510 1011 1542 813 1922 
C 678 2169 678 2461 678 2771 
C 678 3146 678 3405 858 3684 
C 947 3817 1114 4032 1485 4032 
C 2240 4032 2240 2885 2240 2632 
C 2240 2182 2035 1510 1427 1510 
z
" transform="scale(0.015625)"/>
      </defs>
      <use xlink:href="#CMR17-35" transform="scale(0.996264)"/>
      <use xlink:href="#CMR17-39" transform="translate(45.690477 0) scale(0.996264)"/>
      <use xlink:href="#CMR17-30" transform="translate(91.380954 0) scale(0.996264)"/>
      <use xlink:href="#CMR17-30" transform="translate(137.071431 0) scale(0.996264)"/>
      <use xlink:href="#CMR17-30" transform="translate(182.761908 0) scale(0.996264)"/>
      <use xlink:href="#CMR17-30" transform="translate(228.452386 0) scale(0.996264)"/>
     </g>
    </g>
   </g>
   <g id="xtick_8">
    <g id="line2d_9">
     <path d="M 455.593926 502.713357 
L 464.966472 503.815948 
" style="fill: none; stroke: #000000; stroke-width: 0.5; stroke-linecap: square"/>
    </g>
    <g id="text_8">
     <!-- $\mathdefault{600000}$ -->
     <g transform="translate(457.932636 522.114918) scale(0.1 -0.1)">
      <use xlink:href="#CMR17-36" transform="scale(0.996264)"/>
      <use xlink:href="#CMR17-30" transform="translate(45.690477 0) scale(0.996264)"/>
      <use xlink:href="#CMR17-30" transform="translate(91.380954 0) scale(0.996264)"/>
      <use xlink:href="#CMR17-30" transform="translate(137.071431 0) scale(0.996264)"/>
      <use xlink:href="#CMR17-30" transform="translate(182.761908 0) scale(0.996264)"/>
      <use xlink:href="#CMR17-30" transform="translate(228.452386 0) scale(0.996264)"/>
     </g>
    </g>
   </g>
   <g id="xtick_9">
    <g id="line2d_10">
     <path d="M 443.110347 518.119214 
L 452.589544 519.249738 
" style="fill: none; stroke: #000000; stroke-width: 0.5; stroke-linecap: square"/>
    </g>
    <g id="text_9">
     <!-- $\mathdefault{610000}$ -->
     <g transform="translate(445.6584 537.688128) scale(0.1 -0.1)">
      <defs>
       <path id="CMR17-31" d="M 1702 4058 
C 1702 4192 1696 4192 1606 4192 
C 1357 3916 979 3827 621 3827 
C 602 3827 570 3827 563 3808 
C 557 3795 557 3782 557 3648 
C 755 3648 1088 3686 1344 3839 
L 1344 461 
C 1344 236 1331 160 781 160 
L 589 160 
L 589 0 
C 896 0 1216 0 1523 0 
C 1830 0 2150 0 2458 0 
L 2458 160 
L 2266 160 
C 1715 160 1702 230 1702 458 
L 1702 4058 
z
" transform="scale(0.015625)"/>
      </defs>
      <use xlink:href="#CMR17-36" transform="scale(0.996264)"/>
      <use xlink:href="#CMR17-31" transform="translate(45.690477 0) scale(0.996264)"/>
      <use xlink:href="#CMR17-30" transform="translate(91.380954 0) scale(0.996264)"/>
      <use xlink:href="#CMR17-30" transform="translate(137.071431 0) scale(0.996264)"/>
      <use xlink:href="#CMR17-30" transform="translate(182.761908 0) scale(0.996264)"/>
      <use xlink:href="#CMR17-30" transform="translate(228.452386 0) scale(0.996264)"/>
     </g>
    </g>
   </g>
   <g id="xtick_10">
    <g id="line2d_11">
     <path d="M 543.2593 394.526426 
L 551.874994 395.442707 
" style="fill: none; stroke: #000000; stroke-width: 0.5; stroke-linecap: square"/>
    </g>
   </g>
   <g id="xtick_11">
    <g id="line2d_12">
     <path d="M 541.205429 397.061086 
L 549.839014 397.981536 
" style="fill: none; stroke: #000000; stroke-width: 0.5; stroke-linecap: square"/>
    </g>
   </g>
   <g id="xtick_12">
    <g id="line2d_13">
     <path d="M 539.14221 399.607284 
L 547.793758 400.53193 
" style="fill: none; stroke: #000000; stroke-width: 0.5; stroke-linecap: square"/>
    </g>
   </g>
   <g id="xtick_13">
    <g id="line2d_14">
     <path d="M 537.069578 402.165098 
L 545.739164 403.093969 
" style="fill: none; stroke: #000000; stroke-width: 0.5; stroke-linecap: square"/>
    </g>
   </g>
   <g id="xtick_14">
    <g id="line2d_15">
     <path d="M 532.895816 407.315895 
L 541.601703 408.253303 
" style="fill: none; stroke: #000000; stroke-width: 0.5; stroke-linecap: square"/>
    </g>
   </g>
   <g id="xtick_15">
    <g id="line2d_16">
     <path d="M 530.794556 409.909038 
L 539.518706 410.850759 
" style="fill: none; stroke: #000000; stroke-width: 0.5; stroke-linecap: square"/>
    </g>
   </g>
   <g id="xtick_16">
    <g id="line2d_17">
     <path d="M 528.683621 412.514121 
L 537.426111 413.460184 
" style="fill: none; stroke: #000000; stroke-width: 0.5; stroke-linecap: square"/>
    </g>
   </g>
   <g id="xtick_17">
    <g id="line2d_18">
     <path d="M 526.562944 415.131226 
L 535.323851 416.081662 
" style="fill: none; stroke: #000000; stroke-width: 0.5; stroke-linecap: square"/>
    </g>
   </g>
   <g id="xtick_18">
    <g id="line2d_19">
     <path d="M 522.292096 420.401835 
L 531.090067 421.361109 
" style="fill: none; stroke: #000000; stroke-width: 0.5; stroke-linecap: square"/>
    </g>
   </g>
   <g id="xtick_19">
    <g id="line2d_20">
     <path d="M 520.141787 423.05551 
L 528.958407 424.019247 
" style="fill: none; stroke: #000000; stroke-width: 0.5; stroke-linecap: square"/>
    </g>
   </g>
   <g id="xtick_20">
    <g id="line2d_21">
     <path d="M 517.981463 425.721544 
L 526.81681 426.689778 
" style="fill: none; stroke: #000000; stroke-width: 0.5; stroke-linecap: square"/>
    </g>
   </g>
   <g id="xtick_21">
    <g id="line2d_22">
     <path d="M 515.811052 428.400025 
L 524.665205 429.372786 
" style="fill: none; stroke: #000000; stroke-width: 0.5; stroke-linecap: square"/>
    </g>
   </g>
   <g id="xtick_22">
    <g id="line2d_23">
     <path d="M 511.43969 433.794678 
L 520.331695 434.77659 
" style="fill: none; stroke: #000000; stroke-width: 0.5; stroke-linecap: square"/>
    </g>
   </g>
   <g id="xtick_23">
    <g id="line2d_24">
     <path d="M 509.238595 436.511027 
L 518.149646 437.497563 
" style="fill: none; stroke: #000000; stroke-width: 0.5; stroke-linecap: square"/>
    </g>
   </g>
   <g id="xtick_24">
    <g id="line2d_25">
     <path d="M 507.027126 439.240177 
L 515.957305 440.23137 
" style="fill: none; stroke: #000000; stroke-width: 0.5; stroke-linecap: square"/>
    </g>
   </g>
   <g id="xtick_25">
    <g id="line2d_26">
     <path d="M 504.805212 441.982219 
L 513.754599 442.978101 
" style="fill: none; stroke: #000000; stroke-width: 0.5; stroke-linecap: square"/>
    </g>
   </g>
   <g id="xtick_26">
    <g id="line2d_27">
     <path d="M 500.329745 447.505346 
L 509.317796 448.510708 
" style="fill: none; stroke: #000000; stroke-width: 0.5; stroke-linecap: square"/>
    </g>
   </g>
   <g id="xtick_27">
    <g id="line2d_28">
     <path d="M 498.076043 450.286617 
L 507.08355 451.29677 
" style="fill: none; stroke: #000000; stroke-width: 0.5; stroke-linecap: square"/>
    </g>
   </g>
   <g id="xtick_28">
    <g id="line2d_29">
     <path d="M 495.811593 453.081151 
L 504.83864 454.096129 
" style="fill: none; stroke: #000000; stroke-width: 0.5; stroke-linecap: square"/>
    </g>
   </g>
   <g id="xtick_29">
    <g id="line2d_30">
     <path d="M 493.536318 455.889044 
L 502.582989 456.908882 
" style="fill: none; stroke: #000000; stroke-width: 0.5; stroke-linecap: square"/>
    </g>
   </g>
   <g id="xtick_30">
    <g id="line2d_31">
     <path d="M 488.952984 461.54529 
L 498.039157 462.574952 
" style="fill: none; stroke: #000000; stroke-width: 0.5; stroke-linecap: square"/>
    </g>
   </g>
   <g id="xtick_31">
    <g id="line2d_32">
     <path d="M 486.644766 464.393838 
L 495.750818 465.428466 
" style="fill: none; stroke: #000000; stroke-width: 0.5; stroke-linecap: square"/>
    </g>
   </g>
   <g id="xtick_32">
    <g id="line2d_33">
     <path d="M 484.325407 467.256134 
L 493.451426 468.295764 
" style="fill: none; stroke: #000000; stroke-width: 0.5; stroke-linecap: square"/>
    </g>
   </g>
   <g id="xtick_33">
    <g id="line2d_34">
     <path d="M 481.994827 470.132278 
L 491.140899 471.176947 
" style="fill: none; stroke: #000000; stroke-width: 0.5; stroke-linecap: square"/>
    </g>
   </g>
   <g id="xtick_34">
    <g id="line2d_35">
     <path d="M 477.299677 475.926514 
L 486.486117 476.981369 
" style="fill: none; stroke: #000000; stroke-width: 0.5; stroke-linecap: square"/>
    </g>
   </g>
   <g id="xtick_35">
    <g id="line2d_36">
     <path d="M 474.934941 478.844811 
L 484.141697 479.904815 
" style="fill: none; stroke: #000000; stroke-width: 0.5; stroke-linecap: square"/>
    </g>
   </g>
   <g id="xtick_36">
    <g id="line2d_37">
     <path d="M 472.558652 481.777364 
L 481.785814 482.842556 
" style="fill: none; stroke: #000000; stroke-width: 0.5; stroke-linecap: square"/>
    </g>
   </g>
   <g id="xtick_37">
    <g id="line2d_38">
     <path d="M 470.170726 484.724279 
L 479.418383 485.794696 
" style="fill: none; stroke: #000000; stroke-width: 0.5; stroke-linecap: square"/>
    </g>
   </g>
   <g id="xtick_38">
    <g id="line2d_39">
     <path d="M 465.359618 490.661618 
L 474.648538 491.742601 
" style="fill: none; stroke: #000000; stroke-width: 0.5; stroke-linecap: square"/>
    </g>
   </g>
   <g id="xtick_39">
    <g id="line2d_40">
     <path d="M 462.936263 493.652256 
L 472.24595 494.738581 
" style="fill: none; stroke: #000000; stroke-width: 0.5; stroke-linecap: square"/>
    </g>
   </g>
   <g id="xtick_40">
    <g id="line2d_41">
     <path d="M 460.500922 496.657685 
L 469.831469 497.749392 
" style="fill: none; stroke: #000000; stroke-width: 0.5; stroke-linecap: square"/>
    </g>
   </g>
   <g id="xtick_41">
    <g id="line2d_42">
     <path d="M 458.053506 499.678015 
L 467.405006 500.775144 
" style="fill: none; stroke: #000000; stroke-width: 0.5; stroke-linecap: square"/>
    </g>
   </g>
   <g id="xtick_42">
    <g id="line2d_43">
     <path d="M 453.122091 505.763823 
L 462.515777 506.871918 
" style="fill: none; stroke: #000000; stroke-width: 0.5; stroke-linecap: square"/>
    </g>
   </g>
   <g id="xtick_43">
    <g id="line2d_44">
     <path d="M 450.637909 508.829527 
L 460.052829 509.943166 
" style="fill: none; stroke: #000000; stroke-width: 0.5; stroke-linecap: square"/>
    </g>
   </g>
   <g id="xtick_44">
    <g id="line2d_45">
     <path d="M 448.141287 511.910583 
L 457.577537 513.029808 
" style="fill: none; stroke: #000000; stroke-width: 0.5; stroke-linecap: square"/>
    </g>
   </g>
   <g id="xtick_45">
    <g id="line2d_46">
     <path d="M 445.632131 515.007106 
L 455.089806 516.13196 
" style="fill: none; stroke: #000000; stroke-width: 0.5; stroke-linecap: square"/>
    </g>
   </g>
   <g id="xtick_46">
    <g id="line2d_47">
     <path d="M 440.575839 521.247024 
L 450.076655 522.383262 
" style="fill: none; stroke: #000000; stroke-width: 0.5; stroke-linecap: square"/>
    </g>
   </g>
   <g id="text_10">
    <!-- Time [s] -->
    <g transform="translate(518.30259 495.185101) rotate(-51.078375) scale(0.1 -0.1)">
     <defs>
      <path id="CMR17-54" d="M 3981 4326 
L 288 4326 
L 179 2918 
L 294 2918 
C 378 3976 467 4160 1453 4160 
C 1568 4160 1754 4160 1805 4154 
C 1926 4135 1926 4058 1926 3912 
L 1926 459 
C 1926 230 1907 160 1376 160 
L 1197 160 
L 1197 0 
C 1504 0 1824 0 2138 0 
C 2451 0 2771 0 3078 0 
L 3078 160 
L 2899 160 
C 2368 160 2349 230 2349 459 
L 2349 3912 
C 2349 4052 2349 4129 2464 4154 
C 2515 4160 2701 4160 2816 4160 
C 3795 4160 3891 3976 3974 2918 
L 4090 2918 
L 3981 4326 
z
" transform="scale(0.015625)"/>
      <path id="CMR17-69" d="M 992 3909 
C 992 4049 877 4170 730 4170 
C 589 4170 467 4056 467 3909 
C 467 3769 582 3648 730 3648 
C 870 3648 992 3763 992 3909 
z
M 243 2706 
L 243 2541 
C 602 2541 653 2502 653 2197 
L 653 427 
C 653 184 627 153 218 153 
L 218 -13 
C 371 0 646 0 806 0 
C 960 0 1222 0 1370 -13 
L 1370 153 
C 992 153 979 191 979 420 
L 979 2776 
L 243 2706 
z
" transform="scale(0.015625)"/>
      <path id="CMR17-6d" d="M 4326 1933 
C 4326 2252 4269 2790 3507 2790 
C 3072 2790 2771 2496 2656 2151 
L 2650 2151 
C 2573 2676 2195 2790 1837 2790 
C 1331 2790 1069 2400 973 2144 
L 966 2144 
L 966 2790 
L 211 2720 
L 211 2554 
C 589 2554 646 2515 646 2208 
L 646 428 
C 646 184 621 153 211 153 
L 211 -13 
C 365 0 646 0 813 0 
C 979 0 1267 0 1421 -13 
L 1421 153 
C 1011 153 986 178 986 428 
L 986 1658 
C 986 2247 1344 2688 1792 2688 
C 2266 2688 2317 2266 2317 1958 
L 2317 428 
C 2317 184 2291 153 1882 153 
L 1882 -13 
C 2035 0 2317 0 2483 0 
C 2650 0 2938 0 3091 -13 
L 3091 153 
C 2682 153 2656 178 2656 428 
L 2656 1658 
C 2656 2247 3014 2688 3462 2688 
C 3936 2688 3987 2266 3987 1958 
L 3987 428 
C 3987 184 3962 153 3552 153 
L 3552 -13 
C 3706 0 3987 0 4154 0 
C 4320 0 4608 0 4762 -13 
L 4762 153 
C 4352 153 4326 178 4326 428 
L 4326 1933 
z
" transform="scale(0.015625)"/>
      <path id="CMR17-65" d="M 2438 1472 
C 2464 1498 2464 1511 2464 1576 
C 2464 2238 2118 2816 1389 2816 
C 710 2816 173 2169 173 1383 
C 173 551 781 -64 1459 -64 
C 2176 -64 2458 607 2458 740 
C 2458 784 2419 784 2406 784 
C 2362 784 2355 771 2330 696 
C 2189 265 1837 51 1504 51 
C 1229 51 954 203 781 480 
C 582 803 582 1176 582 1472 
L 2438 1472 
z
M 589 1568 
C 634 2505 1126 2714 1382 2714 
C 1818 2714 2112 2297 2118 1568 
L 589 1568 
z
" transform="scale(0.015625)"/>
      <path id="CMR17-5b" d="M 1504 -1600 
L 1504 -1377 
L 902 -1377 
L 902 4544 
L 1504 4544 
L 1504 4767 
L 678 4767 
L 678 -1600 
L 1504 -1600 
z
" transform="scale(0.015625)"/>
      <path id="CMR17-73" d="M 1978 2697 
C 1978 2813 1971 2819 1933 2819 
C 1907 2819 1901 2813 1824 2717 
C 1805 2691 1747 2626 1728 2601 
C 1523 2819 1235 2819 1126 2819 
C 416 2819 160 2447 160 2076 
C 160 1498 813 1365 998 1325 
C 1402 1243 1542 1217 1677 1101 
C 1760 1025 1901 884 1901 654 
C 1901 384 1747 38 1158 38 
C 602 38 403 460 288 1021 
C 269 1110 269 1117 218 1117 
C 166 1117 160 1110 160 983 
L 160 63 
C 160 -51 166 -58 205 -58 
C 237 -58 243 -51 275 0 
C 314 57 410 211 448 276 
C 576 103 800 -64 1158 -64 
C 1792 -64 2131 283 2131 784 
C 2131 1112 1958 1285 1875 1362 
C 1683 1561 1459 1606 1190 1657 
C 838 1735 390 1825 390 2217 
C 390 2383 480 2737 1126 2737 
C 1811 2737 1850 2094 1862 1888 
C 1869 1856 1901 1849 1920 1849 
C 1978 1849 1978 1869 1978 1978 
L 1978 2697 
z
" transform="scale(0.015625)"/>
      <path id="CMR17-5d" d="M 915 4767 
L 90 4767 
L 90 4544 
L 691 4544 
L 691 -1377 
L 90 -1377 
L 90 -1600 
L 915 -1600 
L 915 4767 
z
" transform="scale(0.015625)"/>
     </defs>
     <use xlink:href="#CMR17-54" transform="scale(0.996264)"/>
     <use xlink:href="#CMR17-69" transform="translate(66.509881 0) scale(0.996264)"/>
     <use xlink:href="#CMR17-6d" transform="translate(91.380939 0) scale(0.996264)"/>
     <use xlink:href="#CMR17-65" transform="translate(168.300529 0) scale(0.996264)"/>
     <use xlink:href="#CMR17-5b" transform="translate(238.862156 0) scale(0.996264)"/>
     <use xlink:href="#CMR17-73" transform="translate(263.733214 0) scale(0.996264)"/>
     <use xlink:href="#CMR17-5d" transform="translate(299.534552 0) scale(0.996264)"/>
    </g>
   </g>
  </g>
  <g id="axis3d_2">
   <g id="line2d_48">
    <path d="M 62.207501 476.290545 
L 443.516095 521.903865 
" style="fill: none; stroke: #000000; stroke-width: 0.5; stroke-linecap: square"/>
   </g>
   <g id="xtick_47">
    <g id="line2d_49">
     <path d="M 85.515159 477.873491 
L 81.893966 481.062286 
" style="fill: none; stroke: #000000; stroke-width: 0.5; stroke-linecap: square"/>
    </g>
    <g id="text_11">
     <!-- $\mathdefault{50000}$ -->
     <g transform="translate(66.546349 501.010387) scale(0.1 -0.1)">
      <use xlink:href="#CMR17-35" transform="scale(0.996264)"/>
      <use xlink:href="#CMR17-30" transform="translate(45.690477 0) scale(0.996264)"/>
      <use xlink:href="#CMR17-30" transform="translate(91.380954 0) scale(0.996264)"/>
      <use xlink:href="#CMR17-30" transform="translate(137.071431 0) scale(0.996264)"/>
      <use xlink:href="#CMR17-30" transform="translate(182.761908 0) scale(0.996264)"/>
     </g>
    </g>
   </g>
   <g id="xtick_48">
    <g id="line2d_50">
     <path d="M 159.718865 486.74106 
L 156.269546 489.977237 
" style="fill: none; stroke: #000000; stroke-width: 0.5; stroke-linecap: square"/>
    </g>
    <g id="text_12">
     <!-- $\mathdefault{100000}$ -->
     <g transform="translate(138.50605 510.033578) scale(0.1 -0.1)">
      <use xlink:href="#CMR17-31" transform="scale(0.996264)"/>
      <use xlink:href="#CMR17-30" transform="translate(45.690477 0) scale(0.996264)"/>
      <use xlink:href="#CMR17-30" transform="translate(91.380954 0) scale(0.996264)"/>
      <use xlink:href="#CMR17-30" transform="translate(137.071431 0) scale(0.996264)"/>
      <use xlink:href="#CMR17-30" transform="translate(182.761908 0) scale(0.996264)"/>
      <use xlink:href="#CMR17-30" transform="translate(228.452386 0) scale(0.996264)"/>
     </g>
    </g>
   </g>
   <g id="xtick_49">
    <g id="line2d_51">
     <path d="M 235.027799 495.740707 
L 231.755903 499.025331 
" style="fill: none; stroke: #000000; stroke-width: 0.5; stroke-linecap: square"/>
    </g>
    <g id="text_13">
     <!-- $\mathdefault{150000}$ -->
     <g transform="translate(214.069762 519.191703) scale(0.1 -0.1)">
      <use xlink:href="#CMR17-31" transform="scale(0.996264)"/>
      <use xlink:href="#CMR17-35" transform="translate(45.690477 0) scale(0.996264)"/>
      <use xlink:href="#CMR17-30" transform="translate(91.380954 0) scale(0.996264)"/>
      <use xlink:href="#CMR17-30" transform="translate(137.071431 0) scale(0.996264)"/>
      <use xlink:href="#CMR17-30" transform="translate(182.761908 0) scale(0.996264)"/>
      <use xlink:href="#CMR17-30" transform="translate(228.452386 0) scale(0.996264)"/>
     </g>
    </g>
   </g>
   <g id="xtick_50">
    <g id="line2d_52">
     <path d="M 311.466839 504.875405 
L 308.378107 508.209571 
" style="fill: none; stroke: #000000; stroke-width: 0.5; stroke-linecap: square"/>
    </g>
    <g id="text_14">
     <!-- $\mathdefault{200000}$ -->
     <g transform="translate(290.771979 528.487812) scale(0.1 -0.1)">
      <defs>
       <path id="CMR17-32" d="M 2669 989 
L 2554 989 
C 2490 536 2438 459 2413 420 
C 2381 369 1920 369 1830 369 
L 602 369 
C 832 619 1280 1072 1824 1597 
C 2214 1967 2669 2402 2669 3035 
C 2669 3790 2067 4224 1395 4224 
C 691 4224 262 3604 262 3030 
C 262 2780 448 2748 525 2748 
C 589 2748 781 2787 781 3010 
C 781 3207 614 3264 525 3264 
C 486 3264 448 3258 422 3245 
C 544 3790 915 4058 1306 4058 
C 1862 4058 2227 3617 2227 3035 
C 2227 2479 1901 2000 1536 1584 
L 262 146 
L 262 0 
L 2515 0 
L 2669 989 
z
" transform="scale(0.015625)"/>
      </defs>
      <use xlink:href="#CMR17-32" transform="scale(0.996264)"/>
      <use xlink:href="#CMR17-30" transform="translate(45.690477 0) scale(0.996264)"/>
      <use xlink:href="#CMR17-30" transform="translate(91.380954 0) scale(0.996264)"/>
      <use xlink:href="#CMR17-30" transform="translate(137.071431 0) scale(0.996264)"/>
      <use xlink:href="#CMR17-30" transform="translate(182.761908 0) scale(0.996264)"/>
      <use xlink:href="#CMR17-30" transform="translate(228.452386 0) scale(0.996264)"/>
     </g>
    </g>
   </g>
   <g id="xtick_51">
    <g id="line2d_53">
     <path d="M 389.061615 514.148218 
L 386.161989 517.533055 
" style="fill: none; stroke: #000000; stroke-width: 0.5; stroke-linecap: square"/>
    </g>
    <g id="text_15">
     <!-- $\mathdefault{250000}$ -->
     <g transform="translate(368.638627 537.925047) scale(0.1 -0.1)">
      <use xlink:href="#CMR17-32" transform="scale(0.996264)"/>
      <use xlink:href="#CMR17-35" transform="translate(45.690477 0) scale(0.996264)"/>
      <use xlink:href="#CMR17-30" transform="translate(91.380954 0) scale(0.996264)"/>
      <use xlink:href="#CMR17-30" transform="translate(137.071431 0) scale(0.996264)"/>
      <use xlink:href="#CMR17-30" transform="translate(182.761908 0) scale(0.996264)"/>
      <use xlink:href="#CMR17-30" transform="translate(228.452386 0) scale(0.996264)"/>
     </g>
    </g>
   </g>
   <g id="xtick_52">
    <g id="line2d_54">
     <path d="M 70.804907 476.115571 
L 67.149989 479.295015 
" style="fill: none; stroke: #000000; stroke-width: 0.5; stroke-linecap: square"/>
    </g>
   </g>
   <g id="xtick_53">
    <g id="line2d_55">
     <path d="M 100.268651 479.636578 
L 96.681398 482.834766 
" style="fill: none; stroke: #000000; stroke-width: 0.5; stroke-linecap: square"/>
    </g>
   </g>
   <g id="xtick_54">
    <g id="line2d_56">
     <path d="M 115.065576 481.404856 
L 111.512479 484.612478 
" style="fill: none; stroke: #000000; stroke-width: 0.5; stroke-linecap: square"/>
    </g>
   </g>
   <g id="xtick_55">
    <g id="line2d_57">
     <path d="M 129.906124 483.178346 
L 126.3874 486.395445 
" style="fill: none; stroke: #000000; stroke-width: 0.5; stroke-linecap: square"/>
    </g>
   </g>
   <g id="xtick_56">
    <g id="line2d_58">
     <path d="M 144.790489 484.957073 
L 141.306357 488.18369 
" style="fill: none; stroke: #000000; stroke-width: 0.5; stroke-linecap: square"/>
    </g>
   </g>
   <g id="xtick_57">
    <g id="line2d_59">
     <path d="M 174.691448 488.530329 
L 171.277164 491.77611 
" style="fill: none; stroke: #000000; stroke-width: 0.5; stroke-linecap: square"/>
    </g>
   </g>
   <g id="xtick_58">
    <g id="line2d_60">
     <path d="M 189.708435 490.324905 
L 186.329408 493.580331 
" style="fill: none; stroke: #000000; stroke-width: 0.5; stroke-linecap: square"/>
    </g>
   </g>
   <g id="xtick_59">
    <g id="line2d_61">
     <path d="M 204.770022 492.12481 
L 201.426479 495.389926 
" style="fill: none; stroke: #000000; stroke-width: 0.5; stroke-linecap: square"/>
    </g>
   </g>
   <g id="xtick_60">
    <g id="line2d_62">
     <path d="M 219.876411 493.93007 
L 216.568577 497.204918 
" style="fill: none; stroke: #000000; stroke-width: 0.5; stroke-linecap: square"/>
    </g>
   </g>
   <g id="xtick_61">
    <g id="line2d_63">
     <path d="M 250.224389 497.556746 
L 246.98866 500.851189 
" style="fill: none; stroke: #000000; stroke-width: 0.5; stroke-linecap: square"/>
    </g>
   </g>
   <g id="xtick_62">
    <g id="line2d_64">
     <path d="M 265.466384 499.378211 
L 262.267053 502.682518 
" style="fill: none; stroke: #000000; stroke-width: 0.5; stroke-linecap: square"/>
    </g>
   </g>
   <g id="xtick_63">
    <g id="line2d_65">
     <path d="M 280.753987 501.205126 
L 277.591288 504.519341 
" style="fill: none; stroke: #000000; stroke-width: 0.5; stroke-linecap: square"/>
    </g>
   </g>
   <g id="xtick_64">
    <g id="line2d_66">
     <path d="M 296.087403 503.037516 
L 292.961569 506.361684 
" style="fill: none; stroke: #000000; stroke-width: 0.5; stroke-linecap: square"/>
    </g>
   </g>
   <g id="xtick_65">
    <g id="line2d_67">
     <path d="M 326.892502 506.718819 
L 323.841109 510.063028 
" style="fill: none; stroke: #000000; stroke-width: 0.5; stroke-linecap: square"/>
    </g>
   </g>
   <g id="xtick_66">
    <g id="line2d_68">
     <path d="M 342.3646 508.567782 
L 339.350786 511.922079 
" style="fill: none; stroke: #000000; stroke-width: 0.5; stroke-linecap: square"/>
    </g>
   </g>
   <g id="xtick_67">
    <g id="line2d_69">
     <path d="M 357.883344 510.422319 
L 354.907349 513.786751 
" style="fill: none; stroke: #000000; stroke-width: 0.5; stroke-linecap: square"/>
    </g>
   </g>
   <g id="xtick_68">
    <g id="line2d_70">
     <path d="M 373.448945 512.282456 
L 370.511012 515.657067 
" style="fill: none; stroke: #000000; stroke-width: 0.5; stroke-linecap: square"/>
    </g>
   </g>
   <g id="xtick_69">
    <g id="line2d_71">
     <path d="M 404.721569 516.01963 
L 401.860496 519.414741 
" style="fill: none; stroke: #000000; stroke-width: 0.5; stroke-linecap: square"/>
    </g>
   </g>
   <g id="xtick_70">
    <g id="line2d_72">
     <path d="M 420.429021 517.896718 
L 417.606748 521.302149 
" style="fill: none; stroke: #000000; stroke-width: 0.5; stroke-linecap: square"/>
    </g>
   </g>
   <g id="xtick_71">
    <g id="line2d_73">
     <path d="M 436.184188 519.779509 
L 433.400965 523.195306 
" style="fill: none; stroke: #000000; stroke-width: 0.5; stroke-linecap: square"/>
    </g>
   </g>
   <g id="text_16">
    <!-- Selection cost [] -->
    <g transform="translate(204.520086 530.848571) rotate(-353.178515) scale(0.1 -0.1)">
     <defs>
      <path id="CMR17-53" d="M 2803 4290 
C 2803 4404 2797 4411 2758 4411 
C 2720 4411 2707 4385 2682 4328 
L 2490 3907 
C 2246 4257 1875 4416 1472 4416 
C 819 4416 294 3901 294 3253 
C 294 3056 339 2776 557 2510 
C 794 2218 1018 2167 1530 2033 
C 1722 1982 2042 1899 2106 1874 
C 2470 1722 2662 1341 2662 985 
C 2662 527 2336 38 1779 38 
C 1094 38 454 419 410 1311 
C 403 1413 397 1419 352 1419 
C 301 1419 294 1413 294 1285 
L 294 -1 
C 294 -115 301 -122 339 -122 
C 384 -122 397 -90 486 108 
C 493 127 493 140 614 381 
C 934 -39 1472 -128 1779 -128 
C 2477 -128 2970 451 2970 1124 
C 2970 1454 2848 1708 2778 1823 
C 2509 2230 2221 2306 1914 2382 
C 1869 2402 1856 2402 1498 2490 
C 1152 2579 1005 2624 845 2796 
C 666 2992 602 3196 602 3399 
C 602 3812 934 4263 1478 4263 
C 2157 4263 2579 3786 2675 2993 
C 2694 2878 2701 2872 2746 2872 
C 2803 2872 2803 2891 2803 2999 
L 2803 4290 
z
" transform="scale(0.015625)"/>
      <path id="CMR17-6c" d="M 979 4396 
L 218 4326 
L 218 4160 
C 595 4160 653 4122 653 3817 
L 653 426 
C 653 184 627 153 218 153 
L 218 -13 
C 371 0 653 0 813 0 
C 979 0 1261 0 1414 -13 
L 1414 153 
C 1005 153 979 178 979 426 
L 979 4396 
z
" transform="scale(0.015625)"/>
      <path id="CMR17-63" d="M 2234 2240 
C 2112 2240 1933 2240 1933 2017 
C 1933 1838 2080 1787 2163 1787 
C 2208 1787 2394 1807 2394 2024 
C 2394 2467 1958 2803 1466 2803 
C 787 2803 211 2178 211 1363 
C 211 516 813 -64 1466 -64 
C 2259 -64 2458 677 2458 748 
C 2458 774 2451 793 2406 793 
C 2362 793 2355 787 2330 703 
C 2163 180 1798 51 1523 51 
C 1114 51 621 427 621 1369 
C 621 2338 1094 2688 1472 2688 
C 1722 2688 2093 2573 2234 2240 
z
" transform="scale(0.015625)"/>
      <path id="CMR17-74" d="M 966 2560 
L 1862 2560 
L 1862 2725 
L 966 2725 
L 966 3904 
L 851 3904 
C 838 3245 614 2668 70 2668 
L 70 2560 
L 627 2560 
L 627 771 
C 627 650 627 -64 1370 -64 
C 1747 -64 1965 306 1965 777 
L 1965 1140 
L 1850 1140 
L 1850 783 
C 1850 344 1677 51 1408 51 
C 1222 51 966 178 966 758 
L 966 2560 
z
" transform="scale(0.015625)"/>
      <path id="CMR17-6f" d="M 2758 1356 
C 2758 2176 2163 2816 1466 2816 
C 768 2816 173 2176 173 1356 
C 173 551 768 -64 1466 -64 
C 2163 -64 2758 551 2758 1356 
z
M 1466 51 
C 1165 51 909 230 762 480 
C 602 767 582 1126 582 1408 
C 582 1677 595 2010 762 2298 
C 890 2509 1139 2714 1466 2714 
C 1754 2714 1997 2554 2150 2330 
C 2349 2029 2349 1607 2349 1408 
C 2349 1158 2336 775 2163 467 
C 1984 173 1709 51 1466 51 
z
" transform="scale(0.015625)"/>
      <path id="CMR17-6e" d="M 2656 1933 
C 2656 2259 2592 2790 1837 2790 
C 1331 2790 1069 2400 973 2144 
L 966 2144 
L 966 2790 
L 211 2720 
L 211 2554 
C 589 2554 646 2515 646 2208 
L 646 428 
C 646 184 621 153 211 153 
L 211 -13 
C 365 0 646 0 813 0 
C 979 0 1267 0 1421 -13 
L 1421 153 
C 1011 153 986 178 986 428 
L 986 1658 
C 986 2247 1344 2688 1792 2688 
C 2266 2688 2317 2266 2317 1958 
L 2317 428 
C 2317 184 2291 153 1882 153 
L 1882 -13 
C 2035 0 2317 0 2483 0 
C 2650 0 2938 0 3091 -13 
L 3091 153 
C 2682 153 2656 178 2656 428 
L 2656 1933 
z
" transform="scale(0.015625)"/>
     </defs>
     <use xlink:href="#CMR17-53" transform="scale(0.996264)"/>
     <use xlink:href="#CMR17-65" transform="translate(50.89537 0) scale(0.996264)"/>
     <use xlink:href="#CMR17-6c" transform="translate(91.38103 0) scale(0.996264)"/>
     <use xlink:href="#CMR17-65" transform="translate(116.252089 0) scale(0.996264)"/>
     <use xlink:href="#CMR17-63" transform="translate(156.737749 0) scale(0.996264)"/>
     <use xlink:href="#CMR17-74" transform="translate(197.22341 0) scale(0.996264)"/>
     <use xlink:href="#CMR17-69" transform="translate(232.504177 0) scale(0.996264)"/>
     <use xlink:href="#CMR17-6f" transform="translate(257.375236 0) scale(0.996264)"/>
     <use xlink:href="#CMR17-6e" transform="translate(303.065713 0) scale(0.996264)"/>
     <use xlink:href="#CMR17-63" transform="translate(384.037049 0) scale(0.996264)"/>
     <use xlink:href="#CMR17-6f" transform="translate(424.52271 0) scale(0.996264)"/>
     <use xlink:href="#CMR17-73" transform="translate(470.213187 0) scale(0.996264)"/>
     <use xlink:href="#CMR17-74" transform="translate(506.014524 0) scale(0.996264)"/>
     <use xlink:href="#CMR17-5b" transform="translate(571.371259 0) scale(0.996264)"/>
     <use xlink:href="#CMR17-5d" transform="translate(596.242317 0) scale(0.996264)"/>
    </g>
   </g>
  </g>
  <g id="axis3d_3">
   <g id="line2d_74">
    <path d="M 62.207501 476.290545 
L 55.177084 189.329946 
" style="fill: none; stroke: #000000; stroke-width: 0.5; stroke-linecap: square"/>
   </g>
   <g id="xtick_72">
    <g id="line2d_75">
     <path d="M 63.020369 458.460659 
L 59.341467 461.59607 
" style="fill: none; stroke: #000000; stroke-width: 0.5; stroke-linecap: square"/>
    </g>
    <g id="text_17">
     <!-- $\mathdefault{0}$ -->
     <g transform="translate(40.162528 469.623503) scale(0.1 -0.1)">
      <use xlink:href="#CMR17-30" transform="scale(0.996264)"/>
     </g>
    </g>
   </g>
   <g id="xtick_73">
    <g id="line2d_76">
     <path d="M 61.685253 403.692849 
L 57.983089 406.698764 
" style="fill: none; stroke: #000000; stroke-width: 0.5; stroke-linecap: square"/>
    </g>
    <g id="text_18">
     <!-- $\mathdefault{20000}$ -->
     <g transform="translate(28.750768 414.680417) scale(0.1 -0.1)">
      <use xlink:href="#CMR17-32" transform="scale(0.996264)"/>
      <use xlink:href="#CMR17-30" transform="translate(45.690477 0) scale(0.996264)"/>
      <use xlink:href="#CMR17-30" transform="translate(91.380954 0) scale(0.996264)"/>
      <use xlink:href="#CMR17-30" transform="translate(137.071431 0) scale(0.996264)"/>
      <use xlink:href="#CMR17-30" transform="translate(182.761908 0) scale(0.996264)"/>
     </g>
    </g>
   </g>
   <g id="xtick_74">
    <g id="line2d_77">
     <path d="M 60.335802 348.337021 
L 56.610087 351.210467 
" style="fill: none; stroke: #000000; stroke-width: 0.5; stroke-linecap: square"/>
    </g>
    <g id="text_19">
     <!-- $\mathdefault{40000}$ -->
     <g transform="translate(27.286064 359.145287) scale(0.1 -0.1)">
      <use xlink:href="#CMR17-34" transform="scale(0.996264)"/>
      <use xlink:href="#CMR17-30" transform="translate(45.690477 0) scale(0.996264)"/>
      <use xlink:href="#CMR17-30" transform="translate(91.380954 0) scale(0.996264)"/>
      <use xlink:href="#CMR17-30" transform="translate(137.071431 0) scale(0.996264)"/>
      <use xlink:href="#CMR17-30" transform="translate(182.761908 0) scale(0.996264)"/>
     </g>
    </g>
   </g>
   <g id="xtick_75">
    <g id="line2d_78">
     <path d="M 58.971785 292.383655 
L 55.222224 295.121584 
" style="fill: none; stroke: #000000; stroke-width: 0.5; stroke-linecap: square"/>
    </g>
    <g id="text_20">
     <!-- $\mathdefault{60000}$ -->
     <g transform="translate(25.805491 303.008491) scale(0.1 -0.1)">
      <use xlink:href="#CMR17-36" transform="scale(0.996264)"/>
      <use xlink:href="#CMR17-30" transform="translate(45.690477 0) scale(0.996264)"/>
      <use xlink:href="#CMR17-30" transform="translate(91.380954 0) scale(0.996264)"/>
      <use xlink:href="#CMR17-30" transform="translate(137.071431 0) scale(0.996264)"/>
      <use xlink:href="#CMR17-30" transform="translate(182.761908 0) scale(0.996264)"/>
     </g>
    </g>
   </g>
   <g id="xtick_76">
    <g id="line2d_79">
     <path d="M 57.592964 235.823021 
L 53.819258 238.42231 
" style="fill: none; stroke: #000000; stroke-width: 0.5; stroke-linecap: square"/>
    </g>
    <g id="text_21">
     <!-- $\mathdefault{80000}$ -->
     <g transform="translate(24.308791 246.260199) scale(0.1 -0.1)">
      <use xlink:href="#CMR17-38" transform="scale(0.996264)"/>
      <use xlink:href="#CMR17-30" transform="translate(45.690477 0) scale(0.996264)"/>
      <use xlink:href="#CMR17-30" transform="translate(91.380954 0) scale(0.996264)"/>
      <use xlink:href="#CMR17-30" transform="translate(137.071431 0) scale(0.996264)"/>
      <use xlink:href="#CMR17-30" transform="translate(182.761908 0) scale(0.996264)"/>
     </g>
    </g>
   </g>
   <g id="text_22">
    <!-- Monetary cost $[\$]$ -->
    <g transform="translate(13.037488 302.954181) rotate(-271.403442) scale(0.1 -0.1)">
     <defs>
      <path id="CMR17-4d" d="M 1338 4224 
C 1299 4320 1293 4320 1158 4320 
L 339 4320 
L 339 4160 
C 781 4160 851 4160 851 3875 
L 851 610 
C 851 451 851 153 339 153 
L 339 -13 
C 486 0 755 0 915 0 
C 1075 0 1344 0 1491 -13 
L 1491 153 
C 979 153 979 451 979 610 
L 979 4135 
L 986 4135 
L 2490 89 
C 2515 25 2528 -13 2579 -13 
C 2630 -13 2643 25 2669 89 
L 4186 4166 
L 4192 4166 
L 4192 438 
C 4192 153 4122 153 3680 153 
L 3680 -13 
C 3853 0 4198 0 4384 0 
C 4570 0 4922 0 5094 -13 
L 5094 153 
C 4653 153 4582 153 4582 438 
L 4582 3875 
C 4582 4160 4653 4160 5094 4160 
L 5094 4320 
L 4282 4320 
C 4147 4320 4141 4314 4102 4218 
L 2720 502 
L 1338 4224 
z
" transform="scale(0.015625)"/>
      <path id="CMR17-61" d="M 2304 1653 
C 2304 2072 2304 2294 2035 2543 
C 1798 2752 1523 2816 1306 2816 
C 800 2816 435 2407 435 1971 
C 435 1728 627 1728 666 1728 
C 749 1728 896 1778 896 1954 
C 896 2112 774 2181 666 2181 
C 640 2181 608 2174 589 2168 
C 723 2592 1069 2714 1293 2714 
C 1613 2714 1965 2429 1965 1885 
L 1965 1600 
C 1587 1600 1133 1549 774 1357 
C 371 1133 256 813 256 570 
C 256 77 832 -64 1171 -64 
C 1523 -64 1850 139 1990 511 
C 2003 233 2182 -18 2464 -18 
C 2598 -18 2938 70 2938 567 
L 2938 920 
L 2822 920 
L 2822 562 
C 2822 178 2650 128 2566 128 
C 2304 128 2304 458 2304 738 
L 2304 1653 
z
M 1965 870 
C 1965 317 1568 38 1216 38 
C 896 38 646 275 646 570 
C 646 761 730 1100 1101 1305 
C 1408 1478 1760 1504 1965 1504 
L 1965 870 
z
" transform="scale(0.015625)"/>
      <path id="CMR17-72" d="M 960 1497 
C 960 2112 1222 2688 1702 2688 
C 1747 2688 1792 2682 1837 2662 
C 1837 2662 1696 2617 1696 2452 
C 1696 2298 1818 2234 1914 2234 
C 1990 2234 2131 2279 2131 2458 
C 2131 2663 1926 2790 1709 2790 
C 1222 2790 1011 2317 947 2093 
L 941 2093 
L 941 2790 
L 198 2720 
L 198 2554 
C 576 2554 634 2515 634 2208 
L 634 428 
C 634 184 608 153 198 153 
L 198 -13 
C 352 0 646 0 813 0 
C 998 0 1325 0 1498 -13 
L 1498 153 
C 1037 153 960 153 960 440 
L 960 1497 
z
" transform="scale(0.015625)"/>
      <path id="CMR17-79" d="M 2496 2197 
C 2656 2586 2944 2586 3034 2586 
L 3034 2752 
C 2912 2752 2752 2752 2630 2752 
C 2496 2752 2285 2752 2157 2758 
L 2157 2592 
C 2400 2573 2406 2394 2406 2343 
C 2406 2280 2394 2248 2362 2171 
L 1664 449 
L 902 2306 
C 870 2382 870 2426 870 2433 
C 870 2573 1018 2586 1171 2586 
L 1171 2758 
C 1018 2752 742 2752 582 2752 
C 410 2752 205 2752 64 2758 
L 64 2586 
C 410 2586 448 2554 531 2350 
L 1485 15 
C 1197 -738 1030 -1178 627 -1178 
C 557 -1178 397 -1159 282 -1044 
C 429 -1031 493 -942 493 -833 
C 493 -725 416 -629 288 -629 
C 147 -629 77 -725 77 -840 
C 77 -1095 339 -1280 627 -1280 
C 998 -1280 1229 -922 1357 -604 
L 2496 2197 
z
" transform="scale(0.015625)"/>
      <path id="CMR17-24" d="M 1549 4327 
C 1901 4327 2381 4183 2502 3576 
C 2477 3589 2438 3595 2406 3595 
C 2323 3595 2176 3544 2176 3366 
C 2176 3206 2298 3136 2406 3136 
C 2541 3136 2637 3215 2637 3403 
C 2637 3939 2317 4480 1549 4480 
L 1549 4800 
L 1382 4800 
L 1382 4505 
C 749 4448 294 3936 294 3328 
C 294 2906 499 2637 602 2522 
C 838 2273 1011 2227 1382 2125 
L 1382 153 
C 1030 153 538 332 422 979 
C 448 967 493 960 525 960 
C 634 960 755 1031 755 1190 
C 755 1368 608 1419 525 1419 
C 416 1419 294 1368 294 1156 
C 294 514 685 0 1382 0 
L 1382 -320 
L 1549 -320 
L 1549 -13 
C 2214 45 2637 616 2637 1244 
C 2637 1408 2611 1771 2323 2107 
C 2086 2380 1837 2443 1549 2513 
L 1549 4327 
z
M 1382 2564 
C 1210 2602 979 2660 800 2846 
C 646 3013 550 3218 550 3455 
C 550 3840 838 4282 1382 4333 
L 1382 2564 
z
M 1549 2080 
C 1754 2035 1939 1979 2125 1782 
C 2214 1680 2381 1446 2381 1110 
C 2381 666 2067 204 1549 153 
L 1549 2080 
z
" transform="scale(0.015625)"/>
     </defs>
     <use xlink:href="#CMR17-4d" transform="scale(0.996264)"/>
     <use xlink:href="#CMR17-6f" transform="translate(84.686941 0) scale(0.996264)"/>
     <use xlink:href="#CMR17-6e" transform="translate(130.377418 0) scale(0.996264)"/>
     <use xlink:href="#CMR17-65" transform="translate(181.272787 0) scale(0.996264)"/>
     <use xlink:href="#CMR17-74" transform="translate(221.758448 0) scale(0.996264)"/>
     <use xlink:href="#CMR17-61" transform="translate(257.039216 0) scale(0.996264)"/>
     <use xlink:href="#CMR17-72" transform="translate(302.729693 0) scale(0.996264)"/>
     <use xlink:href="#CMR17-79" transform="translate(338.010461 0) scale(0.996264)"/>
     <use xlink:href="#CMR17-63" transform="translate(416.379343 0) scale(0.996264)"/>
     <use xlink:href="#CMR17-6f" transform="translate(456.865003 0) scale(0.996264)"/>
     <use xlink:href="#CMR17-73" transform="translate(502.55548 0) scale(0.996264)"/>
     <use xlink:href="#CMR17-74" transform="translate(538.356818 0) scale(0.996264)"/>
     <use xlink:href="#CMR17-5b" transform="translate(603.713552 0) scale(0.996264)"/>
     <use xlink:href="#CMR17-24" transform="translate(628.584611 0) scale(0.996264)"/>
     <use xlink:href="#CMR17-5d" transform="translate(674.275088 0) scale(0.996264)"/>
    </g>
   </g>
  </g>
  <g id="axes_1">
   <g id="Path3DCollection_1">
    <defs>
     <path id="m8c440b0a58" d="M 0 2.236068 
C 0.593012 2.236068 1.161816 2.000462 1.581139 1.581139 
C 2.000462 1.161816 2.236068 0.593012 2.236068 0 
C 2.236068 -0.593012 2.000462 -1.161816 1.581139 -1.581139 
C 1.161816 -2.000462 0.593012 -2.236068 0 -2.236068 
C -0.593012 -2.236068 -1.161816 -2.000462 -1.581139 -1.581139 
C -2.000462 -1.161816 -2.236068 -0.593012 -2.236068 0 
C -2.236068 0.593012 -2.000462 1.161816 -1.581139 1.581139 
C -1.161816 2.000462 -0.593012 2.236068 0 2.236068 
z
" style="stroke: #00b945"/>
    </defs>
    <g clip-path="url(#pb4677783b2)">
     <use xlink:href="#m8c440b0a58" x="522.873882" y="146.623503" style="fill: #00b945; stroke: #00b945"/>
    </g>
   </g>
   <g id="Path3DCollection_2">
    <defs>
     <path id="m2702646b2a" d="M 0 2.236068 
C 0.593012 2.236068 1.161816 2.000462 1.581139 1.581139 
C 2.000462 1.161816 2.236068 0.593012 2.236068 0 
C 2.236068 -0.593012 2.000462 -1.161816 1.581139 -1.581139 
C 1.161816 -2.000462 0.593012 -2.236068 0 -2.236068 
C -0.593012 -2.236068 -1.161816 -2.000462 -1.581139 -1.581139 
C -2.000462 -1.161816 -2.236068 -0.593012 -2.236068 0 
C -2.236068 0.593012 -2.000462 1.161816 -1.581139 1.581139 
C -1.161816 2.000462 -0.593012 2.236068 0 2.236068 
z
" style="stroke: #0c5da5"/>
    </defs>
    <g clip-path="url(#pb4677783b2)">
     <use xlink:href="#m2702646b2a" x="131.811519" y="336.521235" style="fill: #0c5da5; stroke: #0c5da5"/>
    </g>
   </g>
   <g id="Path3DCollection_3">
    <defs>
     <path id="mfb8e8879c0" d="M 0 2.236068 
C 0.593012 2.236068 1.161816 2.000462 1.581139 1.581139 
C 2.000462 1.161816 2.236068 0.593012 2.236068 0 
C 2.236068 -0.593012 2.000462 -1.161816 1.581139 -1.581139 
C 1.161816 -2.000462 0.593012 -2.236068 0 -2.236068 
C -0.593012 -2.236068 -1.161816 -2.000462 -1.581139 -1.581139 
C -2.000462 -1.161816 -2.236068 -0.593012 -2.236068 0 
C -2.236068 0.593012 -2.000462 1.161816 -1.581139 1.581139 
C -1.161816 2.000462 -0.593012 2.236068 0 2.236068 
z
" style="stroke: #ff9500"/>
    </defs>
    <g clip-path="url(#pb4677783b2)">
     <use xlink:href="#mfb8e8879c0" x="202.874657" y="464.595901" style="fill: #ff9500; stroke: #ff9500"/>
    </g>
   </g>
   <g id="legend_1">
    <g id="patch_6">
     <path d="M 508.974105 19.6 
L 528.974105 19.6 
L 528.974105 12.6 
L 508.974105 12.6 
z
" style="fill: #e36b54"/>
    </g>
    <g id="text_23">
     <!-- Pareto front -->
     <g transform="translate(536.974105 19.6) scale(0.1 -0.1)">
      <defs>
       <path id="CMR17-50" d="M 1267 2042 
L 2291 2042 
C 3117 2042 3718 2578 3718 3184 
C 3718 3791 3130 4352 2291 4352 
L 333 4352 
L 333 4186 
C 774 4186 845 4186 845 3899 
L 845 446 
C 845 160 774 160 333 160 
L 333 0 
C 518 0 858 0 1056 0 
C 1254 0 1594 0 1779 0 
L 1779 160 
C 1338 160 1267 160 1267 446 
L 1267 2042 
z
M 1254 2176 
L 1254 3938 
C 1254 4155 1267 4186 1523 4186 
L 2170 4186 
C 2995 4186 3232 3714 3232 3184 
C 3232 2604 2950 2176 2170 2176 
L 1254 2176 
z
" transform="scale(0.015625)"/>
       <path id="CMR17-66" d="M 979 2560 
L 1709 2560 
L 1709 2725 
L 966 2725 
L 966 3494 
C 966 4022 1235 4352 1510 4352 
C 1594 4352 1690 4327 1754 4282 
C 1702 4269 1568 4225 1568 4067 
C 1568 3901 1696 3850 1786 3850 
C 1875 3850 2003 3901 2003 4067 
C 2003 4308 1773 4454 1517 4454 
C 1152 4454 653 4156 653 3481 
L 653 2725 
L 141 2725 
L 141 2560 
L 653 2560 
L 653 427 
C 653 184 627 153 218 153 
L 218 -13 
C 371 0 666 0 832 0 
C 1018 0 1344 0 1517 -13 
L 1517 153 
C 1056 153 979 153 979 439 
L 979 2560 
z
" transform="scale(0.015625)"/>
      </defs>
      <use xlink:href="#CMR17-50" transform="scale(0.996264)"/>
      <use xlink:href="#CMR17-61" transform="translate(59.983847 0) scale(0.996264)"/>
      <use xlink:href="#CMR17-72" transform="translate(105.674324 0) scale(0.996264)"/>
      <use xlink:href="#CMR17-65" transform="translate(140.955092 0) scale(0.996264)"/>
      <use xlink:href="#CMR17-74" transform="translate(181.440752 0) scale(0.996264)"/>
      <use xlink:href="#CMR17-6f" transform="translate(216.72152 0) scale(0.996264)"/>
      <use xlink:href="#CMR17-66" transform="translate(292.487963 0) scale(0.996264)"/>
      <use xlink:href="#CMR17-72" transform="translate(319.961476 0) scale(0.996264)"/>
      <use xlink:href="#CMR17-6f" transform="translate(355.242243 0) scale(0.996264)"/>
      <use xlink:href="#CMR17-6e" transform="translate(400.932721 0) scale(0.996264)"/>
      <use xlink:href="#CMR17-74" transform="translate(449.225636 0) scale(0.996264)"/>
     </g>
    </g>
    <g id="Path3DCollection_4">
     <g>
      <use xlink:href="#m2702646b2a" x="518.974105" y="32.293012" style="fill: #0c5da5; stroke: #0c5da5"/>
     </g>
    </g>
    <g id="text_24">
     <!-- $w=(0,\, 1,\, 0)^T$ -->
     <g transform="translate(536.974105 34.918012) scale(0.1 -0.1)">
      <defs>
       <path id="CMMI12-77" d="M 2202 390 
C 2342 6 2739 -64 2982 -64 
C 3469 -64 3757 358 3936 798 
C 4083 1169 4320 2012 4320 2389 
C 4320 2778 4122 2816 4064 2816 
C 3910 2816 3770 2663 3770 2535 
C 3770 2459 3814 2414 3846 2389 
C 3904 2331 4070 2159 4070 1827 
C 4070 1609 3891 1009 3757 709 
C 3578 319 3341 64 3008 64 
C 2650 64 2534 332 2534 626 
C 2534 811 2592 1035 2618 1143 
L 2886 2216 
C 2918 2344 2976 2567 2976 2593 
C 2976 2689 2899 2753 2803 2753 
C 2618 2753 2573 2593 2534 2440 
C 2470 2191 2202 1111 2176 971 
C 2150 862 2150 792 2150 651 
C 2150 498 1946 255 1939 243 
C 1869 172 1766 64 1568 64 
C 1062 64 1062 543 1062 651 
C 1062 856 1107 1137 1395 1897 
C 1472 2095 1504 2178 1504 2305 
C 1504 2574 1312 2816 998 2816 
C 410 2816 173 1890 173 1839 
C 173 1814 198 1782 243 1782 
C 301 1782 307 1807 333 1896 
C 493 2454 742 2682 979 2682 
C 1043 2682 1146 2682 1146 2478 
C 1146 2446 1146 2312 1037 2031 
C 736 1233 672 971 672 728 
C 672 57 1222 -64 1549 -64 
C 1658 -64 1946 -64 2202 390 
z
" transform="scale(0.015625)"/>
       <path id="CMR17-3d" d="M 4115 2017 
C 4211 2017 4307 2017 4307 2125 
C 4307 2240 4198 2240 4090 2240 
L 512 2240 
C 403 2240 294 2240 294 2125 
C 294 2017 390 2017 486 2017 
L 4115 2017 
z
M 4090 896 
C 4198 896 4307 896 4307 1011 
C 4307 1119 4211 1119 4115 1119 
L 486 1119 
C 390 1119 294 1119 294 1011 
C 294 896 403 896 512 896 
L 4090 896 
z
" transform="scale(0.015625)"/>
       <path id="CMR17-28" d="M 1958 -1561 
C 1958 -1555 1958 -1542 1939 -1523 
C 1645 -1224 858 -407 858 1581 
C 858 3569 1632 4379 1946 4697 
C 1946 4704 1958 4717 1958 4736 
C 1958 4755 1939 4768 1914 4768 
C 1843 4768 1299 4296 986 3594 
C 666 2887 576 2199 576 1588 
C 576 1128 621 351 1005 -471 
C 1312 -1135 1837 -1600 1914 -1600 
C 1946 -1600 1958 -1587 1958 -1561 
z
" transform="scale(0.015625)"/>
       <path id="CMMI12-3b" d="M 1248 -31 
C 1248 343 1126 619 864 619 
C 659 619 557 453 557 313 
C 557 172 653 0 870 0 
C 954 0 1024 26 1082 83 
C 1094 96 1101 96 1107 96 
C 1120 96 1120 5 1120 -27 
C 1120 -240 1082 -659 710 -1080 
C 640 -1157 640 -1170 640 -1183 
C 640 -1216 672 -1248 704 -1248 
C 755 -1248 1248 -771 1248 -31 
z
" transform="scale(0.015625)"/>
       <path id="CMR17-29" d="M 1683 1581 
C 1683 2040 1638 2817 1254 3639 
C 947 4303 422 4768 346 4768 
C 326 4768 301 4761 301 4729 
C 301 4717 307 4710 314 4697 
C 621 4378 1402 3568 1402 1584 
C 1402 -407 627 -1217 314 -1537 
C 307 -1549 301 -1556 301 -1568 
C 301 -1600 326 -1600 346 -1600 
C 416 -1600 960 -1128 1274 -426 
C 1594 281 1683 969 1683 1581 
z
" transform="scale(0.015625)"/>
       <path id="CMMI12-54" d="M 2669 3910 
C 2707 4064 2720 4121 2816 4147 
C 2867 4160 3078 4160 3213 4160 
C 3853 4160 4154 4134 4154 3634 
C 4154 3537 4128 3295 4090 3057 
L 4083 2980 
C 4083 2954 4109 2916 4147 2916 
C 4211 2916 4211 2948 4230 3050 
L 4416 4184 
C 4429 4243 4429 4256 4429 4275 
C 4429 4345 4390 4345 4262 4345 
L 762 4345 
C 614 4345 608 4339 570 4224 
L 179 3070 
C 173 3056 154 2986 154 2980 
C 154 2948 179 2916 218 2916 
C 269 2916 282 2941 307 3024 
C 576 3801 710 4160 1562 4160 
L 1990 4160 
C 2144 4160 2208 4160 2208 4089 
C 2208 4069 2208 4057 2176 3941 
L 1318 499 
C 1254 249 1242 185 563 185 
C 403 185 358 185 358 64 
C 358 0 429 0 461 0 
C 621 0 787 0 947 0 
L 1946 0 
C 2106 0 2278 0 2438 0 
C 2509 0 2573 0 2573 121 
C 2573 185 2528 185 2362 185 
C 1786 185 1786 243 1786 339 
C 1786 346 1786 391 1811 494 
L 2669 3910 
z
" transform="scale(0.015625)"/>
      </defs>
      <use xlink:href="#CMMI12-77" transform="scale(0.996264)"/>
      <use xlink:href="#CMR17-3d" transform="translate(100.086924 0) scale(0.996264)"/>
      <use xlink:href="#CMR17-28" transform="translate(199.475721 0) scale(0.996264)"/>
      <use xlink:href="#CMR17-30" transform="translate(234.756489 0) scale(0.996264)"/>
      <use xlink:href="#CMMI12-3b" transform="translate(280.446966 0) scale(0.996264)"/>
      <use xlink:href="#CMR17-31" transform="translate(340.752953 0) scale(0.996264)"/>
      <use xlink:href="#CMMI12-3b" transform="translate(386.443431 0) scale(0.996264)"/>
      <use xlink:href="#CMR17-30" transform="translate(446.749418 0) scale(0.996264)"/>
      <use xlink:href="#CMR17-29" transform="translate(492.439895 0) scale(0.996264)"/>
      <use xlink:href="#CMMI12-54" transform="translate(527.720663 36.153639) scale(0.697382)"/>
     </g>
    </g>
    <g id="Path3DCollection_5">
     <g>
      <use xlink:href="#m8c440b0a58" x="518.974105" y="48.164506" style="fill: #00b945; stroke: #00b945"/>
     </g>
    </g>
    <g id="text_25">
     <!-- $w=(0,\, 0,\, 1)^T$ -->
     <g transform="translate(536.974105 50.789506) scale(0.1 -0.1)">
      <use xlink:href="#CMMI12-77" transform="scale(0.996264)"/>
      <use xlink:href="#CMR17-3d" transform="translate(100.086924 0) scale(0.996264)"/>
      <use xlink:href="#CMR17-28" transform="translate(199.475721 0) scale(0.996264)"/>
      <use xlink:href="#CMR17-30" transform="translate(234.756489 0) scale(0.996264)"/>
      <use xlink:href="#CMMI12-3b" transform="translate(280.446966 0) scale(0.996264)"/>
      <use xlink:href="#CMR17-30" transform="translate(340.752953 0) scale(0.996264)"/>
      <use xlink:href="#CMMI12-3b" transform="translate(386.443431 0) scale(0.996264)"/>
      <use xlink:href="#CMR17-31" transform="translate(446.749418 0) scale(0.996264)"/>
      <use xlink:href="#CMR17-29" transform="translate(492.439895 0) scale(0.996264)"/>
      <use xlink:href="#CMMI12-54" transform="translate(527.720663 36.153639) scale(0.697382)"/>
     </g>
    </g>
    <g id="Path3DCollection_6">
     <g>
      <use xlink:href="#mfb8e8879c0" x="518.974105" y="64.036" style="fill: #ff9500; stroke: #ff9500"/>
     </g>
    </g>
    <g id="text_26">
     <!-- $w=(1,\, 0,\, 0)^T$ -->
     <g transform="translate(536.974105 66.661) scale(0.1 -0.1)">
      <use xlink:href="#CMMI12-77" transform="scale(0.996264)"/>
      <use xlink:href="#CMR17-3d" transform="translate(100.086924 0) scale(0.996264)"/>
      <use xlink:href="#CMR17-28" transform="translate(199.475721 0) scale(0.996264)"/>
      <use xlink:href="#CMR17-31" transform="translate(234.756489 0) scale(0.996264)"/>
      <use xlink:href="#CMMI12-3b" transform="translate(280.446966 0) scale(0.996264)"/>
      <use xlink:href="#CMR17-30" transform="translate(340.752953 0) scale(0.996264)"/>
      <use xlink:href="#CMMI12-3b" transform="translate(386.443431 0) scale(0.996264)"/>
      <use xlink:href="#CMR17-30" transform="translate(446.749418 0) scale(0.996264)"/>
      <use xlink:href="#CMR17-29" transform="translate(492.439895 0) scale(0.996264)"/>
      <use xlink:href="#CMMI12-54" transform="translate(527.720663 36.153639) scale(0.697382)"/>
     </g>
    </g>
   </g>
   <g id="Poly3DCollection_1">
    <path d="M 218.906931 198.392021 
L 214.920666 172.362514 
L 203.477603 237.977177 
z
" clip-path="url(#pb4677783b2)" style="fill: #f5a081"/>
    <path d="M 209.078904 181.781716 
L 207.632678 184.180577 
L 214.920666 172.362514 
z
" clip-path="url(#pb4677783b2)" style="fill: #e67259"/>
    <path d="M 214.920666 172.362514 
L 211.803986 146.005947 
L 209.078904 181.781716 
z
" clip-path="url(#pb4677783b2)" style="fill: #d85646"/>
    <path d="M 211.803986 146.005947 
L 209.995098 169.747385 
L 209.934398 168.68838 
z
" clip-path="url(#pb4677783b2)" style="fill: #d1493f"/>
    <path d="M 214.920666 172.362514 
L 207.632678 184.180577 
L 206.514286 198.083548 
z
" clip-path="url(#pb4677783b2)" style="fill: #eb7d62"/>
    <path d="M 209.934398 168.68838 
L 209.709617 169.331358 
L 211.803986 146.005947 
z
" clip-path="url(#pb4677783b2)" style="fill: #d0473d"/>
    <path d="M 214.920666 172.362514 
L 215.294643 166.252904 
L 211.803986 146.005947 
z
" clip-path="url(#pb4677783b2)" style="fill: #d0473d"/>
    <path d="M 225.626208 166.896621 
L 222.525357 175.68439 
L 218.906931 198.392021 
z
" clip-path="url(#pb4677783b2)" style="fill: #e7745b"/>
    <path d="M 210.044734 156.270832 
L 209.995098 169.747385 
L 211.803986 146.005947 
z
" clip-path="url(#pb4677783b2)" style="fill: #ca3b37"/>
    <path d="M 211.803986 146.005947 
L 209.007742 163.823524 
L 209.078904 181.781716 
z
" clip-path="url(#pb4677783b2)" style="fill: #d44e41"/>
    <path d="M 218.266725 144.218592 
L 214.920666 172.362514 
L 218.906931 198.392021 
z
" clip-path="url(#pb4677783b2)" style="fill: #de614d"/>
    <path d="M 215.294643 166.252904 
L 214.920666 172.362514 
L 218.266725 144.218592 
z
" clip-path="url(#pb4677783b2)" style="fill: #cf453c"/>
    <path d="M 209.709617 169.331358 
L 209.007742 163.823524 
L 211.803986 146.005947 
z
" clip-path="url(#pb4677783b2)" style="fill: #cd423b"/>
    <path d="M 218.906931 198.392021 
L 222.525357 175.68439 
L 218.266725 144.218592 
z
" clip-path="url(#pb4677783b2)" style="fill: #df634e"/>
    <path d="M 210.643665 149.347005 
L 210.044734 156.270832 
L 211.803986 146.005947 
z
" clip-path="url(#pb4677783b2)" style="fill: #be242e"/>
    <path d="M 210.643665 149.347005 
L 211.803986 146.005947 
L 210.716773 147.968408 
z
" clip-path="url(#pb4677783b2)" style="fill: #ba162b"/>
    <path d="M 211.803986 146.005947 
L 215.294643 166.252904 
L 218.266725 144.218592 
z
" clip-path="url(#pb4677783b2)" style="fill: #c12b30"/>
    <path d="M 222.525357 175.68439 
L 225.626208 166.896621 
L 218.266725 144.218592 
z
" clip-path="url(#pb4677783b2)" style="fill: #d0473d"/>
    <path d="M 203.477603 237.977177 
L 214.920666 172.362514 
L 205.27699 163.728209 
z
" clip-path="url(#pb4677783b2)" style="fill: #f08a6c"/>
    <path d="M 211.803986 146.005947 
L 218.266725 144.218592 
L 210.716773 147.968408 
z
" clip-path="url(#pb4677783b2)" style="fill: #b70d28"/>
    <path d="M 206.514286 198.083548 
L 205.27699 163.728209 
L 214.920666 172.362514 
z
" clip-path="url(#pb4677783b2)" style="fill: #e36c55"/>
    <path d="M 199.493713 271.950843 
L 225.626208 166.896621 
L 218.906931 198.392021 
z
" clip-path="url(#pb4677783b2)" style="fill: #f7ad90"/>
    <path d="M 236.653201 147.407238 
L 218.266725 144.218592 
L 225.626208 166.896621 
z
" clip-path="url(#pb4677783b2)" style="fill: #c12b30"/>
    <path d="M 203.477603 237.977177 
L 200.069984 171.857951 
L 218.906931 198.392021 
z
" clip-path="url(#pb4677783b2)" style="fill: #f59c7d"/>
    <path d="M 225.626208 166.896621 
L 199.493713 271.950843 
L 236.653201 147.407238 
z
" clip-path="url(#pb4677783b2)" style="fill: #f18d6f"/>
    <path d="M 218.906931 198.392021 
L 200.069984 171.857951 
L 199.493713 271.950843 
z
" clip-path="url(#pb4677783b2)" style="fill: #f7ac8e"/>
    <path d="M 195.628013 264.939376 
L 194.923956 263.277919 
L 199.493713 271.950843 
z
" clip-path="url(#pb4677783b2)" style="fill: #d4dbe6"/>
    <path d="M 195.628013 264.939376 
L 199.493713 271.950843 
L 197.664688 232.471375 
z
" clip-path="url(#pb4677783b2)" style="fill: #e0dbd8"/>
    <path d="M 197.664688 232.471375 
L 199.493713 271.950843 
L 200.069984 171.857951 
z
" clip-path="url(#pb4677783b2)" style="fill: #f7ba9f"/>
    <path d="M 186.336232 293.099045 
L 199.493713 271.950843 
L 194.923956 263.277919 
z
" clip-path="url(#pb4677783b2)" style="fill: #cbd8ee"/>
    <path d="M 187.086565 306.926923 
L 236.653201 147.407238 
L 199.493713 271.950843 
z
" clip-path="url(#pb4677783b2)" style="fill: #f1cdba"/>
    <path d="M 199.493713 271.950843 
L 186.336232 293.099045 
L 187.086565 306.926923 
z
" clip-path="url(#pb4677783b2)" style="fill: #bbd1f8"/>
    <path d="M 367.25775 207.439794 
L 382.496999 192.727701 
L 236.653201 147.407238 
z
" clip-path="url(#pb4677783b2)" style="fill: #df634e"/>
    <path d="M 187.086565 306.926923 
L 186.336232 293.099045 
L 184.356932 294.336129 
z
" clip-path="url(#pb4677783b2)" style="fill: #b2ccfb"/>
    <path d="M 184.356932 294.336129 
L 184.096382 296.991087 
L 187.086565 306.926923 
z
" clip-path="url(#pb4677783b2)" style="fill: #b2ccfb"/>
    <path d="M 236.653201 147.407238 
L 382.496999 192.727701 
L 396.23031 181.417212 
z
" clip-path="url(#pb4677783b2)" style="fill: #d44e41"/>
    <path d="M 184.096382 296.991087 
L 179.600219 301.835576 
L 187.086565 306.926923 
z
" clip-path="url(#pb4677783b2)" style="fill: #afcafc"/>
    <path d="M 382.496999 192.727701 
L 367.25775 207.439794 
L 383.995249 259.174186 
z
" clip-path="url(#pb4677783b2)" style="fill: #f6a586"/>
    <path d="M 179.600219 301.835576 
L 174.623976 318.82235 
L 187.086565 306.926923 
z
" clip-path="url(#pb4677783b2)" style="fill: #a7c5fe"/>
    <path d="M 236.653201 147.407238 
L 300.278445 336.23197 
L 367.25775 207.439794 
z
" clip-path="url(#pb4677783b2)" style="fill: #f7b396"/>
    <path d="M 383.995249 259.174186 
L 396.23031 181.417212 
L 382.496999 192.727701 
z
" clip-path="url(#pb4677783b2)" style="fill: #f39475"/>
    <path d="M 336.925976 300.106187 
L 383.995249 259.174186 
L 367.25775 207.439794 
z
" clip-path="url(#pb4677783b2)" style="fill: #edd1c2"/>
    <path d="M 187.086565 306.926923 
L 174.623976 318.82235 
L 169.662346 329.989591 
z
" clip-path="url(#pb4677783b2)" style="fill: #9dbdff"/>
    <path d="M 522.873882 146.623503 
L 236.653201 147.407238 
L 396.23031 181.417212 
z
" clip-path="url(#pb4677783b2)" style="fill: #b40426"/>
    <path d="M 169.662346 329.989591 
L 165.222802 341.13431 
L 187.086565 306.926923 
z
" clip-path="url(#pb4677783b2)" style="fill: #94b6ff"/>
    <path d="M 336.925976 300.106187 
L 367.25775 207.439794 
L 300.278445 336.23197 
z
" clip-path="url(#pb4677783b2)" style="fill: #d8dce2"/>
    <path d="M 522.873882 146.623503 
L 396.23031 181.417212 
L 383.995249 259.174186 
z
" clip-path="url(#pb4677783b2)" style="fill: #e36b54"/>
    <path d="M 187.086565 306.926923 
L 253.73688 400.996606 
L 236.653201 147.407238 
z
" clip-path="url(#pb4677783b2)" style="fill: #d7dce3"/>
    <path d="M 187.086565 306.926923 
L 165.222802 341.13431 
L 152.174594 375.545367 
z
" clip-path="url(#pb4677783b2)" style="fill: #86a9fc"/>
    <path d="M 300.278445 336.23197 
L 236.653201 147.407238 
L 253.73688 400.996606 
z
" clip-path="url(#pb4677783b2)" style="fill: #d2dbe8"/>
    <path d="M 143.940641 376.172173 
L 152.174594 375.545367 
L 165.222802 341.13431 
z
" clip-path="url(#pb4677783b2)" style="fill: #7093f3"/>
    <path d="M 152.174594 375.545367 
L 253.73688 400.996606 
L 187.086565 306.926923 
z
" clip-path="url(#pb4677783b2)" style="fill: #799cf8"/>
    <path d="M 271.135534 443.712198 
L 383.995249 259.174186 
L 336.925976 300.106187 
z
" clip-path="url(#pb4677783b2)" style="fill: #a7c5fe"/>
    <path d="M 152.174594 375.545367 
L 143.940641 376.172173 
L 143.908336 378.361632 
z
" clip-path="url(#pb4677783b2)" style="fill: #6687ed"/>
    <path d="M 152.174594 375.545367 
L 143.908336 378.361632 
L 138.548984 386.161933 
z
" clip-path="url(#pb4677783b2)" style="fill: #6384eb"/>
    <path d="M 138.548984 386.161933 
L 138.525684 388.489945 
L 152.174594 375.545367 
z
" clip-path="url(#pb4677783b2)" style="fill: #6180e9"/>
    <path d="M 336.925976 300.106187 
L 300.278445 336.23197 
L 271.135534 443.712198 
z
" clip-path="url(#pb4677783b2)" style="fill: #88abfd"/>
    <path d="M 152.174594 375.545367 
L 138.525684 388.489945 
L 131.811519 336.521235 
z
" clip-path="url(#pb4677783b2)" style="fill: #7ea1fa"/>
    <path d="M 131.811519 336.521235 
L 131.723819 399.161807 
L 152.174594 375.545367 
z
" clip-path="url(#pb4677783b2)" style="fill: #7b9ff9"/>
    <path d="M 383.995249 259.174186 
L 289.175419 473.806491 
L 522.873882 146.623503 
z
" clip-path="url(#pb4677783b2)" style="fill: #e9d5cb"/>
    <path d="M 131.723819 399.161807 
L 119.534416 425.074783 
L 152.174594 375.545367 
z
" clip-path="url(#pb4677783b2)" style="fill: #5572df"/>
    <path d="M 119.534416 425.074783 
L 131.723819 399.161807 
L 125.095863 401.173351 
z
" clip-path="url(#pb4677783b2)" style="fill: #516ddb"/>
    <path d="M 300.278445 336.23197 
L 253.73688 400.996606 
L 271.135534 443.712198 
z
" clip-path="url(#pb4677783b2)" style="fill: #6687ed"/>
    <path d="M 125.095863 401.173351 
L 115.607219 422.219281 
L 119.534416 425.074783 
z
" clip-path="url(#pb4677783b2)" style="fill: #4c66d6"/>
    <path d="M 152.174594 375.545367 
L 202.874657 464.595901 
L 253.73688 400.996606 
z
" clip-path="url(#pb4677783b2)" style="fill: #516ddb"/>
    <path d="M 119.534416 425.074783 
L 115.607219 422.219281 
L 114.16401 424.528574 
z
" clip-path="url(#pb4677783b2)" style="fill: #455cce"/>
    <path d="M 202.874657 464.595901 
L 152.174594 375.545367 
L 119.534416 425.074783 
z
" clip-path="url(#pb4677783b2)" style="fill: #4a63d3"/>
    <path d="M 114.16401 424.528574 
L 109.768123 429.948232 
L 119.534416 425.074783 
z
" clip-path="url(#pb4677783b2)" style="fill: #445acc"/>
    <path d="M 271.135534 443.712198 
L 289.175419 473.806491 
L 383.995249 259.174186 
z
" clip-path="url(#pb4677783b2)" style="fill: #779af7"/>
    <path d="M 109.768123 429.948232 
L 106.231444 433.778 
L 119.534416 425.074783 
z
" clip-path="url(#pb4677783b2)" style="fill: #4358cb"/>
    <path d="M 119.534416 425.074783 
L 106.231444 433.778 
L 98.414279 446.355355 
z
" clip-path="url(#pb4677783b2)" style="fill: #4055c8"/>
    <path d="M 119.534416 425.074783 
L 98.414279 446.355355 
L 97.081938 449.895054 
z
" clip-path="url(#pb4677783b2)" style="fill: #3d50c3"/>
    <path d="M 119.534416 425.074783 
L 97.081938 449.895054 
L 96.112839 451.823224 
z
" clip-path="url(#pb4677783b2)" style="fill: #3b4cc0"/>
    <path d="M 96.112839 451.823224 
L 96.103339 451.831472 
L 119.534416 425.074783 
z
" clip-path="url(#pb4677783b2)" style="fill: #3b4cc0"/>
    <path d="M 119.534416 425.074783 
L 96.103339 451.831472 
L 95.078185 452.721535 
z
" clip-path="url(#pb4677783b2)" style="fill: #3b4cc0"/>
    <path d="M 119.534416 425.074783 
L 95.078185 452.721535 
L 95.034562 452.759409 
z
" clip-path="url(#pb4677783b2)" style="fill: #3b4cc0"/>
    <path d="M 95.034562 452.759409 
L 95.015966 452.775555 
L 119.534416 425.074783 
z
" clip-path="url(#pb4677783b2)" style="fill: #3b4cc0"/>
    <path d="M 95.015966 452.775555 
L 94.871088 452.901342 
L 119.534416 425.074783 
z
" clip-path="url(#pb4677783b2)" style="fill: #3b4cc0"/>
    <path d="M 94.778455 452.981767 
L 119.534416 425.074783 
L 94.871088 452.901342 
z
" clip-path="url(#pb4677783b2)" style="fill: #3b4cc0"/>
    <path d="M 271.135534 443.712198 
L 253.73688 400.996606 
L 202.874657 464.595901 
z
" clip-path="url(#pb4677783b2)" style="fill: #465ecf"/>
    <path d="M 94.778455 452.981767 
L 202.874657 464.595901 
L 119.534416 425.074783 
z
" clip-path="url(#pb4677783b2)" style="fill: #3b4cc0"/>
    <path d="M 202.874657 464.595901 
L 289.175419 473.806491 
L 271.135534 443.712198 
z
" clip-path="url(#pb4677783b2)" style="fill: #3b4cc0"/>
   </g>
  </g>
 </g>
 <defs>
  <clipPath id="pb4677783b2">
   <rect x="3.6" y="3.6" width="602.6328" height="602.6328"/>
  </clipPath>
 </defs>
</svg>
