<?xml version="1.0" encoding="utf-8" standalone="no"?>
<!DOCTYPE svg PUBLIC "-//W3C//DTD SVG 1.1//EN"
  "http://www.w3.org/Graphics/SVG/1.1/DTD/svg11.dtd">
<svg xmlns:xlink="http://www.w3.org/1999/xlink" width="355.67408pt" height="346.4928pt" viewBox="0 0 355.67408 346.4928" xmlns="http://www.w3.org/2000/svg" version="1.1">
 <metadata>
  <rdf:RDF xmlns:dc="http://purl.org/dc/elements/1.1/" xmlns:cc="http://creativecommons.org/ns#" xmlns:rdf="http://www.w3.org/1999/02/22-rdf-syntax-ns#">
   <cc:Work>
    <dc:type rdf:resource="http://purl.org/dc/dcmitype/StillImage"/>
    <dc:date>2025-12-18T17:49:16.912643</dc:date>
    <dc:format>image/svg+xml</dc:format>
    <dc:creator>
     <cc:Agent>
      <dc:title>Matplotlib v3.9.4, https://matplotlib.org/</dc:title>
     </cc:Agent>
    </dc:creator>
   </cc:Work>
  </rdf:RDF>
 </metadata>
 <defs>
  <style type="text/css">*{stroke-linejoin: round; stroke-linecap: butt}</style>
 </defs>
 <g id="figure_1">
  <g id="patch_1">
   <path d="M 0 346.4928 
L 355.67408 346.4928 
L 355.67408 -0 
L 0 -0 
z
" style="fill: #ffffff"/>
  </g>
  <g id="patch_2">
   <path d="M 12.78128 342.8928 
L 352.07408 342.8928 
L 352.07408 3.6 
L 12.78128 3.6 
z
" style="fill: #ffffff"/>
  </g>
  <g id="pane3d_1">
   <g id="patch_3">
    <path d="M 211.069396 195.169257 
L 339.040258 254.586845 
L 343.502033 97.497771 
L 211.714272 50.093207 
" style="fill: #f2f2f2; opacity: 0.5; stroke: #f2f2f2; stroke-linejoin: miter"/>
   </g>
  </g>
  <g id="pane3d_2">
   <g id="patch_4">
    <path d="M 211.069396 195.169257 
L 39.0034 235.968671 
L 34.777644 82.618582 
L 211.714272 50.093207 
" style="fill: #e6e6e6; opacity: 0.5; stroke: #e6e6e6; stroke-linejoin: miter"/>
   </g>
  </g>
  <g id="pane3d_3">
   <g id="patch_5">
    <path d="M 211.069396 195.169257 
L 39.0034 235.968671 
L 158.914266 303.534725 
L 339.040258 254.586845 
" style="fill: #ececec; opacity: 0.5; stroke: #ececec; stroke-linejoin: miter"/>
   </g>
  </g>
  <g id="grid3d_1">
   <g id="Line3DCollection_1">
    <path d="M 323.045432 258.933319 
L 195.70872 198.811502 
L 195.943181 52.992328 
" style="fill: none; stroke: #b0b0b0; stroke-width: 0.5"/>
    <path d="M 304.118744 264.076504 
L 177.553053 203.116482 
L 177.296263 56.420097 
" style="fill: none; stroke: #b0b0b0; stroke-width: 0.5"/>
    <path d="M 284.915359 269.294878 
L 159.154778 207.478987 
L 158.393361 59.894923 
" style="fill: none; stroke: #b0b0b0; stroke-width: 0.5"/>
    <path d="M 265.429166 274.590104 
L 140.508999 211.900179 
L 139.229169 63.417781 
" style="fill: none; stroke: #b0b0b0; stroke-width: 0.5"/>
    <path d="M 245.653871 279.963892 
L 121.610688 216.381251 
L 119.798231 66.989673 
" style="fill: none; stroke: #b0b0b0; stroke-width: 0.5"/>
    <path d="M 225.582992 285.418002 
L 102.45468 220.923426 
L 100.094939 70.61163 
" style="fill: none; stroke: #b0b0b0; stroke-width: 0.5"/>
    <path d="M 205.209852 290.954249 
L 83.035669 225.527963 
L 80.113526 74.284713 
" style="fill: none; stroke: #b0b0b0; stroke-width: 0.5"/>
    <path d="M 184.527572 296.574502 
L 63.348199 230.196156 
L 59.848062 78.010012 
" style="fill: none; stroke: #b0b0b0; stroke-width: 0.5"/>
    <path d="M 163.52906 302.28069 
L 43.386665 234.929334 
L 39.292446 81.788648 
" style="fill: none; stroke: #b0b0b0; stroke-width: 0.5"/>
    <path d="M 337.991558 254.871822 
L 210.061784 195.408177 
L 210.679884 50.283353 
" style="fill: none; stroke: #b0b0b0; stroke-width: 0.5"/>
    <path d="M 334.271108 255.882826 
L 206.487657 196.255655 
L 207.010615 50.957857 
" style="fill: none; stroke: #b0b0b0; stroke-width: 0.5"/>
    <path d="M 330.539969 256.896735 
L 202.904129 197.105363 
L 203.331435 51.634182 
" style="fill: none; stroke: #b0b0b0; stroke-width: 0.5"/>
    <path d="M 326.798092 257.913562 
L 199.311162 197.957309 
L 199.642304 52.312336 
" style="fill: none; stroke: #b0b0b0; stroke-width: 0.5"/>
    <path d="M 319.281943 259.956019 
L 192.096764 199.667951 
L 192.234026 53.674163 
" style="fill: none; stroke: #b0b0b0; stroke-width: 0.5"/>
    <path d="M 315.507576 260.981674 
L 188.475258 200.526664 
L 188.514798 54.35785 
" style="fill: none; stroke: #b0b0b0; stroke-width: 0.5"/>
    <path d="M 311.722286 262.010298 
L 184.844163 201.387651 
L 184.785456 55.043396 
" style="fill: none; stroke: #b0b0b0; stroke-width: 0.5"/>
    <path d="M 307.926025 263.041904 
L 181.20344 202.25092 
L 181.045958 55.73081 
" style="fill: none; stroke: #b0b0b0; stroke-width: 0.5"/>
    <path d="M 300.300395 265.114111 
L 173.892961 203.984344 
L 173.536329 57.111267 
" style="fill: none; stroke: #b0b0b0; stroke-width: 0.5"/>
    <path d="M 296.470932 266.154739 
L 170.223127 204.854516 
L 169.766114 57.804327 
" style="fill: none; stroke: #b0b0b0; stroke-width: 0.5"/>
    <path d="M 292.630304 267.1984 
L 166.543511 205.727008 
L 165.985576 58.499284 
" style="fill: none; stroke: #b0b0b0; stroke-width: 0.5"/>
    <path d="M 288.778462 268.245109 
L 162.854074 206.601829 
L 162.194673 59.196147 
" style="fill: none; stroke: #b0b0b0; stroke-width: 0.5"/>
    <path d="M 281.040944 270.347722 
L 155.445581 208.358493 
L 154.581598 60.59562 
" style="fill: none; stroke: #b0b0b0; stroke-width: 0.5"/>
    <path d="M 277.155167 271.403652 
L 151.726445 209.240356 
L 150.759341 61.298247 
" style="fill: none; stroke: #b0b0b0; stroke-width: 0.5"/>
    <path d="M 273.257979 272.462684 
L 147.997329 210.124585 
L 146.926546 62.00281 
" style="fill: none; stroke: #b0b0b0; stroke-width: 0.5"/>
    <path d="M 269.349329 273.52483 
L 144.258194 211.011189 
L 143.08317 62.709319 
" style="fill: none; stroke: #b0b0b0; stroke-width: 0.5"/>
    <path d="M 261.49744 275.658521 
L 136.749702 212.791565 
L 135.364498 64.128204 
" style="fill: none; stroke: #b0b0b0; stroke-width: 0.5"/>
    <path d="M 257.554099 276.730094 
L 132.980264 213.685355 
L 131.489114 64.840596 
" style="fill: none; stroke: #b0b0b0; stroke-width: 0.5"/>
    <path d="M 253.599092 277.804838 
L 129.200644 214.581559 
L 127.602971 65.554966 
" style="fill: none; stroke: #b0b0b0; stroke-width: 0.5"/>
    <path d="M 249.632367 278.882766 
L 125.410799 215.480188 
L 123.706025 66.271322 
" style="fill: none; stroke: #b0b0b0; stroke-width: 0.5"/>
    <path d="M 241.663553 281.048231 
L 117.80027 217.284758 
L 115.879543 67.710026 
" style="fill: none; stroke: #b0b0b0; stroke-width: 0.5"/>
    <path d="M 237.661359 282.135797 
L 113.979503 218.190719 
L 111.949916 68.432389 
" style="fill: none; stroke: #b0b0b0; stroke-width: 0.5"/>
    <path d="M 233.647237 283.226604 
L 110.148344 219.099144 
L 108.009304 69.156772 
" style="fill: none; stroke: #b0b0b0; stroke-width: 0.5"/>
    <path d="M 229.621132 284.320667 
L 106.30675 220.010043 
L 104.05766 69.883183 
" style="fill: none; stroke: #b0b0b0; stroke-width: 0.5"/>
    <path d="M 221.532762 286.518621 
L 98.592091 221.839304 
L 96.121093 71.342122 
" style="fill: none; stroke: #b0b0b0; stroke-width: 0.5"/>
    <path d="M 217.470388 287.622541 
L 94.718938 222.757686 
L 92.136076 72.074668 
" style="fill: none; stroke: #b0b0b0; stroke-width: 0.5"/>
    <path d="M 213.395815 288.729775 
L 90.83518 223.678583 
L 88.139841 72.809276 
" style="fill: none; stroke: #b0b0b0; stroke-width: 0.5"/>
    <path d="M 209.308989 289.840339 
L 86.940771 224.602005 
L 84.13234 73.545955 
" style="fill: none; stroke: #b0b0b0; stroke-width: 0.5"/>
    <path d="M 201.098351 292.071518 
L 79.119828 226.456467 
L 76.08335 75.025561 
" style="fill: none; stroke: #b0b0b0; stroke-width: 0.5"/>
    <path d="M 196.974429 293.192163 
L 75.193206 227.387528 
L 72.041764 75.768505 
" style="fill: none; stroke: #b0b0b0; stroke-width: 0.5"/>
    <path d="M 192.83803 294.316198 
L 71.255757 228.321156 
L 67.98872 76.513556 
" style="fill: none; stroke: #b0b0b0; stroke-width: 0.5"/>
    <path d="M 188.689096 295.44364 
L 67.307436 229.257362 
L 63.924169 77.260722 
" style="fill: none; stroke: #b0b0b0; stroke-width: 0.5"/>
    <path d="M 180.353399 297.708803 
L 59.377999 231.13755 
L 55.760349 78.761436 
" style="fill: none; stroke: #b0b0b0; stroke-width: 0.5"/>
    <path d="M 176.166519 298.846555 
L 55.396792 232.081553 
L 51.660981 79.515002 
" style="fill: none; stroke: #b0b0b0; stroke-width: 0.5"/>
    <path d="M 171.966875 299.987777 
L 51.404531 233.028178 
L 47.549908 80.27072 
" style="fill: none; stroke: #b0b0b0; stroke-width: 0.5"/>
    <path d="M 167.754409 301.132483 
L 47.401171 233.977434 
L 43.42708 81.028599 
" style="fill: none; stroke: #b0b0b0; stroke-width: 0.5"/>
    <path d="M 159.290771 303.432413 
L 39.360966 235.883887 
L 35.145955 82.550877 
" style="fill: none; stroke: #b0b0b0; stroke-width: 0.5"/>
   </g>
  </g>
  <g id="grid3d_2">
   <g id="Line3DCollection_2">
    <path d="M 218.979263 52.706452 
L 218.140474 198.452398 
L 45.592632 239.681499 
" style="fill: none; stroke: #b0b0b0; stroke-width: 0.5"/>
    <path d="M 243.712227 61.602994 
L 242.198819 209.622822 
L 68.043388 252.331804 
" style="fill: none; stroke: #b0b0b0; stroke-width: 0.5"/>
    <path d="M 269.336695 70.820214 
L 267.1008 221.184951 
L 91.333348 265.454974 
" style="fill: none; stroke: #b0b0b0; stroke-width: 0.5"/>
    <path d="M 295.901753 80.375768 
L 292.891581 233.159756 
L 115.510459 279.078026 
" style="fill: none; stroke: #b0b0b0; stroke-width: 0.5"/>
    <path d="M 323.46016 90.288632 
L 319.619613 245.569731 
L 140.626398 293.230079 
" style="fill: none; stroke: #b0b0b0; stroke-width: 0.5"/>
    <path d="M 214.13557 50.964157 
L 213.426281 196.263572 
L 41.199208 237.205941 
" style="fill: none; stroke: #b0b0b0; stroke-width: 0.5"/>
    <path d="M 223.856776 54.460912 
L 222.886717 200.656105 
L 50.017832 242.174962 
" style="fill: none; stroke: #b0b0b0; stroke-width: 0.5"/>
    <path d="M 228.768466 56.227666 
L 227.665338 202.874846 
L 54.475154 244.686525 
" style="fill: none; stroke: #b0b0b0; stroke-width: 0.5"/>
    <path d="M 233.714694 58.006843 
L 232.47667 205.108774 
L 58.964949 247.216385 
" style="fill: none; stroke: #b0b0b0; stroke-width: 0.5"/>
    <path d="M 238.695824 59.798575 
L 237.32105 207.358047 
L 63.487574 249.764744 
" style="fill: none; stroke: #b0b0b0; stroke-width: 0.5"/>
    <path d="M 248.76428 63.420237 
L 247.110324 211.903262 
L 72.632761 254.917773 
" style="fill: none; stroke: #b0b0b0; stroke-width: 0.5"/>
    <path d="M 253.852363 65.25044 
L 252.055916 214.199528 
L 77.256062 257.52286 
" style="fill: none; stroke: #b0b0b0; stroke-width: 0.5"/>
    <path d="M 258.976864 67.093743 
L 257.035951 216.511786 
L 81.913671 260.147278 
" style="fill: none; stroke: #b0b0b0; stroke-width: 0.5"/>
    <path d="M 264.138176 68.950287 
L 262.05079 218.840204 
L 86.605969 262.791243 
" style="fill: none; stroke: #b0b0b0; stroke-width: 0.5"/>
    <path d="M 274.572826 72.70367 
L 272.186351 223.546201 
L 96.0962 268.138693 
" style="fill: none; stroke: #b0b0b0; stroke-width: 0.5"/>
    <path d="M 279.846979 74.600803 
L 277.30782 225.924128 
L 100.894928 270.842627 
" style="fill: none; stroke: #b0b0b0; stroke-width: 0.5"/>
    <path d="M 285.159569 76.511762 
L 282.465589 228.318909 
L 105.729937 273.567005 
" style="fill: none; stroke: #b0b0b0; stroke-width: 0.5"/>
    <path d="M 290.511018 78.436699 
L 287.660045 230.730724 
L 110.601641 276.312059 
" style="fill: none; stroke: #b0b0b0; stroke-width: 0.5"/>
    <path d="M 301.33221 82.329124 
L 298.160596 235.606189 
L 120.456818 281.865146 
" style="fill: none; stroke: #b0b0b0; stroke-width: 0.5"/>
    <path d="M 306.802829 84.296926 
L 303.467494 238.070211 
L 125.441148 284.673662 
" style="fill: none; stroke: #b0b0b0; stroke-width: 0.5"/>
    <path d="M 312.314056 86.279336 
L 308.812684 240.552013 
L 130.46389 287.503821 
" style="fill: none; stroke: #b0b0b0; stroke-width: 0.5"/>
    <path d="M 317.866346 88.276516 
L 314.196583 243.051788 
L 135.525489 290.355875 
" style="fill: none; stroke: #b0b0b0; stroke-width: 0.5"/>
    <path d="M 329.095964 92.315853 
L 325.082202 248.106041 
L 145.767075 296.126691 
" style="fill: none; stroke: #b0b0b0; stroke-width: 0.5"/>
    <path d="M 334.774234 94.358348 
L 330.584784 250.660921 
L 150.947989 299.045975 
" style="fill: none; stroke: #b0b0b0; stroke-width: 0.5"/>
    <path d="M 340.495451 96.416292 
L 336.1278 253.234575 
L 156.169614 301.988199 
" style="fill: none; stroke: #b0b0b0; stroke-width: 0.5"/>
   </g>
  </g>
  <g id="grid3d_3">
   <g id="Line3DCollection_3">
    <path d="M 38.756321 227.002318 
L 211.107162 186.673121 
L 339.300947 245.408577 
" style="fill: none; stroke: #b0b0b0; stroke-width: 0.5"/>
    <path d="M 37.949465 197.722022 
L 211.230438 158.940104 
L 340.15241 215.430465 
" style="fill: none; stroke: #b0b0b0; stroke-width: 0.5"/>
    <path d="M 37.133779 168.121279 
L 211.354982 130.921844 
L 341.013448 185.115244 
" style="fill: none; stroke: #b0b0b0; stroke-width: 0.5"/>
    <path d="M 36.309117 138.194798 
L 211.480813 102.613917 
L 341.884224 154.457197 
" style="fill: none; stroke: #b0b0b0; stroke-width: 0.5"/>
    <path d="M 35.47533 107.937172 
L 211.607952 74.011808 
L 342.764902 123.450475 
" style="fill: none; stroke: #b0b0b0; stroke-width: 0.5"/>
   </g>
  </g>
  <g id="axis3d_1">
   <g id="line2d_1">
    <path d="M 339.040258 254.586845 
L 158.914266 303.534725 
" style="fill: none; stroke: #000000; stroke-width: 0.5; stroke-linecap: square"/>
   </g>
   <g id="xtick_1">
    <g id="line2d_2">
     <path d="M 321.933141 258.408152 
L 325.274971 259.985992 
" style="fill: none; stroke: #000000; stroke-width: 0.5; stroke-linecap: square"/>
    </g>
    <g id="text_1">
     <!-- $\mathdefault{530000}$ -->
     <g transform="translate(316.938996 280.171137) scale(0.1 -0.1)">
      <defs>
       <path id="CMR17-35" d="M 730 3692 
C 794 3666 1056 3584 1325 3584 
C 1920 3584 2246 3911 2432 4100 
C 2432 4157 2432 4192 2394 4192 
C 2387 4192 2374 4192 2323 4163 
C 2099 4058 1837 3973 1517 3973 
C 1325 3973 1037 3999 723 4139 
C 653 4171 640 4171 634 4171 
C 602 4171 595 4164 595 4037 
L 595 2203 
C 595 2089 595 2057 659 2057 
C 691 2057 704 2070 736 2114 
C 941 2401 1222 2522 1542 2522 
C 1766 2522 2246 2382 2246 1289 
C 2246 1085 2246 715 2054 421 
C 1894 159 1645 25 1370 25 
C 947 25 518 320 403 814 
C 429 807 480 795 506 795 
C 589 795 749 840 749 1038 
C 749 1210 627 1280 506 1280 
C 358 1280 262 1190 262 1011 
C 262 454 704 -128 1382 -128 
C 2042 -128 2669 440 2669 1264 
C 2669 2030 2170 2624 1549 2624 
C 1222 2624 947 2503 730 2274 
L 730 3692 
z
" transform="scale(0.015625)"/>
       <path id="CMR17-33" d="M 1414 2157 
C 1984 2157 2234 1662 2234 1090 
C 2234 320 1824 25 1453 25 
C 1114 25 563 194 390 693 
C 422 680 454 680 486 680 
C 640 680 755 782 755 948 
C 755 1133 614 1216 486 1216 
C 378 1216 211 1165 211 926 
C 211 335 787 -128 1466 -128 
C 2176 -128 2720 430 2720 1085 
C 2720 1707 2208 2157 1600 2227 
C 2086 2328 2554 2756 2554 3329 
C 2554 3820 2048 4179 1472 4179 
C 890 4179 378 3829 378 3329 
C 378 3110 544 3072 627 3072 
C 762 3072 877 3155 877 3321 
C 877 3486 762 3569 627 3569 
C 602 3569 570 3569 544 3557 
C 730 3959 1235 4032 1459 4032 
C 1683 4032 2106 3925 2106 3320 
C 2106 3143 2080 2828 1862 2550 
C 1670 2304 1453 2304 1242 2284 
C 1210 2284 1062 2269 1037 2269 
C 992 2263 966 2257 966 2208 
C 966 2163 973 2157 1101 2157 
L 1414 2157 
z
" transform="scale(0.015625)"/>
       <path id="CMR17-30" d="M 2688 2025 
C 2688 2416 2682 3080 2413 3591 
C 2176 4039 1798 4198 1466 4198 
C 1158 4198 768 4058 525 3597 
C 269 3118 243 2524 243 2025 
C 243 1661 250 1106 448 619 
C 723 -39 1216 -128 1466 -128 
C 1760 -128 2208 -7 2470 600 
C 2662 1042 2688 1559 2688 2025 
z
M 1466 -26 
C 1056 -26 813 325 723 812 
C 653 1188 653 1738 653 2096 
C 653 2588 653 2997 736 3387 
C 858 3929 1216 4096 1466 4096 
C 1728 4096 2067 3923 2189 3400 
C 2272 3036 2278 2607 2278 2096 
C 2278 1680 2278 1169 2202 792 
C 2067 95 1690 -26 1466 -26 
z
" transform="scale(0.015625)"/>
      </defs>
      <use xlink:href="#CMR17-35" transform="scale(0.996264)"/>
      <use xlink:href="#CMR17-33" transform="translate(45.690477 0) scale(0.996264)"/>
      <use xlink:href="#CMR17-30" transform="translate(91.380954 0) scale(0.996264)"/>
      <use xlink:href="#CMR17-30" transform="translate(137.071431 0) scale(0.996264)"/>
      <use xlink:href="#CMR17-30" transform="translate(182.761908 0) scale(0.996264)"/>
      <use xlink:href="#CMR17-30" transform="translate(228.452386 0) scale(0.996264)"/>
     </g>
    </g>
   </g>
   <g id="xtick_2">
    <g id="line2d_3">
     <path d="M 303.012513 263.54369 
L 306.336171 265.144521 
" style="fill: none; stroke: #000000; stroke-width: 0.5; stroke-linecap: square"/>
    </g>
    <g id="text_2">
     <!-- $\mathdefault{540000}$ -->
     <g transform="translate(297.996971 285.440337) scale(0.1 -0.1)">
      <defs>
       <path id="CMR17-34" d="M 2150 4122 
C 2150 4256 2144 4256 2029 4256 
L 128 1254 
L 128 1088 
L 1779 1088 
L 1779 457 
C 1779 224 1766 160 1318 160 
L 1197 160 
L 1197 0 
C 1402 0 1747 0 1965 0 
C 2182 0 2528 0 2733 0 
L 2733 160 
L 2611 160 
C 2163 160 2150 224 2150 457 
L 2150 1088 
L 2803 1088 
L 2803 1254 
L 2150 1254 
L 2150 4122 
z
M 1798 3703 
L 1798 1254 
L 256 1254 
L 1798 3703 
z
" transform="scale(0.015625)"/>
      </defs>
      <use xlink:href="#CMR17-35" transform="scale(0.996264)"/>
      <use xlink:href="#CMR17-34" transform="translate(45.690477 0) scale(0.996264)"/>
      <use xlink:href="#CMR17-30" transform="translate(91.380954 0) scale(0.996264)"/>
      <use xlink:href="#CMR17-30" transform="translate(137.071431 0) scale(0.996264)"/>
      <use xlink:href="#CMR17-30" transform="translate(182.761908 0) scale(0.996264)"/>
      <use xlink:href="#CMR17-30" transform="translate(228.452386 0) scale(0.996264)"/>
     </g>
    </g>
   </g>
   <g id="xtick_3">
    <g id="line2d_4">
     <path d="M 283.815485 268.75425 
L 287.12008 270.378579 
" style="fill: none; stroke: #000000; stroke-width: 0.5; stroke-linecap: square"/>
    </g>
    <g id="text_3">
     <!-- $\mathdefault{550000}$ -->
     <g transform="translate(278.776851 290.786897) scale(0.1 -0.1)">
      <use xlink:href="#CMR17-35" transform="scale(0.996264)"/>
      <use xlink:href="#CMR17-35" transform="translate(45.690477 0) scale(0.996264)"/>
      <use xlink:href="#CMR17-30" transform="translate(91.380954 0) scale(0.996264)"/>
      <use xlink:href="#CMR17-30" transform="translate(137.071431 0) scale(0.996264)"/>
      <use xlink:href="#CMR17-30" transform="translate(182.761908 0) scale(0.996264)"/>
      <use xlink:href="#CMR17-30" transform="translate(228.452386 0) scale(0.996264)"/>
     </g>
    </g>
   </g>
   <g id="xtick_4">
    <g id="line2d_5">
     <path d="M 264.335956 274.041488 
L 267.620564 275.689835 
" style="fill: none; stroke: #000000; stroke-width: 0.5; stroke-linecap: square"/>
    </g>
    <g id="text_4">
     <!-- $\mathdefault{560000}$ -->
     <g transform="translate(259.272467 296.212533) scale(0.1 -0.1)">
      <defs>
       <path id="CMR17-36" d="M 678 2176 
C 678 3690 1395 4032 1811 4032 
C 1946 4032 2272 4009 2400 3776 
C 2298 3776 2106 3776 2106 3553 
C 2106 3381 2246 3323 2336 3323 
C 2394 3323 2566 3348 2566 3560 
C 2566 3954 2246 4179 1805 4179 
C 1043 4179 243 3390 243 1984 
C 243 253 966 -128 1478 -128 
C 2099 -128 2688 427 2688 1283 
C 2688 2081 2170 2662 1517 2662 
C 1126 2662 838 2407 678 1960 
L 678 2176 
z
M 1478 25 
C 691 25 691 1200 691 1436 
C 691 1896 909 2560 1504 2560 
C 1613 2560 1926 2560 2138 2120 
C 2253 1870 2253 1609 2253 1289 
C 2253 944 2253 690 2118 434 
C 1978 171 1773 25 1478 25 
z
" transform="scale(0.015625)"/>
      </defs>
      <use xlink:href="#CMR17-35" transform="scale(0.996264)"/>
      <use xlink:href="#CMR17-36" transform="translate(45.690477 0) scale(0.996264)"/>
      <use xlink:href="#CMR17-30" transform="translate(91.380954 0) scale(0.996264)"/>
      <use xlink:href="#CMR17-30" transform="translate(137.071431 0) scale(0.996264)"/>
      <use xlink:href="#CMR17-30" transform="translate(182.761908 0) scale(0.996264)"/>
      <use xlink:href="#CMR17-30" transform="translate(228.452386 0) scale(0.996264)"/>
     </g>
    </g>
   </g>
   <g id="xtick_5">
    <g id="line2d_6">
     <path d="M 244.567645 279.407109 
L 247.831306 281.080012 
" style="fill: none; stroke: #000000; stroke-width: 0.5; stroke-linecap: square"/>
    </g>
    <g id="text_5">
     <!-- $\mathdefault{570000}$ -->
     <g transform="translate(239.477464 301.719011) scale(0.1 -0.1)">
      <defs>
       <path id="CMR17-37" d="M 2886 3941 
L 2886 4081 
L 1382 4081 
C 634 4081 621 4165 595 4288 
L 480 4288 
L 294 3094 
L 410 3094 
C 429 3215 474 3540 550 3661 
C 589 3712 1062 3712 1171 3712 
L 2579 3712 
L 1869 2661 
C 1395 1954 1069 999 1069 165 
C 1069 89 1069 -128 1299 -128 
C 1530 -128 1530 89 1530 171 
L 1530 465 
C 1530 1508 1709 2196 2003 2636 
L 2886 3941 
z
" transform="scale(0.015625)"/>
      </defs>
      <use xlink:href="#CMR17-35" transform="scale(0.996264)"/>
      <use xlink:href="#CMR17-37" transform="translate(45.690477 0) scale(0.996264)"/>
      <use xlink:href="#CMR17-30" transform="translate(91.380954 0) scale(0.996264)"/>
      <use xlink:href="#CMR17-30" transform="translate(137.071431 0) scale(0.996264)"/>
      <use xlink:href="#CMR17-30" transform="translate(182.761908 0) scale(0.996264)"/>
      <use xlink:href="#CMR17-30" transform="translate(228.452386 0) scale(0.996264)"/>
     </g>
    </g>
   </g>
   <g id="xtick_6">
    <g id="line2d_7">
     <path d="M 224.504082 284.852869 
L 227.7458 286.55088 
" style="fill: none; stroke: #000000; stroke-width: 0.5; stroke-linecap: square"/>
    </g>
    <g id="text_6">
     <!-- $\mathdefault{580000}$ -->
     <g transform="translate(219.385298 307.308152) scale(0.1 -0.1)">
      <defs>
       <path id="CMR17-38" d="M 1741 2264 
C 2144 2467 2554 2773 2554 3263 
C 2554 3841 1990 4179 1472 4179 
C 890 4179 378 3759 378 3180 
C 378 3021 416 2747 666 2505 
C 730 2442 998 2251 1171 2130 
C 883 1983 211 1634 211 934 
C 211 279 838 -128 1459 -128 
C 2144 -128 2720 362 2720 1010 
C 2720 1590 2330 1857 2074 2029 
L 1741 2264 
z
M 902 2822 
C 851 2854 595 3051 595 3351 
C 595 3739 998 4032 1459 4032 
C 1965 4032 2336 3676 2336 3262 
C 2336 2669 1670 2331 1638 2331 
C 1632 2331 1626 2331 1574 2370 
L 902 2822 
z
M 2080 1519 
C 2176 1449 2483 1240 2483 851 
C 2483 381 2010 25 1472 25 
C 890 25 448 438 448 940 
C 448 1443 838 1862 1280 2060 
L 2080 1519 
z
" transform="scale(0.015625)"/>
      </defs>
      <use xlink:href="#CMR17-35" transform="scale(0.996264)"/>
      <use xlink:href="#CMR17-38" transform="translate(45.690477 0) scale(0.996264)"/>
      <use xlink:href="#CMR17-30" transform="translate(91.380954 0) scale(0.996264)"/>
      <use xlink:href="#CMR17-30" transform="translate(137.071431 0) scale(0.996264)"/>
      <use xlink:href="#CMR17-30" transform="translate(182.761908 0) scale(0.996264)"/>
      <use xlink:href="#CMR17-30" transform="translate(228.452386 0) scale(0.996264)"/>
     </g>
    </g>
   </g>
   <g id="xtick_7">
    <g id="line2d_8">
     <path d="M 204.138602 290.380576 
L 207.357343 292.104265 
" style="fill: none; stroke: #000000; stroke-width: 0.5; stroke-linecap: square"/>
    </g>
    <g id="text_7">
     <!-- $\mathdefault{590000}$ -->
     <g transform="translate(198.989228 312.981832) scale(0.1 -0.1)">
      <defs>
       <path id="CMR17-39" d="M 2253 1864 
C 2253 464 1670 31 1190 31 
C 1043 31 685 31 538 294 
C 704 268 826 357 826 518 
C 826 692 685 749 595 749 
C 538 749 365 723 365 506 
C 365 71 742 -128 1203 -128 
C 1939 -128 2688 674 2688 2073 
C 2688 3817 1971 4179 1485 4179 
C 851 4179 243 3628 243 2778 
C 243 1991 762 1408 1414 1408 
C 1952 1408 2189 1903 2253 2112 
L 2253 1864 
z
M 1427 1510 
C 1254 1510 1011 1542 813 1922 
C 678 2169 678 2461 678 2771 
C 678 3146 678 3405 858 3684 
C 947 3817 1114 4032 1485 4032 
C 2240 4032 2240 2885 2240 2632 
C 2240 2182 2035 1510 1427 1510 
z
" transform="scale(0.015625)"/>
      </defs>
      <use xlink:href="#CMR17-35" transform="scale(0.996264)"/>
      <use xlink:href="#CMR17-39" transform="translate(45.690477 0) scale(0.996264)"/>
      <use xlink:href="#CMR17-30" transform="translate(91.380954 0) scale(0.996264)"/>
      <use xlink:href="#CMR17-30" transform="translate(137.071431 0) scale(0.996264)"/>
      <use xlink:href="#CMR17-30" transform="translate(182.761908 0) scale(0.996264)"/>
      <use xlink:href="#CMR17-30" transform="translate(228.452386 0) scale(0.996264)"/>
     </g>
    </g>
   </g>
   <g id="xtick_8">
    <g id="line2d_9">
     <path d="M 183.464338 295.992096 
L 186.659029 297.742049 
" style="fill: none; stroke: #000000; stroke-width: 0.5; stroke-linecap: square"/>
    </g>
    <g id="text_8">
     <!-- $\mathdefault{600000}$ -->
     <g transform="translate(178.282306 318.741983) scale(0.1 -0.1)">
      <use xlink:href="#CMR17-36" transform="scale(0.996264)"/>
      <use xlink:href="#CMR17-30" transform="translate(45.690477 0) scale(0.996264)"/>
      <use xlink:href="#CMR17-30" transform="translate(91.380954 0) scale(0.996264)"/>
      <use xlink:href="#CMR17-30" transform="translate(137.071431 0) scale(0.996264)"/>
      <use xlink:href="#CMR17-30" transform="translate(182.761908 0) scale(0.996264)"/>
      <use xlink:href="#CMR17-30" transform="translate(228.452386 0) scale(0.996264)"/>
     </g>
    </g>
   </g>
   <g id="xtick_9">
    <g id="line2d_10">
     <path d="M 162.474215 301.689347 
L 165.643739 303.46617 
" style="fill: none; stroke: #000000; stroke-width: 0.5; stroke-linecap: square"/>
    </g>
    <g id="text_9">
     <!-- $\mathdefault{610000}$ -->
     <g transform="translate(157.257371 324.590598) scale(0.1 -0.1)">
      <defs>
       <path id="CMR17-31" d="M 1702 4058 
C 1702 4192 1696 4192 1606 4192 
C 1357 3916 979 3827 621 3827 
C 602 3827 570 3827 563 3808 
C 557 3795 557 3782 557 3648 
C 755 3648 1088 3686 1344 3839 
L 1344 461 
C 1344 236 1331 160 781 160 
L 589 160 
L 589 0 
C 896 0 1216 0 1523 0 
C 1830 0 2150 0 2458 0 
L 2458 160 
L 2266 160 
C 1715 160 1702 230 1702 458 
L 1702 4058 
z
" transform="scale(0.015625)"/>
      </defs>
      <use xlink:href="#CMR17-36" transform="scale(0.996264)"/>
      <use xlink:href="#CMR17-31" transform="translate(45.690477 0) scale(0.996264)"/>
      <use xlink:href="#CMR17-30" transform="translate(91.380954 0) scale(0.996264)"/>
      <use xlink:href="#CMR17-30" transform="translate(137.071431 0) scale(0.996264)"/>
      <use xlink:href="#CMR17-30" transform="translate(182.761908 0) scale(0.996264)"/>
      <use xlink:href="#CMR17-30" transform="translate(228.452386 0) scale(0.996264)"/>
     </g>
    </g>
   </g>
   <g id="xtick_10">
    <g id="line2d_11">
     <path d="M 336.874624 254.352655 
L 340.230373 255.912456 
" style="fill: none; stroke: #000000; stroke-width: 0.5; stroke-linecap: square"/>
    </g>
   </g>
   <g id="xtick_11">
    <g id="line2d_12">
     <path d="M 333.155319 255.362169 
L 336.507638 256.92645 
" style="fill: none; stroke: #000000; stroke-width: 0.5; stroke-linecap: square"/>
    </g>
   </g>
   <g id="xtick_12">
    <g id="line2d_13">
     <path d="M 329.425334 256.374581 
L 332.774191 257.943363 
" style="fill: none; stroke: #000000; stroke-width: 0.5; stroke-linecap: square"/>
    </g>
   </g>
   <g id="xtick_13">
    <g id="line2d_14">
     <path d="M 325.684623 257.389905 
L 329.029984 258.963206 
" style="fill: none; stroke: #000000; stroke-width: 0.5; stroke-linecap: square"/>
    </g>
   </g>
   <g id="xtick_14">
    <g id="line2d_15">
     <path d="M 318.17084 259.429336 
L 321.509106 261.011734 
" style="fill: none; stroke: #000000; stroke-width: 0.5; stroke-linecap: square"/>
    </g>
   </g>
   <g id="xtick_15">
    <g id="line2d_16">
     <path d="M 314.397674 260.453469 
L 317.732341 262.040445 
" style="fill: none; stroke: #000000; stroke-width: 0.5; stroke-linecap: square"/>
    </g>
   </g>
   <g id="xtick_16">
    <g id="line2d_17">
     <path d="M 310.613596 261.480564 
L 313.944628 263.072138 
" style="fill: none; stroke: #000000; stroke-width: 0.5; stroke-linecap: square"/>
    </g>
   </g>
   <g id="xtick_17">
    <g id="line2d_18">
     <path d="M 306.818558 262.510633 
L 310.145921 264.106826 
" style="fill: none; stroke: #000000; stroke-width: 0.5; stroke-linecap: square"/>
    </g>
   </g>
   <g id="xtick_18">
    <g id="line2d_19">
     <path d="M 299.195412 264.579748 
L 302.51533 266.185238 
" style="fill: none; stroke: #000000; stroke-width: 0.5; stroke-linecap: square"/>
    </g>
   </g>
   <g id="xtick_19">
    <g id="line2d_20">
     <path d="M 295.367207 265.61882 
L 298.683349 267.228988 
" style="fill: none; stroke: #000000; stroke-width: 0.5; stroke-linecap: square"/>
    </g>
   </g>
   <g id="xtick_20">
    <g id="line2d_21">
     <path d="M 291.52785 266.660919 
L 294.84018 268.275787 
" style="fill: none; stroke: #000000; stroke-width: 0.5; stroke-linecap: square"/>
    </g>
   </g>
   <g id="xtick_21">
    <g id="line2d_22">
     <path d="M 287.677293 267.706058 
L 290.985773 269.325646 
" style="fill: none; stroke: #000000; stroke-width: 0.5; stroke-linecap: square"/>
    </g>
   </g>
   <g id="xtick_22">
    <g id="line2d_23">
     <path d="M 279.942378 269.80551 
L 283.24305 271.4346 
" style="fill: none; stroke: #000000; stroke-width: 0.5; stroke-linecap: square"/>
    </g>
   </g>
   <g id="xtick_23">
    <g id="line2d_24">
     <path d="M 276.057921 270.85985 
L 279.354634 272.493722 
" style="fill: none; stroke: #000000; stroke-width: 0.5; stroke-linecap: square"/>
    </g>
   </g>
   <g id="xtick_24">
    <g id="line2d_25">
     <path d="M 272.162066 271.917284 
L 275.454782 273.55596 
" style="fill: none; stroke: #000000; stroke-width: 0.5; stroke-linecap: square"/>
    </g>
   </g>
   <g id="xtick_25">
    <g id="line2d_26">
     <path d="M 268.254761 272.977825 
L 271.543442 274.621326 
" style="fill: none; stroke: #000000; stroke-width: 0.5; stroke-linecap: square"/>
    </g>
   </g>
   <g id="xtick_26">
    <g id="line2d_27">
     <path d="M 260.405601 275.108286 
L 263.686098 276.761501 
" style="fill: none; stroke: #000000; stroke-width: 0.5; stroke-linecap: square"/>
    </g>
   </g>
   <g id="xtick_27">
    <g id="line2d_28">
     <path d="M 256.463644 276.178233 
L 259.73999 277.836338 
" style="fill: none; stroke: #000000; stroke-width: 0.5; stroke-linecap: square"/>
    </g>
   </g>
   <g id="xtick_28">
    <g id="line2d_29">
     <path d="M 252.510034 277.251343 
L 255.782191 278.914359 
" style="fill: none; stroke: #000000; stroke-width: 0.5; stroke-linecap: square"/>
    </g>
   </g>
   <g id="xtick_29">
    <g id="line2d_30">
     <path d="M 248.544718 278.327631 
L 251.812647 279.995579 
" style="fill: none; stroke: #000000; stroke-width: 0.5; stroke-linecap: square"/>
    </g>
   </g>
   <g id="xtick_30">
    <g id="line2d_31">
     <path d="M 240.578763 280.489793 
L 243.838117 282.167672 
" style="fill: none; stroke: #000000; stroke-width: 0.5; stroke-linecap: square"/>
    </g>
   </g>
   <g id="xtick_31">
    <g id="line2d_32">
     <path d="M 236.578019 281.575696 
L 239.833025 283.258575 
" style="fill: none; stroke: #000000; stroke-width: 0.5; stroke-linecap: square"/>
    </g>
   </g>
   <g id="xtick_32">
    <g id="line2d_33">
     <path d="M 232.56536 282.664834 
L 235.815977 284.352734 
" style="fill: none; stroke: #000000; stroke-width: 0.5; stroke-linecap: square"/>
    </g>
   </g>
   <g id="xtick_33">
    <g id="line2d_34">
     <path d="M 228.540732 283.75722 
L 231.78692 285.450164 
" style="fill: none; stroke: #000000; stroke-width: 0.5; stroke-linecap: square"/>
    </g>
   </g>
   <g id="xtick_34">
    <g id="line2d_35">
     <path d="M 220.455356 285.951796 
L 223.692563 287.654896 
" style="fill: none; stroke: #000000; stroke-width: 0.5; stroke-linecap: square"/>
    </g>
   </g>
   <g id="xtick_35">
    <g id="line2d_36">
     <path d="M 216.3945 287.054015 
L 219.627153 288.762228 
" style="fill: none; stroke: #000000; stroke-width: 0.5; stroke-linecap: square"/>
    </g>
   </g>
   <g id="xtick_36">
    <g id="line2d_37">
     <path d="M 212.321459 288.159542 
L 215.549517 289.87289 
" style="fill: none; stroke: #000000; stroke-width: 0.5; stroke-linecap: square"/>
    </g>
   </g>
   <g id="xtick_37">
    <g id="line2d_38">
     <path d="M 208.236178 289.26839 
L 211.459599 290.986897 
" style="fill: none; stroke: #000000; stroke-width: 0.5; stroke-linecap: square"/>
    </g>
   </g>
   <g id="xtick_38">
    <g id="line2d_39">
     <path d="M 200.028675 291.496115 
L 203.242693 293.225009 
" style="fill: none; stroke: #000000; stroke-width: 0.5; stroke-linecap: square"/>
    </g>
   </g>
   <g id="xtick_39">
    <g id="line2d_40">
     <path d="M 195.906342 292.61502 
L 199.115594 294.349144 
" style="fill: none; stroke: #000000; stroke-width: 0.5; stroke-linecap: square"/>
    </g>
   </g>
   <g id="xtick_40">
    <g id="line2d_41">
     <path d="M 191.771546 293.737309 
L 194.975988 295.476685 
" style="fill: none; stroke: #000000; stroke-width: 0.5; stroke-linecap: square"/>
    </g>
   </g>
   <g id="xtick_41">
    <g id="line2d_42">
     <path d="M 187.62423 294.862996 
L 190.823818 296.607648 
" style="fill: none; stroke: #000000; stroke-width: 0.5; stroke-linecap: square"/>
    </g>
   </g>
   <g id="xtick_42">
    <g id="line2d_43">
     <path d="M 179.291812 297.124625 
L 182.48156 298.879903 
" style="fill: none; stroke: #000000; stroke-width: 0.5; stroke-linecap: square"/>
    </g>
   </g>
   <g id="xtick_43">
    <g id="line2d_44">
     <path d="M 175.106595 298.260599 
L 178.291356 300.021227 
" style="fill: none; stroke: #000000; stroke-width: 0.5; stroke-linecap: square"/>
    </g>
   </g>
   <g id="xtick_44">
    <g id="line2d_45">
     <path d="M 170.908629 299.400033 
L 174.088357 301.166035 
" style="fill: none; stroke: #000000; stroke-width: 0.5; stroke-linecap: square"/>
    </g>
   </g>
   <g id="xtick_45">
    <g id="line2d_46">
     <path d="M 166.697855 300.542944 
L 169.872504 302.314344 
" style="fill: none; stroke: #000000; stroke-width: 0.5; stroke-linecap: square"/>
    </g>
   </g>
   <g id="xtick_46">
    <g id="line2d_47">
     <path d="M 158.237649 302.839259 
L 161.402003 304.62153 
" style="fill: none; stroke: #000000; stroke-width: 0.5; stroke-linecap: square"/>
    </g>
   </g>
   <g id="text_10">
    <!-- Time [s] -->
    <g transform="translate(254.706937 317.618175) rotate(-15.202586) scale(0.1 -0.1)">
     <defs>
      <path id="CMR17-54" d="M 3981 4326 
L 288 4326 
L 179 2918 
L 294 2918 
C 378 3976 467 4160 1453 4160 
C 1568 4160 1754 4160 1805 4154 
C 1926 4135 1926 4058 1926 3912 
L 1926 459 
C 1926 230 1907 160 1376 160 
L 1197 160 
L 1197 0 
C 1504 0 1824 0 2138 0 
C 2451 0 2771 0 3078 0 
L 3078 160 
L 2899 160 
C 2368 160 2349 230 2349 459 
L 2349 3912 
C 2349 4052 2349 4129 2464 4154 
C 2515 4160 2701 4160 2816 4160 
C 3795 4160 3891 3976 3974 2918 
L 4090 2918 
L 3981 4326 
z
" transform="scale(0.015625)"/>
      <path id="CMR17-69" d="M 992 3909 
C 992 4049 877 4170 730 4170 
C 589 4170 467 4056 467 3909 
C 467 3769 582 3648 730 3648 
C 870 3648 992 3763 992 3909 
z
M 243 2706 
L 243 2541 
C 602 2541 653 2502 653 2197 
L 653 427 
C 653 184 627 153 218 153 
L 218 -13 
C 371 0 646 0 806 0 
C 960 0 1222 0 1370 -13 
L 1370 153 
C 992 153 979 191 979 420 
L 979 2776 
L 243 2706 
z
" transform="scale(0.015625)"/>
      <path id="CMR17-6d" d="M 4326 1933 
C 4326 2252 4269 2790 3507 2790 
C 3072 2790 2771 2496 2656 2151 
L 2650 2151 
C 2573 2676 2195 2790 1837 2790 
C 1331 2790 1069 2400 973 2144 
L 966 2144 
L 966 2790 
L 211 2720 
L 211 2554 
C 589 2554 646 2515 646 2208 
L 646 428 
C 646 184 621 153 211 153 
L 211 -13 
C 365 0 646 0 813 0 
C 979 0 1267 0 1421 -13 
L 1421 153 
C 1011 153 986 178 986 428 
L 986 1658 
C 986 2247 1344 2688 1792 2688 
C 2266 2688 2317 2266 2317 1958 
L 2317 428 
C 2317 184 2291 153 1882 153 
L 1882 -13 
C 2035 0 2317 0 2483 0 
C 2650 0 2938 0 3091 -13 
L 3091 153 
C 2682 153 2656 178 2656 428 
L 2656 1658 
C 2656 2247 3014 2688 3462 2688 
C 3936 2688 3987 2266 3987 1958 
L 3987 428 
C 3987 184 3962 153 3552 153 
L 3552 -13 
C 3706 0 3987 0 4154 0 
C 4320 0 4608 0 4762 -13 
L 4762 153 
C 4352 153 4326 178 4326 428 
L 4326 1933 
z
" transform="scale(0.015625)"/>
      <path id="CMR17-65" d="M 2438 1472 
C 2464 1498 2464 1511 2464 1576 
C 2464 2238 2118 2816 1389 2816 
C 710 2816 173 2169 173 1383 
C 173 551 781 -64 1459 -64 
C 2176 -64 2458 607 2458 740 
C 2458 784 2419 784 2406 784 
C 2362 784 2355 771 2330 696 
C 2189 265 1837 51 1504 51 
C 1229 51 954 203 781 480 
C 582 803 582 1176 582 1472 
L 2438 1472 
z
M 589 1568 
C 634 2505 1126 2714 1382 2714 
C 1818 2714 2112 2297 2118 1568 
L 589 1568 
z
" transform="scale(0.015625)"/>
      <path id="CMR17-5b" d="M 1504 -1600 
L 1504 -1377 
L 902 -1377 
L 902 4544 
L 1504 4544 
L 1504 4767 
L 678 4767 
L 678 -1600 
L 1504 -1600 
z
" transform="scale(0.015625)"/>
      <path id="CMR17-73" d="M 1978 2697 
C 1978 2813 1971 2819 1933 2819 
C 1907 2819 1901 2813 1824 2717 
C 1805 2691 1747 2626 1728 2601 
C 1523 2819 1235 2819 1126 2819 
C 416 2819 160 2447 160 2076 
C 160 1498 813 1365 998 1325 
C 1402 1243 1542 1217 1677 1101 
C 1760 1025 1901 884 1901 654 
C 1901 384 1747 38 1158 38 
C 602 38 403 460 288 1021 
C 269 1110 269 1117 218 1117 
C 166 1117 160 1110 160 983 
L 160 63 
C 160 -51 166 -58 205 -58 
C 237 -58 243 -51 275 0 
C 314 57 410 211 448 276 
C 576 103 800 -64 1158 -64 
C 1792 -64 2131 283 2131 784 
C 2131 1112 1958 1285 1875 1362 
C 1683 1561 1459 1606 1190 1657 
C 838 1735 390 1825 390 2217 
C 390 2383 480 2737 1126 2737 
C 1811 2737 1850 2094 1862 1888 
C 1869 1856 1901 1849 1920 1849 
C 1978 1849 1978 1869 1978 1978 
L 1978 2697 
z
" transform="scale(0.015625)"/>
      <path id="CMR17-5d" d="M 915 4767 
L 90 4767 
L 90 4544 
L 691 4544 
L 691 -1377 
L 90 -1377 
L 90 -1600 
L 915 -1600 
L 915 4767 
z
" transform="scale(0.015625)"/>
     </defs>
     <use xlink:href="#CMR17-54" transform="scale(0.996264)"/>
     <use xlink:href="#CMR17-69" transform="translate(66.509881 0) scale(0.996264)"/>
     <use xlink:href="#CMR17-6d" transform="translate(91.380939 0) scale(0.996264)"/>
     <use xlink:href="#CMR17-65" transform="translate(168.300529 0) scale(0.996264)"/>
     <use xlink:href="#CMR17-5b" transform="translate(238.862156 0) scale(0.996264)"/>
     <use xlink:href="#CMR17-73" transform="translate(263.733214 0) scale(0.996264)"/>
     <use xlink:href="#CMR17-5d" transform="translate(299.534552 0) scale(0.996264)"/>
    </g>
   </g>
  </g>
  <g id="axis3d_2">
   <g id="line2d_48">
    <path d="M 39.0034 235.968671 
L 158.914266 303.534725 
" style="fill: none; stroke: #000000; stroke-width: 0.5; stroke-linecap: square"/>
   </g>
   <g id="xtick_47">
    <g id="line2d_49">
     <path d="M 47.060058 239.330868 
L 42.653296 240.383833 
" style="fill: none; stroke: #000000; stroke-width: 0.5; stroke-linecap: square"/>
    </g>
    <g id="text_11">
     <!-- $\mathdefault{50000}$ -->
     <g transform="translate(21.425986 259.231284) scale(0.1 -0.1)">
      <use xlink:href="#CMR17-35" transform="scale(0.996264)"/>
      <use xlink:href="#CMR17-30" transform="translate(45.690477 0) scale(0.996264)"/>
      <use xlink:href="#CMR17-30" transform="translate(91.380954 0) scale(0.996264)"/>
      <use xlink:href="#CMR17-30" transform="translate(137.071431 0) scale(0.996264)"/>
      <use xlink:href="#CMR17-30" transform="translate(182.761908 0) scale(0.996264)"/>
     </g>
    </g>
   </g>
   <g id="xtick_48">
    <g id="line2d_50">
     <path d="M 69.526097 251.968192 
L 65.073357 253.060159 
" style="fill: none; stroke: #000000; stroke-width: 0.5; stroke-linecap: square"/>
    </g>
    <g id="text_12">
     <!-- $\mathdefault{100000}$ -->
     <g transform="translate(41.223888 272.143876) scale(0.1 -0.1)">
      <use xlink:href="#CMR17-31" transform="scale(0.996264)"/>
      <use xlink:href="#CMR17-30" transform="translate(45.690477 0) scale(0.996264)"/>
      <use xlink:href="#CMR17-30" transform="translate(91.380954 0) scale(0.996264)"/>
      <use xlink:href="#CMR17-30" transform="translate(137.071431 0) scale(0.996264)"/>
      <use xlink:href="#CMR17-30" transform="translate(182.761908 0) scale(0.996264)"/>
      <use xlink:href="#CMR17-30" transform="translate(228.452386 0) scale(0.996264)"/>
     </g>
    </g>
   </g>
   <g id="xtick_49">
    <g id="line2d_51">
     <path d="M 92.831467 265.077647 
L 88.332359 266.210824 
" style="fill: none; stroke: #000000; stroke-width: 0.5; stroke-linecap: square"/>
    </g>
    <g id="text_13">
     <!-- $\mathdefault{150000}$ -->
     <g transform="translate(64.347609 285.540301) scale(0.1 -0.1)">
      <use xlink:href="#CMR17-31" transform="scale(0.996264)"/>
      <use xlink:href="#CMR17-35" transform="translate(45.690477 0) scale(0.996264)"/>
      <use xlink:href="#CMR17-30" transform="translate(91.380954 0) scale(0.996264)"/>
      <use xlink:href="#CMR17-30" transform="translate(137.071431 0) scale(0.996264)"/>
      <use xlink:href="#CMR17-30" transform="translate(182.761908 0) scale(0.996264)"/>
      <use xlink:href="#CMR17-30" transform="translate(228.452386 0) scale(0.996264)"/>
     </g>
    </g>
   </g>
   <g id="xtick_50">
    <g id="line2d_52">
     <path d="M 117.0241 278.686193 
L 112.478289 279.862958 
" style="fill: none; stroke: #000000; stroke-width: 0.5; stroke-linecap: square"/>
    </g>
    <g id="text_14">
     <!-- $\mathdefault{200000}$ -->
     <g transform="translate(88.35432 299.448275) scale(0.1 -0.1)">
      <defs>
       <path id="CMR17-32" d="M 2669 989 
L 2554 989 
C 2490 536 2438 459 2413 420 
C 2381 369 1920 369 1830 369 
L 602 369 
C 832 619 1280 1072 1824 1597 
C 2214 1967 2669 2402 2669 3035 
C 2669 3790 2067 4224 1395 4224 
C 691 4224 262 3604 262 3030 
C 262 2780 448 2748 525 2748 
C 589 2748 781 2787 781 3010 
C 781 3207 614 3264 525 3264 
C 486 3264 448 3258 422 3245 
C 544 3790 915 4058 1306 4058 
C 1862 4058 2227 3617 2227 3035 
C 2227 2479 1901 2000 1536 1584 
L 262 146 
L 262 0 
L 2515 0 
L 2669 989 
z
" transform="scale(0.015625)"/>
      </defs>
      <use xlink:href="#CMR17-32" transform="scale(0.996264)"/>
      <use xlink:href="#CMR17-30" transform="translate(45.690477 0) scale(0.996264)"/>
      <use xlink:href="#CMR17-30" transform="translate(91.380954 0) scale(0.996264)"/>
      <use xlink:href="#CMR17-30" transform="translate(137.071431 0) scale(0.996264)"/>
      <use xlink:href="#CMR17-30" transform="translate(182.761908 0) scale(0.996264)"/>
      <use xlink:href="#CMR17-30" transform="translate(228.452386 0) scale(0.996264)"/>
     </g>
    </g>
   </g>
   <g id="xtick_51">
    <g id="line2d_53">
     <path d="M 142.155646 292.822887 
L 137.562863 294.045803 
" style="fill: none; stroke: #000000; stroke-width: 0.5; stroke-linecap: square"/>
    </g>
    <g id="text_15">
     <!-- $\mathdefault{250000}$ -->
     <g transform="translate(113.295578 313.897667) scale(0.1 -0.1)">
      <use xlink:href="#CMR17-32" transform="scale(0.996264)"/>
      <use xlink:href="#CMR17-35" transform="translate(45.690477 0) scale(0.996264)"/>
      <use xlink:href="#CMR17-30" transform="translate(91.380954 0) scale(0.996264)"/>
      <use xlink:href="#CMR17-30" transform="translate(137.071431 0) scale(0.996264)"/>
      <use xlink:href="#CMR17-30" transform="translate(182.761908 0) scale(0.996264)"/>
      <use xlink:href="#CMR17-30" transform="translate(228.452386 0) scale(0.996264)"/>
     </g>
    </g>
   </g>
   <g id="xtick_52">
    <g id="line2d_54">
     <path d="M 42.663594 236.857822 
L 38.265977 237.903238 
" style="fill: none; stroke: #000000; stroke-width: 0.5; stroke-linecap: square"/>
    </g>
   </g>
   <g id="xtick_53">
    <g id="line2d_55">
     <path d="M 51.488303 241.821791 
L 47.07238 242.882387 
" style="fill: none; stroke: #000000; stroke-width: 0.5; stroke-linecap: square"/>
    </g>
   </g>
   <g id="xtick_54">
    <g id="line2d_56">
     <path d="M 55.948677 244.330786 
L 51.523574 245.399097 
" style="fill: none; stroke: #000000; stroke-width: 0.5; stroke-linecap: square"/>
    </g>
   </g>
   <g id="xtick_55">
    <g id="line2d_57">
     <path d="M 60.441529 246.858051 
L 56.007229 247.934161 
" style="fill: none; stroke: #000000; stroke-width: 0.5; stroke-linecap: square"/>
    </g>
   </g>
   <g id="xtick_56">
    <g id="line2d_58">
     <path d="M 64.967215 249.403785 
L 60.523703 250.48778 
" style="fill: none; stroke: #000000; stroke-width: 0.5; stroke-linecap: square"/>
    </g>
   </g>
   <g id="xtick_57">
    <g id="line2d_59">
     <path d="M 74.118542 254.551478 
L 69.656558 255.651506 
" style="fill: none; stroke: #000000; stroke-width: 0.5; stroke-linecap: square"/>
    </g>
   </g>
   <g id="xtick_58">
    <g id="line2d_60">
     <path d="M 78.744921 257.153853 
L 74.273677 258.26203 
" style="fill: none; stroke: #000000; stroke-width: 0.5; stroke-linecap: square"/>
    </g>
   </g>
   <g id="xtick_59">
    <g id="line2d_61">
     <path d="M 83.405611 259.775528 
L 78.925094 260.891946 
" style="fill: none; stroke: #000000; stroke-width: 0.5; stroke-linecap: square"/>
    </g>
   </g>
   <g id="xtick_60">
    <g id="line2d_62">
     <path d="M 88.100997 262.41672 
L 83.611192 263.54147 
" style="fill: none; stroke: #000000; stroke-width: 0.5; stroke-linecap: square"/>
    </g>
   </g>
   <g id="xtick_61">
    <g id="line2d_63">
     <path d="M 97.597416 267.75853 
L 93.088992 268.900229 
" style="fill: none; stroke: #000000; stroke-width: 0.5; stroke-linecap: square"/>
    </g>
   </g>
   <g id="xtick_62">
    <g id="line2d_64">
     <path d="M 102.399243 270.459596 
L 97.881491 271.609913 
" style="fill: none; stroke: #000000; stroke-width: 0.5; stroke-linecap: square"/>
    </g>
   </g>
   <g id="xtick_63">
    <g id="line2d_65">
     <path d="M 107.237357 273.181073 
L 102.710263 274.340106 
" style="fill: none; stroke: #000000; stroke-width: 0.5; stroke-linecap: square"/>
    </g>
   </g>
   <g id="xtick_64">
    <g id="line2d_66">
     <path d="M 112.112169 275.923194 
L 107.575723 277.091042 
" style="fill: none; stroke: #000000; stroke-width: 0.5; stroke-linecap: square"/>
    </g>
   </g>
   <g id="xtick_65">
    <g id="line2d_67">
     <path d="M 121.973574 281.470312 
L 117.418387 282.656095 
" style="fill: none; stroke: #000000; stroke-width: 0.5; stroke-linecap: square"/>
    </g>
   </g>
   <g id="xtick_66">
    <g id="line2d_68">
     <path d="M 126.961023 284.275791 
L 122.396451 285.470697 
" style="fill: none; stroke: #000000; stroke-width: 0.5; stroke-linecap: square"/>
    </g>
   </g>
   <g id="xtick_67">
    <g id="line2d_69">
     <path d="M 131.986887 287.102879 
L 127.41292 288.307014 
" style="fill: none; stroke: #000000; stroke-width: 0.5; stroke-linecap: square"/>
    </g>
   </g>
   <g id="xtick_68">
    <g id="line2d_70">
     <path d="M 137.051611 289.951826 
L 132.46824 291.165297 
" style="fill: none; stroke: #000000; stroke-width: 0.5; stroke-linecap: square"/>
    </g>
   </g>
   <g id="xtick_69">
    <g id="line2d_71">
     <path d="M 147.299454 295.716319 
L 142.697251 296.948791 
" style="fill: none; stroke: #000000; stroke-width: 0.5; stroke-linecap: square"/>
    </g>
   </g>
   <g id="xtick_70">
    <g id="line2d_72">
     <path d="M 152.483501 298.632386 
L 147.87187 299.874526 
" style="fill: none; stroke: #000000; stroke-width: 0.5; stroke-linecap: square"/>
    </g>
   </g>
   <g id="xtick_71">
    <g id="line2d_73">
     <path d="M 157.708259 301.571354 
L 153.087195 302.823276 
" style="fill: none; stroke: #000000; stroke-width: 0.5; stroke-linecap: square"/>
    </g>
   </g>
   <g id="text_16">
    <!-- Selection cost [] -->
    <g transform="translate(38.915197 282.440695) rotate(-330.600089) scale(0.1 -0.1)">
     <defs>
      <path id="CMR17-53" d="M 2803 4290 
C 2803 4404 2797 4411 2758 4411 
C 2720 4411 2707 4385 2682 4328 
L 2490 3907 
C 2246 4257 1875 4416 1472 4416 
C 819 4416 294 3901 294 3253 
C 294 3056 339 2776 557 2510 
C 794 2218 1018 2167 1530 2033 
C 1722 1982 2042 1899 2106 1874 
C 2470 1722 2662 1341 2662 985 
C 2662 527 2336 38 1779 38 
C 1094 38 454 419 410 1311 
C 403 1413 397 1419 352 1419 
C 301 1419 294 1413 294 1285 
L 294 -1 
C 294 -115 301 -122 339 -122 
C 384 -122 397 -90 486 108 
C 493 127 493 140 614 381 
C 934 -39 1472 -128 1779 -128 
C 2477 -128 2970 451 2970 1124 
C 2970 1454 2848 1708 2778 1823 
C 2509 2230 2221 2306 1914 2382 
C 1869 2402 1856 2402 1498 2490 
C 1152 2579 1005 2624 845 2796 
C 666 2992 602 3196 602 3399 
C 602 3812 934 4263 1478 4263 
C 2157 4263 2579 3786 2675 2993 
C 2694 2878 2701 2872 2746 2872 
C 2803 2872 2803 2891 2803 2999 
L 2803 4290 
z
" transform="scale(0.015625)"/>
      <path id="CMR17-6c" d="M 979 4396 
L 218 4326 
L 218 4160 
C 595 4160 653 4122 653 3817 
L 653 426 
C 653 184 627 153 218 153 
L 218 -13 
C 371 0 653 0 813 0 
C 979 0 1261 0 1414 -13 
L 1414 153 
C 1005 153 979 178 979 426 
L 979 4396 
z
" transform="scale(0.015625)"/>
      <path id="CMR17-63" d="M 2234 2240 
C 2112 2240 1933 2240 1933 2017 
C 1933 1838 2080 1787 2163 1787 
C 2208 1787 2394 1807 2394 2024 
C 2394 2467 1958 2803 1466 2803 
C 787 2803 211 2178 211 1363 
C 211 516 813 -64 1466 -64 
C 2259 -64 2458 677 2458 748 
C 2458 774 2451 793 2406 793 
C 2362 793 2355 787 2330 703 
C 2163 180 1798 51 1523 51 
C 1114 51 621 427 621 1369 
C 621 2338 1094 2688 1472 2688 
C 1722 2688 2093 2573 2234 2240 
z
" transform="scale(0.015625)"/>
      <path id="CMR17-74" d="M 966 2560 
L 1862 2560 
L 1862 2725 
L 966 2725 
L 966 3904 
L 851 3904 
C 838 3245 614 2668 70 2668 
L 70 2560 
L 627 2560 
L 627 771 
C 627 650 627 -64 1370 -64 
C 1747 -64 1965 306 1965 777 
L 1965 1140 
L 1850 1140 
L 1850 783 
C 1850 344 1677 51 1408 51 
C 1222 51 966 178 966 758 
L 966 2560 
z
" transform="scale(0.015625)"/>
      <path id="CMR17-6f" d="M 2758 1356 
C 2758 2176 2163 2816 1466 2816 
C 768 2816 173 2176 173 1356 
C 173 551 768 -64 1466 -64 
C 2163 -64 2758 551 2758 1356 
z
M 1466 51 
C 1165 51 909 230 762 480 
C 602 767 582 1126 582 1408 
C 582 1677 595 2010 762 2298 
C 890 2509 1139 2714 1466 2714 
C 1754 2714 1997 2554 2150 2330 
C 2349 2029 2349 1607 2349 1408 
C 2349 1158 2336 775 2163 467 
C 1984 173 1709 51 1466 51 
z
" transform="scale(0.015625)"/>
      <path id="CMR17-6e" d="M 2656 1933 
C 2656 2259 2592 2790 1837 2790 
C 1331 2790 1069 2400 973 2144 
L 966 2144 
L 966 2790 
L 211 2720 
L 211 2554 
C 589 2554 646 2515 646 2208 
L 646 428 
C 646 184 621 153 211 153 
L 211 -13 
C 365 0 646 0 813 0 
C 979 0 1267 0 1421 -13 
L 1421 153 
C 1011 153 986 178 986 428 
L 986 1658 
C 986 2247 1344 2688 1792 2688 
C 2266 2688 2317 2266 2317 1958 
L 2317 428 
C 2317 184 2291 153 1882 153 
L 1882 -13 
C 2035 0 2317 0 2483 0 
C 2650 0 2938 0 3091 -13 
L 3091 153 
C 2682 153 2656 178 2656 428 
L 2656 1933 
z
" transform="scale(0.015625)"/>
     </defs>
     <use xlink:href="#CMR17-53" transform="scale(0.996264)"/>
     <use xlink:href="#CMR17-65" transform="translate(50.89537 0) scale(0.996264)"/>
     <use xlink:href="#CMR17-6c" transform="translate(91.38103 0) scale(0.996264)"/>
     <use xlink:href="#CMR17-65" transform="translate(116.252089 0) scale(0.996264)"/>
     <use xlink:href="#CMR17-63" transform="translate(156.737749 0) scale(0.996264)"/>
     <use xlink:href="#CMR17-74" transform="translate(197.22341 0) scale(0.996264)"/>
     <use xlink:href="#CMR17-69" transform="translate(232.504177 0) scale(0.996264)"/>
     <use xlink:href="#CMR17-6f" transform="translate(257.375236 0) scale(0.996264)"/>
     <use xlink:href="#CMR17-6e" transform="translate(303.065713 0) scale(0.996264)"/>
     <use xlink:href="#CMR17-63" transform="translate(384.037049 0) scale(0.996264)"/>
     <use xlink:href="#CMR17-6f" transform="translate(424.52271 0) scale(0.996264)"/>
     <use xlink:href="#CMR17-73" transform="translate(470.213187 0) scale(0.996264)"/>
     <use xlink:href="#CMR17-74" transform="translate(506.014524 0) scale(0.996264)"/>
     <use xlink:href="#CMR17-5b" transform="translate(571.371259 0) scale(0.996264)"/>
     <use xlink:href="#CMR17-5d" transform="translate(596.242317 0) scale(0.996264)"/>
    </g>
   </g>
  </g>
  <g id="axis3d_3">
   <g id="line2d_74">
    <path d="M 39.0034 235.968671 
L 34.777644 82.618582 
" style="fill: none; stroke: #000000; stroke-width: 0.5; stroke-linecap: square"/>
   </g>
   <g id="xtick_72">
    <g id="line2d_75">
     <path d="M 40.221748 226.659415 
L 35.821006 227.689166 
" style="fill: none; stroke: #000000; stroke-width: 0.5; stroke-linecap: square"/>
    </g>
    <g id="text_17">
     <!-- $\mathdefault{0}$ -->
     <g transform="translate(17.257808 232.756718) scale(0.1 -0.1)">
      <use xlink:href="#CMR17-30" transform="scale(0.996264)"/>
     </g>
    </g>
   </g>
   <g id="xtick_73">
    <g id="line2d_76">
     <path d="M 39.423274 197.39217 
L 34.997336 198.382737 
" style="fill: none; stroke: #000000; stroke-width: 0.5; stroke-linecap: square"/>
    </g>
    <g id="text_18">
     <!-- $\mathdefault{20000}$ -->
     <g transform="translate(6.386409 203.520733) scale(0.1 -0.1)">
      <use xlink:href="#CMR17-32" transform="scale(0.996264)"/>
      <use xlink:href="#CMR17-30" transform="translate(45.690477 0) scale(0.996264)"/>
      <use xlink:href="#CMR17-30" transform="translate(91.380954 0) scale(0.996264)"/>
      <use xlink:href="#CMR17-30" transform="translate(137.071431 0) scale(0.996264)"/>
      <use xlink:href="#CMR17-30" transform="translate(182.761908 0) scale(0.996264)"/>
     </g>
    </g>
   </g>
   <g id="xtick_74">
    <g id="line2d_77">
     <path d="M 38.616067 167.804783 
L 34.164642 168.755244 
" style="fill: none; stroke: #000000; stroke-width: 0.5; stroke-linecap: square"/>
    </g>
    <g id="text_19">
     <!-- $\mathdefault{40000}$ -->
     <g transform="translate(5.467753 173.96534) scale(0.1 -0.1)">
      <use xlink:href="#CMR17-34" transform="scale(0.996264)"/>
      <use xlink:href="#CMR17-30" transform="translate(45.690477 0) scale(0.996264)"/>
      <use xlink:href="#CMR17-30" transform="translate(91.380954 0) scale(0.996264)"/>
      <use xlink:href="#CMR17-30" transform="translate(137.071431 0) scale(0.996264)"/>
      <use xlink:href="#CMR17-30" transform="translate(182.761908 0) scale(0.996264)"/>
     </g>
    </g>
   </g>
   <g id="xtick_75">
    <g id="line2d_78">
     <path d="M 37.799981 137.891974 
L 33.322776 138.801384 
" style="fill: none; stroke: #000000; stroke-width: 0.5; stroke-linecap: square"/>
    </g>
    <g id="text_20">
     <!-- $\mathdefault{60000}$ -->
     <g transform="translate(4.539006 144.085277) scale(0.1 -0.1)">
      <use xlink:href="#CMR17-36" transform="scale(0.996264)"/>
      <use xlink:href="#CMR17-30" transform="translate(45.690477 0) scale(0.996264)"/>
      <use xlink:href="#CMR17-30" transform="translate(91.380954 0) scale(0.996264)"/>
      <use xlink:href="#CMR17-30" transform="translate(137.071431 0) scale(0.996264)"/>
      <use xlink:href="#CMR17-30" transform="translate(182.761908 0) scale(0.996264)"/>
     </g>
    </g>
   </g>
   <g id="xtick_76">
    <g id="line2d_79">
     <path d="M 36.97487 107.648342 
L 32.471584 108.515732 
" style="fill: none; stroke: #000000; stroke-width: 0.5; stroke-linecap: square"/>
    </g>
    <g id="text_21">
     <!-- $\mathdefault{80000}$ -->
     <g transform="translate(3.6 113.875165) scale(0.1 -0.1)">
      <use xlink:href="#CMR17-38" transform="scale(0.996264)"/>
      <use xlink:href="#CMR17-30" transform="translate(45.690477 0) scale(0.996264)"/>
      <use xlink:href="#CMR17-30" transform="translate(91.380954 0) scale(0.996264)"/>
      <use xlink:href="#CMR17-30" transform="translate(137.071431 0) scale(0.996264)"/>
      <use xlink:href="#CMR17-30" transform="translate(182.761908 0) scale(0.996264)"/>
     </g>
    </g>
   </g>
   <g id="text_22">
    <!-- Monetary cost $[\$]$ -->
    <g transform="translate(-8.362563 119.919173) rotate(-271.578458) scale(0.1 -0.1)">
     <defs>
      <path id="CMR17-4d" d="M 1338 4224 
C 1299 4320 1293 4320 1158 4320 
L 339 4320 
L 339 4160 
C 781 4160 851 4160 851 3875 
L 851 610 
C 851 451 851 153 339 153 
L 339 -13 
C 486 0 755 0 915 0 
C 1075 0 1344 0 1491 -13 
L 1491 153 
C 979 153 979 451 979 610 
L 979 4135 
L 986 4135 
L 2490 89 
C 2515 25 2528 -13 2579 -13 
C 2630 -13 2643 25 2669 89 
L 4186 4166 
L 4192 4166 
L 4192 438 
C 4192 153 4122 153 3680 153 
L 3680 -13 
C 3853 0 4198 0 4384 0 
C 4570 0 4922 0 5094 -13 
L 5094 153 
C 4653 153 4582 153 4582 438 
L 4582 3875 
C 4582 4160 4653 4160 5094 4160 
L 5094 4320 
L 4282 4320 
C 4147 4320 4141 4314 4102 4218 
L 2720 502 
L 1338 4224 
z
" transform="scale(0.015625)"/>
      <path id="CMR17-61" d="M 2304 1653 
C 2304 2072 2304 2294 2035 2543 
C 1798 2752 1523 2816 1306 2816 
C 800 2816 435 2407 435 1971 
C 435 1728 627 1728 666 1728 
C 749 1728 896 1778 896 1954 
C 896 2112 774 2181 666 2181 
C 640 2181 608 2174 589 2168 
C 723 2592 1069 2714 1293 2714 
C 1613 2714 1965 2429 1965 1885 
L 1965 1600 
C 1587 1600 1133 1549 774 1357 
C 371 1133 256 813 256 570 
C 256 77 832 -64 1171 -64 
C 1523 -64 1850 139 1990 511 
C 2003 233 2182 -18 2464 -18 
C 2598 -18 2938 70 2938 567 
L 2938 920 
L 2822 920 
L 2822 562 
C 2822 178 2650 128 2566 128 
C 2304 128 2304 458 2304 738 
L 2304 1653 
z
M 1965 870 
C 1965 317 1568 38 1216 38 
C 896 38 646 275 646 570 
C 646 761 730 1100 1101 1305 
C 1408 1478 1760 1504 1965 1504 
L 1965 870 
z
" transform="scale(0.015625)"/>
      <path id="CMR17-72" d="M 960 1497 
C 960 2112 1222 2688 1702 2688 
C 1747 2688 1792 2682 1837 2662 
C 1837 2662 1696 2617 1696 2452 
C 1696 2298 1818 2234 1914 2234 
C 1990 2234 2131 2279 2131 2458 
C 2131 2663 1926 2790 1709 2790 
C 1222 2790 1011 2317 947 2093 
L 941 2093 
L 941 2790 
L 198 2720 
L 198 2554 
C 576 2554 634 2515 634 2208 
L 634 428 
C 634 184 608 153 198 153 
L 198 -13 
C 352 0 646 0 813 0 
C 998 0 1325 0 1498 -13 
L 1498 153 
C 1037 153 960 153 960 440 
L 960 1497 
z
" transform="scale(0.015625)"/>
      <path id="CMR17-79" d="M 2496 2197 
C 2656 2586 2944 2586 3034 2586 
L 3034 2752 
C 2912 2752 2752 2752 2630 2752 
C 2496 2752 2285 2752 2157 2758 
L 2157 2592 
C 2400 2573 2406 2394 2406 2343 
C 2406 2280 2394 2248 2362 2171 
L 1664 449 
L 902 2306 
C 870 2382 870 2426 870 2433 
C 870 2573 1018 2586 1171 2586 
L 1171 2758 
C 1018 2752 742 2752 582 2752 
C 410 2752 205 2752 64 2758 
L 64 2586 
C 410 2586 448 2554 531 2350 
L 1485 15 
C 1197 -738 1030 -1178 627 -1178 
C 557 -1178 397 -1159 282 -1044 
C 429 -1031 493 -942 493 -833 
C 493 -725 416 -629 288 -629 
C 147 -629 77 -725 77 -840 
C 77 -1095 339 -1280 627 -1280 
C 998 -1280 1229 -922 1357 -604 
L 2496 2197 
z
" transform="scale(0.015625)"/>
      <path id="CMR17-24" d="M 1549 4327 
C 1901 4327 2381 4183 2502 3576 
C 2477 3589 2438 3595 2406 3595 
C 2323 3595 2176 3544 2176 3366 
C 2176 3206 2298 3136 2406 3136 
C 2541 3136 2637 3215 2637 3403 
C 2637 3939 2317 4480 1549 4480 
L 1549 4800 
L 1382 4800 
L 1382 4505 
C 749 4448 294 3936 294 3328 
C 294 2906 499 2637 602 2522 
C 838 2273 1011 2227 1382 2125 
L 1382 153 
C 1030 153 538 332 422 979 
C 448 967 493 960 525 960 
C 634 960 755 1031 755 1190 
C 755 1368 608 1419 525 1419 
C 416 1419 294 1368 294 1156 
C 294 514 685 0 1382 0 
L 1382 -320 
L 1549 -320 
L 1549 -13 
C 2214 45 2637 616 2637 1244 
C 2637 1408 2611 1771 2323 2107 
C 2086 2380 1837 2443 1549 2513 
L 1549 4327 
z
M 1382 2564 
C 1210 2602 979 2660 800 2846 
C 646 3013 550 3218 550 3455 
C 550 3840 838 4282 1382 4333 
L 1382 2564 
z
M 1549 2080 
C 1754 2035 1939 1979 2125 1782 
C 2214 1680 2381 1446 2381 1110 
C 2381 666 2067 204 1549 153 
L 1549 2080 
z
" transform="scale(0.015625)"/>
     </defs>
     <use xlink:href="#CMR17-4d" transform="scale(0.996264)"/>
     <use xlink:href="#CMR17-6f" transform="translate(84.686941 0) scale(0.996264)"/>
     <use xlink:href="#CMR17-6e" transform="translate(130.377418 0) scale(0.996264)"/>
     <use xlink:href="#CMR17-65" transform="translate(181.272787 0) scale(0.996264)"/>
     <use xlink:href="#CMR17-74" transform="translate(221.758448 0) scale(0.996264)"/>
     <use xlink:href="#CMR17-61" transform="translate(257.039216 0) scale(0.996264)"/>
     <use xlink:href="#CMR17-72" transform="translate(302.729693 0) scale(0.996264)"/>
     <use xlink:href="#CMR17-79" transform="translate(338.010461 0) scale(0.996264)"/>
     <use xlink:href="#CMR17-63" transform="translate(416.379343 0) scale(0.996264)"/>
     <use xlink:href="#CMR17-6f" transform="translate(456.865003 0) scale(0.996264)"/>
     <use xlink:href="#CMR17-73" transform="translate(502.55548 0) scale(0.996264)"/>
     <use xlink:href="#CMR17-74" transform="translate(538.356818 0) scale(0.996264)"/>
     <use xlink:href="#CMR17-5b" transform="translate(603.713552 0) scale(0.996264)"/>
     <use xlink:href="#CMR17-24" transform="translate(628.584611 0) scale(0.996264)"/>
     <use xlink:href="#CMR17-5d" transform="translate(674.275088 0) scale(0.996264)"/>
    </g>
   </g>
  </g>
  <g id="axes_1">
   <g id="Path3DCollection_1">
    <defs>
     <path id="mbac00cf183" d="M 0 2.236068 
C 0.593012 2.236068 1.161816 2.000462 1.581139 1.581139 
C 2.000462 1.161816 2.236068 0.593012 2.236068 0 
C 2.236068 -0.593012 2.000462 -1.161816 1.581139 -1.581139 
C 1.161816 -2.000462 0.593012 -2.236068 0 -2.236068 
C -0.593012 -2.236068 -1.161816 -2.000462 -1.581139 -1.581139 
C -2.000462 -1.161816 -2.236068 -0.593012 -2.236068 0 
C -2.236068 0.593012 -2.000462 1.161816 -1.581139 1.581139 
C -1.161816 2.000462 -0.593012 2.236068 0 2.236068 
z
" style="stroke: #0c5da5"/>
    </defs>
    <g clip-path="url(#p758f59bf5a)">
     <use xlink:href="#mbac00cf183" x="104.453018" y="171.236055" style="fill: #0c5da5; stroke: #0c5da5"/>
    </g>
   </g>
   <g id="Path3DCollection_2">
    <defs>
     <path id="m899c0d0f69" d="M 0 2.236068 
C 0.593012 2.236068 1.161816 2.000462 1.581139 1.581139 
C 2.000462 1.161816 2.236068 0.593012 2.236068 0 
C 2.236068 -0.593012 2.000462 -1.161816 1.581139 -1.581139 
C 1.161816 -2.000462 0.593012 -2.236068 0 -2.236068 
C -0.593012 -2.236068 -1.161816 -2.000462 -1.581139 -1.581139 
C -2.000462 -1.161816 -2.236068 -0.593012 -2.236068 0 
C -2.236068 0.593012 -2.000462 1.161816 -1.581139 1.581139 
C -1.161816 2.000462 -0.593012 2.236068 0 2.236068 
z
" style="stroke: #ff9500"/>
    </defs>
    <g clip-path="url(#p758f59bf5a)">
     <use xlink:href="#m899c0d0f69" x="91.608295" y="245.350657" style="fill: #ff9500; stroke: #ff9500"/>
    </g>
   </g>
   <g id="Poly3DCollection_1">
    <path d="M 186.487821 142.091467 
L 185.599724 141.066546 
L 186.378871 146.247933 
z
" clip-path="url(#p758f59bf5a)" style="fill: #d4dbe6"/>
    <path d="M 207.506355 108.074208 
L 208.237073 93.34335 
L 197.080117 128.369736 
z
" clip-path="url(#p758f59bf5a)" style="fill: #f5a081"/>
    <path d="M 186.487821 142.091467 
L 186.378871 146.247933 
L 189.60115 124.460526 
z
" clip-path="url(#p758f59bf5a)" style="fill: #e0dbd8"/>
    <path d="M 208.237073 93.34335 
L 203.292425 99.146826 
L 201.626576 106.702863 
z
" clip-path="url(#p758f59bf5a)" style="fill: #eb7d62"/>
    <path d="M 205.219059 98.017656 
L 203.292425 99.146826 
L 208.237073 93.34335 
z
" clip-path="url(#p758f59bf5a)" style="fill: #e67259"/>
    <path d="M 174.077586 156.171302 
L 186.378871 146.247933 
L 185.599724 141.066546 
z
" clip-path="url(#p758f59bf5a)" style="fill: #cbd8ee"/>
    <path d="M 197.080117 128.369736 
L 208.237073 93.34335 
L 200.516094 87.471389 
z
" clip-path="url(#p758f59bf5a)" style="fill: #f08a6c"/>
    <path d="M 208.254645 78.455817 
L 206.595878 91.460534 
L 206.532049 90.863799 
z
" clip-path="url(#p758f59bf5a)" style="fill: #d1493f"/>
    <path d="M 206.532049 90.863799 
L 206.228273 91.190046 
L 208.254645 78.455817 
z
" clip-path="url(#p758f59bf5a)" style="fill: #d0473d"/>
    <path d="M 208.237073 93.34335 
L 208.254645 78.455817 
L 205.219059 98.017656 
z
" clip-path="url(#p758f59bf5a)" style="fill: #d85646"/>
    <path d="M 208.254645 78.455817 
L 205.390951 88.034025 
L 205.219059 98.017656 
z
" clip-path="url(#p758f59bf5a)" style="fill: #d44e41"/>
    <path d="M 206.86 83.978936 
L 206.595878 91.460534 
L 208.254645 78.455817 
z
" clip-path="url(#p758f59bf5a)" style="fill: #ca3b37"/>
    <path d="M 197.080117 128.369736 
L 193.610746 91.264905 
L 207.506355 108.074208 
z
" clip-path="url(#p758f59bf5a)" style="fill: #f59c7d"/>
    <path d="M 201.626576 106.702863 
L 200.516094 87.471389 
L 208.237073 93.34335 
z
" clip-path="url(#p758f59bf5a)" style="fill: #e36c55"/>
    <path d="M 206.228273 91.190046 
L 205.390951 88.034025 
L 208.254645 78.455817 
z
" clip-path="url(#p758f59bf5a)" style="fill: #cd423b"/>
    <path d="M 208.237073 93.34335 
L 208.816827 89.99777 
L 208.254645 78.455817 
z
" clip-path="url(#p758f59bf5a)" style="fill: #d0473d"/>
    <path d="M 207.746892 80.211371 
L 206.86 83.978936 
L 208.254645 78.455817 
z
" clip-path="url(#p758f59bf5a)" style="fill: #be242e"/>
    <path d="M 186.378871 146.247933 
L 212.52567 91.264769 
L 207.506355 108.074208 
z
" clip-path="url(#p758f59bf5a)" style="fill: #f7ad90"/>
    <path d="M 207.746892 80.211371 
L 208.254645 78.455817 
L 207.86307 79.454794 
z
" clip-path="url(#p758f59bf5a)" style="fill: #ba162b"/>
    <path d="M 210.640088 78.018883 
L 208.237073 93.34335 
L 207.506355 108.074208 
z
" clip-path="url(#p758f59bf5a)" style="fill: #de614d"/>
    <path d="M 186.378871 146.247933 
L 174.077586 156.171302 
L 169.022152 163.518839 
z
" clip-path="url(#p758f59bf5a)" style="fill: #bbd1f8"/>
    <path d="M 189.60115 124.460526 
L 186.378871 146.247933 
L 193.610746 91.264905 
z
" clip-path="url(#p758f59bf5a)" style="fill: #f7ba9f"/>
    <path d="M 208.816827 89.99777 
L 208.237073 93.34335 
L 210.640088 78.018883 
z
" clip-path="url(#p758f59bf5a)" style="fill: #cf453c"/>
    <path d="M 207.506355 108.074208 
L 193.610746 91.264905 
L 186.378871 146.247933 
z
" clip-path="url(#p758f59bf5a)" style="fill: #f7ac8e"/>
    <path d="M 208.254645 78.455817 
L 208.816827 89.99777 
L 210.640088 78.018883 
z
" clip-path="url(#p758f59bf5a)" style="fill: #c12b30"/>
    <path d="M 207.506355 108.074208 
L 210.9918 95.868279 
L 210.640088 78.018883 
z
" clip-path="url(#p758f59bf5a)" style="fill: #df634e"/>
    <path d="M 212.52567 91.264769 
L 210.9918 95.868279 
L 207.506355 108.074208 
z
" clip-path="url(#p758f59bf5a)" style="fill: #e7745b"/>
    <path d="M 208.254645 78.455817 
L 210.640088 78.018883 
L 207.86307 79.454794 
z
" clip-path="url(#p758f59bf5a)" style="fill: #b70d28"/>
    <path d="M 169.022152 163.518839 
L 174.077586 156.171302 
L 171.512348 156.540884 
z
" clip-path="url(#p758f59bf5a)" style="fill: #b2ccfb"/>
    <path d="M 171.512348 156.540884 
L 171.139242 157.95973 
L 169.022152 163.518839 
z
" clip-path="url(#p758f59bf5a)" style="fill: #b2ccfb"/>
    <path d="M 210.9918 95.868279 
L 212.52567 91.264769 
L 210.640088 78.018883 
z
" clip-path="url(#p758f59bf5a)" style="fill: #d0473d"/>
    <path d="M 171.139242 157.95973 
L 165.296296 159.912279 
L 169.022152 163.518839 
z
" clip-path="url(#p758f59bf5a)" style="fill: #afcafc"/>
    <path d="M 212.52567 91.264769 
L 186.378871 146.247933 
L 217.141746 81.379907 
z
" clip-path="url(#p758f59bf5a)" style="fill: #f18d6f"/>
    <path d="M 169.022152 163.518839 
L 217.141746 81.379907 
L 186.378871 146.247933 
z
" clip-path="url(#p758f59bf5a)" style="fill: #f1cdba"/>
    <path d="M 165.296296 159.912279 
L 158.684694 168.437653 
L 169.022152 163.518839 
z
" clip-path="url(#p758f59bf5a)" style="fill: #a7c5fe"/>
    <path d="M 217.141746 81.379907 
L 210.640088 78.018883 
L 212.52567 91.264769 
z
" clip-path="url(#p758f59bf5a)" style="fill: #c12b30"/>
    <path d="M 169.022152 163.518839 
L 158.684694 168.437653 
L 152.196182 173.752996 
z
" clip-path="url(#p758f59bf5a)" style="fill: #9dbdff"/>
    <path d="M 152.196182 173.752996 
L 146.392431 179.123658 
L 169.022152 163.518839 
z
" clip-path="url(#p758f59bf5a)" style="fill: #94b6ff"/>
    <path d="M 169.022152 163.518839 
L 146.392431 179.123658 
L 124.094988 195.338171 
z
" clip-path="url(#p758f59bf5a)" style="fill: #86a9fc"/>
    <path d="M 119.059415 194.680383 
L 124.094988 195.338171 
L 146.392431 179.123658 
z
" clip-path="url(#p758f59bf5a)" style="fill: #7093f3"/>
    <path d="M 124.094988 195.338171 
L 119.059415 194.680383 
L 118.989047 195.862195 
z
" clip-path="url(#p758f59bf5a)" style="fill: #6687ed"/>
    <path d="M 124.094988 195.338171 
L 118.989047 195.862195 
L 112.179573 199.190023 
z
" clip-path="url(#p758f59bf5a)" style="fill: #6384eb"/>
    <path d="M 112.179573 199.190023 
L 112.118897 200.446129 
L 124.094988 195.338171 
z
" clip-path="url(#p758f59bf5a)" style="fill: #6180e9"/>
    <path d="M 169.022152 163.518839 
L 149.907451 219.232345 
L 217.141746 81.379907 
z
" clip-path="url(#p758f59bf5a)" style="fill: #d7dce3"/>
    <path d="M 124.094988 195.338171 
L 112.118897 200.446129 
L 104.453018 171.236055 
z
" clip-path="url(#p758f59bf5a)" style="fill: #7ea1fa"/>
    <path d="M 104.453018 171.236055 
L 103.500383 205.067194 
L 124.094988 195.338171 
z
" clip-path="url(#p758f59bf5a)" style="fill: #7b9ff9"/>
    <path d="M 103.500383 205.067194 
L 83.251086 216.586067 
L 124.094988 195.338171 
z
" clip-path="url(#p758f59bf5a)" style="fill: #5572df"/>
    <path d="M 124.094988 195.338171 
L 149.907451 219.232345 
L 169.022152 163.518839 
z
" clip-path="url(#p758f59bf5a)" style="fill: #799cf8"/>
    <path d="M 83.251086 216.586067 
L 103.500383 205.067194 
L 95.250556 205.03106 
z
" clip-path="url(#p758f59bf5a)" style="fill: #516ddb"/>
    <path d="M 95.250556 205.03106 
L 83.258995 214.738821 
L 83.251086 216.586067 
z
" clip-path="url(#p758f59bf5a)" style="fill: #4c66d6"/>
    <path d="M 83.251086 216.586067 
L 83.258995 214.738821 
L 81.453366 215.731325 
z
" clip-path="url(#p758f59bf5a)" style="fill: #455cce"/>
    <path d="M 217.141746 81.379907 
L 200.171294 190.61705 
L 261.407012 126.950129 
z
" clip-path="url(#p758f59bf5a)" style="fill: #f7b396"/>
    <path d="M 81.453366 215.731325 
L 75.985054 217.88335 
L 83.251086 216.586067 
z
" clip-path="url(#p758f59bf5a)" style="fill: #445acc"/>
    <path d="M 75.985054 217.88335 
L 71.603558 219.326271 
L 83.251086 216.586067 
z
" clip-path="url(#p758f59bf5a)" style="fill: #4358cb"/>
    <path d="M 261.407012 126.950129 
L 268.803456 120.104353 
L 217.141746 81.379907 
z
" clip-path="url(#p758f59bf5a)" style="fill: #df634e"/>
    <path d="M 200.171294 190.61705 
L 217.141746 81.379907 
L 149.907451 219.232345 
z
" clip-path="url(#p758f59bf5a)" style="fill: #d2dbe8"/>
    <path d="M 83.251086 216.586067 
L 71.603558 219.326271 
L 61.900468 224.700712 
z
" clip-path="url(#p758f59bf5a)" style="fill: #4055c8"/>
    <path d="M 83.251086 216.586067 
L 61.900468 224.700712 
L 60.233484 226.359344 
z
" clip-path="url(#p758f59bf5a)" style="fill: #3d50c3"/>
    <path d="M 83.251086 216.586067 
L 60.233484 226.359344 
L 59.030239 227.219845 
z
" clip-path="url(#p758f59bf5a)" style="fill: #3b4cc0"/>
    <path d="M 59.030239 227.219845 
L 59.018585 227.222592 
L 83.251086 216.586067 
z
" clip-path="url(#p758f59bf5a)" style="fill: #3b4cc0"/>
    <path d="M 83.251086 216.586067 
L 59.018585 227.222592 
L 57.761393 227.51894 
z
" clip-path="url(#p758f59bf5a)" style="fill: #3b4cc0"/>
    <path d="M 83.251086 216.586067 
L 57.761393 227.51894 
L 57.707915 227.531546 
z
" clip-path="url(#p758f59bf5a)" style="fill: #3b4cc0"/>
    <path d="M 57.707915 227.531546 
L 57.685118 227.53692 
L 83.251086 216.586067 
z
" clip-path="url(#p758f59bf5a)" style="fill: #3b4cc0"/>
    <path d="M 57.685118 227.53692 
L 57.507519 227.578784 
L 83.251086 216.586067 
z
" clip-path="url(#p758f59bf5a)" style="fill: #3b4cc0"/>
    <path d="M 217.141746 81.379907 
L 268.803456 120.104353 
L 274.537458 114.963586 
z
" clip-path="url(#p758f59bf5a)" style="fill: #d44e41"/>
    <path d="M 57.393974 227.605549 
L 83.251086 216.586067 
L 57.507519 227.578784 
z
" clip-path="url(#p758f59bf5a)" style="fill: #3b4cc0"/>
    <path d="M 91.608295 245.350657 
L 124.094988 195.338171 
L 83.251086 216.586067 
z
" clip-path="url(#p758f59bf5a)" style="fill: #4a63d3"/>
    <path d="M 229.861557 175.219727 
L 261.407012 126.950129 
L 200.171294 190.61705 
z
" clip-path="url(#p758f59bf5a)" style="fill: #d8dce2"/>
    <path d="M 229.861557 175.219727 
L 261.520105 157.703537 
L 261.407012 126.950129 
z
" clip-path="url(#p758f59bf5a)" style="fill: #edd1c2"/>
    <path d="M 268.803456 120.104353 
L 261.407012 126.950129 
L 261.520105 157.703537 
z
" clip-path="url(#p758f59bf5a)" style="fill: #f6a586"/>
    <path d="M 124.094988 195.338171 
L 91.608295 245.350657 
L 149.907451 219.232345 
z
" clip-path="url(#p758f59bf5a)" style="fill: #516ddb"/>
    <path d="M 57.393974 227.605549 
L 91.608295 245.350657 
L 83.251086 216.586067 
z
" clip-path="url(#p758f59bf5a)" style="fill: #3b4cc0"/>
    <path d="M 261.520105 157.703537 
L 274.537458 114.963586 
L 268.803456 120.104353 
z
" clip-path="url(#p758f59bf5a)" style="fill: #f39475"/>
    <path d="M 323.089082 106.78057 
L 217.141746 81.379907 
L 274.537458 114.963586 
z
" clip-path="url(#p758f59bf5a)" style="fill: #b40426"/>
    <path d="M 229.861557 175.219727 
L 200.171294 190.61705 
L 130.729295 242.716216 
z
" clip-path="url(#p758f59bf5a)" style="fill: #88abfd"/>
    <path d="M 130.729295 242.716216 
L 261.520105 157.703537 
L 229.861557 175.219727 
z
" clip-path="url(#p758f59bf5a)" style="fill: #a7c5fe"/>
    <path d="M 200.171294 190.61705 
L 149.907451 219.232345 
L 130.729295 242.716216 
z
" clip-path="url(#p758f59bf5a)" style="fill: #6687ed"/>
    <path d="M 323.089082 106.78057 
L 274.537458 114.963586 
L 261.520105 157.703537 
z
" clip-path="url(#p758f59bf5a)" style="fill: #e36b54"/>
    <path d="M 130.729295 242.716216 
L 149.907451 219.232345 
L 91.608295 245.350657 
z
" clip-path="url(#p758f59bf5a)" style="fill: #465ecf"/>
    <path d="M 130.729295 242.716216 
L 119.787873 259.905595 
L 261.520105 157.703537 
z
" clip-path="url(#p758f59bf5a)" style="fill: #779af7"/>
    <path d="M 261.520105 157.703537 
L 119.787873 259.905595 
L 323.089082 106.78057 
z
" clip-path="url(#p758f59bf5a)" style="fill: #e9d5cb"/>
    <path d="M 91.608295 245.350657 
L 119.787873 259.905595 
L 130.729295 242.716216 
z
" clip-path="url(#p758f59bf5a)" style="fill: #3b4cc0"/>
   </g>
   <g id="legend_1">
    <g id="patch_6">
     <path d="M 254.815386 19.6 
L 274.815386 19.6 
L 274.815386 12.6 
L 254.815386 12.6 
z
" style="fill: #e36b54"/>
    </g>
    <g id="text_23">
     <!-- Pareto front -->
     <g transform="translate(282.815386 19.6) scale(0.1 -0.1)">
      <defs>
       <path id="CMR17-50" d="M 1267 2042 
L 2291 2042 
C 3117 2042 3718 2578 3718 3184 
C 3718 3791 3130 4352 2291 4352 
L 333 4352 
L 333 4186 
C 774 4186 845 4186 845 3899 
L 845 446 
C 845 160 774 160 333 160 
L 333 0 
C 518 0 858 0 1056 0 
C 1254 0 1594 0 1779 0 
L 1779 160 
C 1338 160 1267 160 1267 446 
L 1267 2042 
z
M 1254 2176 
L 1254 3938 
C 1254 4155 1267 4186 1523 4186 
L 2170 4186 
C 2995 4186 3232 3714 3232 3184 
C 3232 2604 2950 2176 2170 2176 
L 1254 2176 
z
" transform="scale(0.015625)"/>
       <path id="CMR17-66" d="M 979 2560 
L 1709 2560 
L 1709 2725 
L 966 2725 
L 966 3494 
C 966 4022 1235 4352 1510 4352 
C 1594 4352 1690 4327 1754 4282 
C 1702 4269 1568 4225 1568 4067 
C 1568 3901 1696 3850 1786 3850 
C 1875 3850 2003 3901 2003 4067 
C 2003 4308 1773 4454 1517 4454 
C 1152 4454 653 4156 653 3481 
L 653 2725 
L 141 2725 
L 141 2560 
L 653 2560 
L 653 427 
C 653 184 627 153 218 153 
L 218 -13 
C 371 0 666 0 832 0 
C 1018 0 1344 0 1517 -13 
L 1517 153 
C 1056 153 979 153 979 439 
L 979 2560 
z
" transform="scale(0.015625)"/>
      </defs>
      <use xlink:href="#CMR17-50" transform="scale(0.996264)"/>
      <use xlink:href="#CMR17-61" transform="translate(59.983847 0) scale(0.996264)"/>
      <use xlink:href="#CMR17-72" transform="translate(105.674324 0) scale(0.996264)"/>
      <use xlink:href="#CMR17-65" transform="translate(140.955092 0) scale(0.996264)"/>
      <use xlink:href="#CMR17-74" transform="translate(181.440752 0) scale(0.996264)"/>
      <use xlink:href="#CMR17-6f" transform="translate(216.72152 0) scale(0.996264)"/>
      <use xlink:href="#CMR17-66" transform="translate(292.487963 0) scale(0.996264)"/>
      <use xlink:href="#CMR17-72" transform="translate(319.961476 0) scale(0.996264)"/>
      <use xlink:href="#CMR17-6f" transform="translate(355.242243 0) scale(0.996264)"/>
      <use xlink:href="#CMR17-6e" transform="translate(400.932721 0) scale(0.996264)"/>
      <use xlink:href="#CMR17-74" transform="translate(449.225636 0) scale(0.996264)"/>
     </g>
    </g>
    <g id="Path3DCollection_3">
     <g>
      <use xlink:href="#mbac00cf183" x="264.815386" y="32.293012" style="fill: #0c5da5; stroke: #0c5da5"/>
     </g>
    </g>
    <g id="text_24">
     <!-- $w=(0,\, 1,\, 0)^T$ -->
     <g transform="translate(282.815386 34.918012) scale(0.1 -0.1)">
      <defs>
       <path id="CMMI12-77" d="M 2202 390 
C 2342 6 2739 -64 2982 -64 
C 3469 -64 3757 358 3936 798 
C 4083 1169 4320 2012 4320 2389 
C 4320 2778 4122 2816 4064 2816 
C 3910 2816 3770 2663 3770 2535 
C 3770 2459 3814 2414 3846 2389 
C 3904 2331 4070 2159 4070 1827 
C 4070 1609 3891 1009 3757 709 
C 3578 319 3341 64 3008 64 
C 2650 64 2534 332 2534 626 
C 2534 811 2592 1035 2618 1143 
L 2886 2216 
C 2918 2344 2976 2567 2976 2593 
C 2976 2689 2899 2753 2803 2753 
C 2618 2753 2573 2593 2534 2440 
C 2470 2191 2202 1111 2176 971 
C 2150 862 2150 792 2150 651 
C 2150 498 1946 255 1939 243 
C 1869 172 1766 64 1568 64 
C 1062 64 1062 543 1062 651 
C 1062 856 1107 1137 1395 1897 
C 1472 2095 1504 2178 1504 2305 
C 1504 2574 1312 2816 998 2816 
C 410 2816 173 1890 173 1839 
C 173 1814 198 1782 243 1782 
C 301 1782 307 1807 333 1896 
C 493 2454 742 2682 979 2682 
C 1043 2682 1146 2682 1146 2478 
C 1146 2446 1146 2312 1037 2031 
C 736 1233 672 971 672 728 
C 672 57 1222 -64 1549 -64 
C 1658 -64 1946 -64 2202 390 
z
" transform="scale(0.015625)"/>
       <path id="CMR17-3d" d="M 4115 2017 
C 4211 2017 4307 2017 4307 2125 
C 4307 2240 4198 2240 4090 2240 
L 512 2240 
C 403 2240 294 2240 294 2125 
C 294 2017 390 2017 486 2017 
L 4115 2017 
z
M 4090 896 
C 4198 896 4307 896 4307 1011 
C 4307 1119 4211 1119 4115 1119 
L 486 1119 
C 390 1119 294 1119 294 1011 
C 294 896 403 896 512 896 
L 4090 896 
z
" transform="scale(0.015625)"/>
       <path id="CMR17-28" d="M 1958 -1561 
C 1958 -1555 1958 -1542 1939 -1523 
C 1645 -1224 858 -407 858 1581 
C 858 3569 1632 4379 1946 4697 
C 1946 4704 1958 4717 1958 4736 
C 1958 4755 1939 4768 1914 4768 
C 1843 4768 1299 4296 986 3594 
C 666 2887 576 2199 576 1588 
C 576 1128 621 351 1005 -471 
C 1312 -1135 1837 -1600 1914 -1600 
C 1946 -1600 1958 -1587 1958 -1561 
z
" transform="scale(0.015625)"/>
       <path id="CMMI12-3b" d="M 1248 -31 
C 1248 343 1126 619 864 619 
C 659 619 557 453 557 313 
C 557 172 653 0 870 0 
C 954 0 1024 26 1082 83 
C 1094 96 1101 96 1107 96 
C 1120 96 1120 5 1120 -27 
C 1120 -240 1082 -659 710 -1080 
C 640 -1157 640 -1170 640 -1183 
C 640 -1216 672 -1248 704 -1248 
C 755 -1248 1248 -771 1248 -31 
z
" transform="scale(0.015625)"/>
       <path id="CMR17-29" d="M 1683 1581 
C 1683 2040 1638 2817 1254 3639 
C 947 4303 422 4768 346 4768 
C 326 4768 301 4761 301 4729 
C 301 4717 307 4710 314 4697 
C 621 4378 1402 3568 1402 1584 
C 1402 -407 627 -1217 314 -1537 
C 307 -1549 301 -1556 301 -1568 
C 301 -1600 326 -1600 346 -1600 
C 416 -1600 960 -1128 1274 -426 
C 1594 281 1683 969 1683 1581 
z
" transform="scale(0.015625)"/>
       <path id="CMMI12-54" d="M 2669 3910 
C 2707 4064 2720 4121 2816 4147 
C 2867 4160 3078 4160 3213 4160 
C 3853 4160 4154 4134 4154 3634 
C 4154 3537 4128 3295 4090 3057 
L 4083 2980 
C 4083 2954 4109 2916 4147 2916 
C 4211 2916 4211 2948 4230 3050 
L 4416 4184 
C 4429 4243 4429 4256 4429 4275 
C 4429 4345 4390 4345 4262 4345 
L 762 4345 
C 614 4345 608 4339 570 4224 
L 179 3070 
C 173 3056 154 2986 154 2980 
C 154 2948 179 2916 218 2916 
C 269 2916 282 2941 307 3024 
C 576 3801 710 4160 1562 4160 
L 1990 4160 
C 2144 4160 2208 4160 2208 4089 
C 2208 4069 2208 4057 2176 3941 
L 1318 499 
C 1254 249 1242 185 563 185 
C 403 185 358 185 358 64 
C 358 0 429 0 461 0 
C 621 0 787 0 947 0 
L 1946 0 
C 2106 0 2278 0 2438 0 
C 2509 0 2573 0 2573 121 
C 2573 185 2528 185 2362 185 
C 1786 185 1786 243 1786 339 
C 1786 346 1786 391 1811 494 
L 2669 3910 
z
" transform="scale(0.015625)"/>
      </defs>
      <use xlink:href="#CMMI12-77" transform="scale(0.996264)"/>
      <use xlink:href="#CMR17-3d" transform="translate(100.086924 0) scale(0.996264)"/>
      <use xlink:href="#CMR17-28" transform="translate(199.475721 0) scale(0.996264)"/>
      <use xlink:href="#CMR17-30" transform="translate(234.756489 0) scale(0.996264)"/>
      <use xlink:href="#CMMI12-3b" transform="translate(280.446966 0) scale(0.996264)"/>
      <use xlink:href="#CMR17-31" transform="translate(340.752953 0) scale(0.996264)"/>
      <use xlink:href="#CMMI12-3b" transform="translate(386.443431 0) scale(0.996264)"/>
      <use xlink:href="#CMR17-30" transform="translate(446.749418 0) scale(0.996264)"/>
      <use xlink:href="#CMR17-29" transform="translate(492.439895 0) scale(0.996264)"/>
      <use xlink:href="#CMMI12-54" transform="translate(527.720663 36.153639) scale(0.697382)"/>
     </g>
    </g>
    <g id="Path3DCollection_4">
     <defs>
      <path id="m7b4cba12d6" d="M 0 2.236068 
C 0.593012 2.236068 1.161816 2.000462 1.581139 1.581139 
C 2.000462 1.161816 2.236068 0.593012 2.236068 0 
C 2.236068 -0.593012 2.000462 -1.161816 1.581139 -1.581139 
C 1.161816 -2.000462 0.593012 -2.236068 0 -2.236068 
C -0.593012 -2.236068 -1.161816 -2.000462 -1.581139 -1.581139 
C -2.000462 -1.161816 -2.236068 -0.593012 -2.236068 0 
C -2.236068 0.593012 -2.000462 1.161816 -1.581139 1.581139 
C -1.161816 2.000462 -0.593012 2.236068 0 2.236068 
z
" style="stroke: #00b945"/>
     </defs>
     <g>
      <use xlink:href="#m7b4cba12d6" x="264.815386" y="48.164506" style="fill: #00b945; stroke: #00b945"/>
     </g>
    </g>
    <g id="text_25">
     <!-- $w=(0,\, 0,\, 1)^T$ -->
     <g transform="translate(282.815386 50.789506) scale(0.1 -0.1)">
      <use xlink:href="#CMMI12-77" transform="scale(0.996264)"/>
      <use xlink:href="#CMR17-3d" transform="translate(100.086924 0) scale(0.996264)"/>
      <use xlink:href="#CMR17-28" transform="translate(199.475721 0) scale(0.996264)"/>
      <use xlink:href="#CMR17-30" transform="translate(234.756489 0) scale(0.996264)"/>
      <use xlink:href="#CMMI12-3b" transform="translate(280.446966 0) scale(0.996264)"/>
      <use xlink:href="#CMR17-30" transform="translate(340.752953 0) scale(0.996264)"/>
      <use xlink:href="#CMMI12-3b" transform="translate(386.443431 0) scale(0.996264)"/>
      <use xlink:href="#CMR17-31" transform="translate(446.749418 0) scale(0.996264)"/>
      <use xlink:href="#CMR17-29" transform="translate(492.439895 0) scale(0.996264)"/>
      <use xlink:href="#CMMI12-54" transform="translate(527.720663 36.153639) scale(0.697382)"/>
     </g>
    </g>
    <g id="Path3DCollection_5">
     <g>
      <use xlink:href="#m899c0d0f69" x="264.815386" y="64.036" style="fill: #ff9500; stroke: #ff9500"/>
     </g>
    </g>
    <g id="text_26">
     <!-- $w=(1,\, 0,\, 0)^T$ -->
     <g transform="translate(282.815386 66.661) scale(0.1 -0.1)">
      <use xlink:href="#CMMI12-77" transform="scale(0.996264)"/>
      <use xlink:href="#CMR17-3d" transform="translate(100.086924 0) scale(0.996264)"/>
      <use xlink:href="#CMR17-28" transform="translate(199.475721 0) scale(0.996264)"/>
      <use xlink:href="#CMR17-31" transform="translate(234.756489 0) scale(0.996264)"/>
      <use xlink:href="#CMMI12-3b" transform="translate(280.446966 0) scale(0.996264)"/>
      <use xlink:href="#CMR17-30" transform="translate(340.752953 0) scale(0.996264)"/>
      <use xlink:href="#CMMI12-3b" transform="translate(386.443431 0) scale(0.996264)"/>
      <use xlink:href="#CMR17-30" transform="translate(446.749418 0) scale(0.996264)"/>
      <use xlink:href="#CMR17-29" transform="translate(492.439895 0) scale(0.996264)"/>
      <use xlink:href="#CMMI12-54" transform="translate(527.720663 36.153639) scale(0.697382)"/>
     </g>
    </g>
   </g>
   <g id="Path3DCollection_6">
    <g clip-path="url(#p758f59bf5a)">
     <use xlink:href="#m7b4cba12d6" x="323.089082" y="106.78057" style="fill: #00b945; stroke: #00b945"/>
    </g>
   </g>
  </g>
 </g>
 <defs>
  <clipPath id="p758f59bf5a">
   <rect x="12.78128" y="3.6" width="339.2928" height="339.2928"/>
  </clipPath>
 </defs>
</svg>
