<?xml version="1.0" encoding="utf-8" standalone="no"?>
<!DOCTYPE svg PUBLIC "-//W3C//DTD SVG 1.1//EN"
  "http://www.w3.org/Graphics/SVG/1.1/DTD/svg11.dtd">
<svg xmlns:xlink="http://www.w3.org/1999/xlink" width="142.904525pt" height="139.683179pt" viewBox="0 0 142.904525 139.683179" xmlns="http://www.w3.org/2000/svg" version="1.1">
 <metadata>
  <rdf:RDF xmlns:dc="http://purl.org/dc/elements/1.1/" xmlns:cc="http://creativecommons.org/ns#" xmlns:rdf="http://www.w3.org/1999/02/22-rdf-syntax-ns#">
   <cc:Work>
    <dc:type rdf:resource="http://purl.org/dc/dcmitype/StillImage"/>
    <dc:date>2025-11-08T16:46:53.311837</dc:date>
    <dc:format>image/svg+xml</dc:format>
    <dc:creator>
     <cc:Agent>
      <dc:title>Matplotlib v3.9.4, https://matplotlib.org/</dc:title>
     </cc:Agent>
    </dc:creator>
   </cc:Work>
  </rdf:RDF>
 </metadata>
 <defs>
  <style type="text/css">*{stroke-linejoin: round; stroke-linecap: butt}</style>
 </defs>
 <g id="figure_1">
  <g id="patch_1">
   <path d="M 0 139.683179 
L 142.904525 139.683179 
L 142.904525 0 
L 0 0 
z
" style="fill: #ffffff"/>
  </g>
  <g id="patch_2">
   <path d="M 3.6 121.637174 
L 121.637174 121.637174 
L 121.637174 3.6 
L 3.6 3.6 
z
" style="fill: #ffffff"/>
  </g>
  <g id="pane3d_1">
   <g id="patch_3">
    <path d="M 12.512621 92.53299 
L 51.49235 59.859407 
L 50.950495 12.738261 
L 10.105384 42.545162 
" style="fill: #f2f2f2; opacity: 0.5; stroke: #f2f2f2; stroke-linejoin: miter"/>
   </g>
  </g>
  <g id="pane3d_2">
   <g id="patch_4">
    <path d="M 51.49235 59.859407 
L 114.040908 78.039804 
L 116.273046 29.295623 
L 50.950495 12.738261 
" style="fill: #e6e6e6; opacity: 0.5; stroke: #e6e6e6; stroke-linejoin: miter"/>
   </g>
  </g>
  <g id="pane3d_3">
   <g id="patch_5">
    <path d="M 12.512621 92.53299 
L 78.817147 114.188048 
L 114.040908 78.039804 
L 51.49235 59.859407 
" style="fill: #ececec; opacity: 0.5; stroke: #ececec; stroke-linejoin: miter"/>
   </g>
  </g>
  <g id="grid3d_1">
   <g id="Line3DCollection_1">
    <path d="M 34.138801 99.5961 
L 71.954207 65.806861 
L 72.28948 18.147071 
" style="fill: none; stroke: #b0b0b0; stroke-width: 0.5"/>
    <path d="M 63.947687 109.331682 
L 100.061746 73.976613 
L 101.64997 25.5891 
" style="fill: none; stroke: #b0b0b0; stroke-width: 0.5"/>
    <path d="M 16.912841 93.970101 
L 55.660453 61.07091 
L 55.294881 13.839436 
" style="fill: none; stroke: #b0b0b0; stroke-width: 0.5"/>
    <path d="M 22.60166 95.82807 
L 61.045555 62.636147 
L 60.909547 15.26259 
" style="fill: none; stroke: #b0b0b0; stroke-width: 0.5"/>
    <path d="M 28.3434 97.703322 
L 66.476609 64.21474 
L 66.57419 16.698412 
" style="fill: none; stroke: #b0b0b0; stroke-width: 0.5"/>
    <path d="M 39.988619 101.506651 
L 77.478949 67.412686 
L 78.056101 19.608742 
" style="fill: none; stroke: #b0b0b0; stroke-width: 0.5"/>
    <path d="M 45.893625 103.435225 
L 83.051447 69.032391 
L 83.874747 21.083599 
" style="fill: none; stroke: #b0b0b0; stroke-width: 0.5"/>
    <path d="M 51.854602 105.382081 
L 88.672322 70.666157 
L 89.746125 22.571822 
" style="fill: none; stroke: #b0b0b0; stroke-width: 0.5"/>
    <path d="M 57.872352 107.347478 
L 94.342207 72.314169 
L 95.670954 24.073593 
" style="fill: none; stroke: #b0b0b0; stroke-width: 0.5"/>
    <path d="M 70.08144 111.334966 
L 105.831594 75.65368 
L 107.683917 27.118529 
" style="fill: none; stroke: #b0b0b0; stroke-width: 0.5"/>
    <path d="M 76.274457 113.357605 
L 111.652418 77.345564 
L 113.773557 28.662076 
" style="fill: none; stroke: #b0b0b0; stroke-width: 0.5"/>
   </g>
  </g>
  <g id="grid3d_2">
   <g id="Line3DCollection_2">
    <path d="M 10.627267 42.164316 
L 13.008806 92.117077 
L 79.26748 113.725896 
" style="fill: none; stroke: #b0b0b0; stroke-width: 0.5"/>
    <path d="M 33.21225 25.682824 
L 34.527831 74.079403 
L 98.749254 93.732803 
" style="fill: none; stroke: #b0b0b0; stroke-width: 0.5"/>
    <path d="M 15.321345 38.738791 
L 17.473906 88.374341 
L 83.317681 109.569393 
" style="fill: none; stroke: #b0b0b0; stroke-width: 0.5"/>
    <path d="M 19.924305 35.379761 
L 21.856114 84.701088 
L 87.288704 105.494147 
" style="fill: none; stroke: #b0b0b0; stroke-width: 0.5"/>
    <path d="M 24.438773 32.085308 
L 26.157714 81.095402 
L 91.182847 101.497798 
" style="fill: none; stroke: #b0b0b0; stroke-width: 0.5"/>
    <path d="M 28.867277 28.853587 
L 30.380912 77.555433 
L 95.002321 97.578078 
" style="fill: none; stroke: #b0b0b0; stroke-width: 0.5"/>
    <path d="M 37.476032 22.57131 
L 38.60052 70.665595 
L 102.425693 89.959872 
" style="fill: none; stroke: #b0b0b0; stroke-width: 0.5"/>
    <path d="M 41.660879 19.517399 
L 42.600954 67.312352 
L 106.033609 86.257263 
" style="fill: none; stroke: #b0b0b0; stroke-width: 0.5"/>
    <path d="M 45.768962 16.519507 
L 46.531039 64.018077 
L 109.5749 82.623027 
" style="fill: none; stroke: #b0b0b0; stroke-width: 0.5"/>
    <path d="M 49.802374 13.576106 
L 50.392613 60.781228 
L 113.051394 79.055289 
" style="fill: none; stroke: #b0b0b0; stroke-width: 0.5"/>
   </g>
  </g>
  <g id="grid3d_3">
   <g id="Line3DCollection_3">
    <path d="M 114.264092 73.166035 
L 51.438069 55.138961 
L 12.272294 87.542453 
" style="fill: none; stroke: #b0b0b0; stroke-width: 0.5"/>
    <path d="M 114.919241 58.859262 
L 51.27886 41.293774 
L 11.566356 72.883192 
" style="fill: none; stroke: #b0b0b0; stroke-width: 0.5"/>
    <path d="M 115.591769 44.172977 
L 51.115634 27.099158 
L 10.840965 57.819972 
" style="fill: none; stroke: #b0b0b0; stroke-width: 0.5"/>
   </g>
  </g>
  <g id="axis3d_1">
   <g id="line2d_1">
    <path d="M 12.512621 92.53299 
L 78.817147 114.188048 
" style="fill: none; stroke: #000000; stroke-width: 0.5; stroke-linecap: square"/>
   </g>
   <g id="xtick_1">
    <g id="line2d_2">
     <path d="M 34.468479 99.301522 
L 33.47801 100.186537 
" style="fill: none; stroke: #000000; stroke-width: 0.5; stroke-linecap: square"/>
    </g>
    <g id="text_1">
     <!-- $\mathdefault{100000}$ -->
     <g transform="translate(11.671521 122.576262) scale(0.1 -0.1)">
      <defs>
       <path id="CMR17-31" d="M 1702 4058 
C 1702 4192 1696 4192 1606 4192 
C 1357 3916 979 3827 621 3827 
C 602 3827 570 3827 563 3808 
C 557 3795 557 3782 557 3648 
C 755 3648 1088 3686 1344 3839 
L 1344 461 
C 1344 236 1331 160 781 160 
L 589 160 
L 589 0 
C 896 0 1216 0 1523 0 
C 1830 0 2150 0 2458 0 
L 2458 160 
L 2266 160 
C 1715 160 1702 230 1702 458 
L 1702 4058 
z
" transform="scale(0.015625)"/>
       <path id="CMR17-30" d="M 2688 2025 
C 2688 2416 2682 3080 2413 3591 
C 2176 4039 1798 4198 1466 4198 
C 1158 4198 768 4058 525 3597 
C 269 3118 243 2524 243 2025 
C 243 1661 250 1106 448 619 
C 723 -39 1216 -128 1466 -128 
C 1760 -128 2208 -7 2470 600 
C 2662 1042 2688 1559 2688 2025 
z
M 1466 -26 
C 1056 -26 813 325 723 812 
C 653 1188 653 1738 653 2096 
C 653 2588 653 2997 736 3387 
C 858 3929 1216 4096 1466 4096 
C 1728 4096 2067 3923 2189 3400 
C 2272 3036 2278 2607 2278 2096 
C 2278 1680 2278 1169 2202 792 
C 2067 95 1690 -26 1466 -26 
z
" transform="scale(0.015625)"/>
      </defs>
      <use xlink:href="#CMR17-31" transform="scale(0.996264)"/>
      <use xlink:href="#CMR17-30" transform="translate(45.690477 0) scale(0.996264)"/>
      <use xlink:href="#CMR17-30" transform="translate(91.380954 0) scale(0.996264)"/>
      <use xlink:href="#CMR17-30" transform="translate(137.071431 0) scale(0.996264)"/>
      <use xlink:href="#CMR17-30" transform="translate(182.761908 0) scale(0.996264)"/>
      <use xlink:href="#CMR17-30" transform="translate(228.452386 0) scale(0.996264)"/>
     </g>
    </g>
   </g>
   <g id="xtick_2">
    <g id="line2d_3">
     <path d="M 64.263153 109.022847 
L 63.31535 109.95073 
" style="fill: none; stroke: #000000; stroke-width: 0.5; stroke-linecap: square"/>
    </g>
    <g id="text_2">
     <!-- $\mathdefault{200000}$ -->
     <g transform="translate(41.559605 132.784621) scale(0.1 -0.1)">
      <defs>
       <path id="CMR17-32" d="M 2669 989 
L 2554 989 
C 2490 536 2438 459 2413 420 
C 2381 369 1920 369 1830 369 
L 602 369 
C 832 619 1280 1072 1824 1597 
C 2214 1967 2669 2402 2669 3035 
C 2669 3790 2067 4224 1395 4224 
C 691 4224 262 3604 262 3030 
C 262 2780 448 2748 525 2748 
C 589 2748 781 2787 781 3010 
C 781 3207 614 3264 525 3264 
C 486 3264 448 3258 422 3245 
C 544 3790 915 4058 1306 4058 
C 1862 4058 2227 3617 2227 3035 
C 2227 2479 1901 2000 1536 1584 
L 262 146 
L 262 0 
L 2515 0 
L 2669 989 
z
" transform="scale(0.015625)"/>
      </defs>
      <use xlink:href="#CMR17-32" transform="scale(0.996264)"/>
      <use xlink:href="#CMR17-30" transform="translate(45.690477 0) scale(0.996264)"/>
      <use xlink:href="#CMR17-30" transform="translate(91.380954 0) scale(0.996264)"/>
      <use xlink:href="#CMR17-30" transform="translate(137.071431 0) scale(0.996264)"/>
      <use xlink:href="#CMR17-30" transform="translate(182.761908 0) scale(0.996264)"/>
      <use xlink:href="#CMR17-30" transform="translate(228.452386 0) scale(0.996264)"/>
     </g>
    </g>
   </g>
   <g id="xtick_3">
    <g id="line2d_4">
     <path d="M 17.250261 93.68361 
L 16.236551 94.544314 
" style="fill: none; stroke: #000000; stroke-width: 0.5; stroke-linecap: square"/>
    </g>
   </g>
   <g id="xtick_4">
    <g id="line2d_5">
     <path d="M 22.936562 95.53892 
L 21.930413 96.407616 
" style="fill: none; stroke: #000000; stroke-width: 0.5; stroke-linecap: square"/>
    </g>
   </g>
   <g id="xtick_5">
    <g id="line2d_6">
     <path d="M 28.675721 97.411477 
L 27.677317 98.288275 
" style="fill: none; stroke: #000000; stroke-width: 0.5; stroke-linecap: square"/>
    </g>
   </g>
   <g id="xtick_6">
    <g id="line2d_7">
     <path d="M 40.315589 101.209302 
L 39.333249 102.102649 
" style="fill: none; stroke: #000000; stroke-width: 0.5; stroke-linecap: square"/>
    </g>
   </g>
   <g id="xtick_7">
    <g id="line2d_8">
     <path d="M 46.217821 103.135066 
L 45.243807 104.036864 
" style="fill: none; stroke: #000000; stroke-width: 0.5; stroke-linecap: square"/>
    </g>
   </g>
   <g id="xtick_8">
    <g id="line2d_9">
     <path d="M 52.175958 105.07907 
L 51.210472 105.989439 
" style="fill: none; stroke: #000000; stroke-width: 0.5; stroke-linecap: square"/>
    </g>
   </g>
   <g id="xtick_9">
    <g id="line2d_10">
     <path d="M 58.190797 107.041575 
L 57.234047 107.960639 
" style="fill: none; stroke: #000000; stroke-width: 0.5; stroke-linecap: square"/>
    </g>
   </g>
   <g id="xtick_10">
    <g id="line2d_11">
     <path d="M 70.393853 111.023155 
L 69.455215 111.959984 
" style="fill: none; stroke: #000000; stroke-width: 0.5; stroke-linecap: square"/>
    </g>
   </g>
   <g id="xtick_11">
    <g id="line2d_12">
     <path d="M 76.583743 113.042775 
L 75.654492 113.988682 
" style="fill: none; stroke: #000000; stroke-width: 0.5; stroke-linecap: square"/>
    </g>
   </g>
   <g id="text_3">
    <!-- Time $[s]$ -->
    <g transform="translate(10.340319 135.463818) rotate(-341.912962) scale(0.1 -0.1)">
     <defs>
      <path id="CMR17-54" d="M 3981 4326 
L 288 4326 
L 179 2918 
L 294 2918 
C 378 3976 467 4160 1453 4160 
C 1568 4160 1754 4160 1805 4154 
C 1926 4135 1926 4058 1926 3912 
L 1926 459 
C 1926 230 1907 160 1376 160 
L 1197 160 
L 1197 0 
C 1504 0 1824 0 2138 0 
C 2451 0 2771 0 3078 0 
L 3078 160 
L 2899 160 
C 2368 160 2349 230 2349 459 
L 2349 3912 
C 2349 4052 2349 4129 2464 4154 
C 2515 4160 2701 4160 2816 4160 
C 3795 4160 3891 3976 3974 2918 
L 4090 2918 
L 3981 4326 
z
" transform="scale(0.015625)"/>
      <path id="CMR17-69" d="M 992 3909 
C 992 4049 877 4170 730 4170 
C 589 4170 467 4056 467 3909 
C 467 3769 582 3648 730 3648 
C 870 3648 992 3763 992 3909 
z
M 243 2706 
L 243 2541 
C 602 2541 653 2502 653 2197 
L 653 427 
C 653 184 627 153 218 153 
L 218 -13 
C 371 0 646 0 806 0 
C 960 0 1222 0 1370 -13 
L 1370 153 
C 992 153 979 191 979 420 
L 979 2776 
L 243 2706 
z
" transform="scale(0.015625)"/>
      <path id="CMR17-6d" d="M 4326 1933 
C 4326 2252 4269 2790 3507 2790 
C 3072 2790 2771 2496 2656 2151 
L 2650 2151 
C 2573 2676 2195 2790 1837 2790 
C 1331 2790 1069 2400 973 2144 
L 966 2144 
L 966 2790 
L 211 2720 
L 211 2554 
C 589 2554 646 2515 646 2208 
L 646 428 
C 646 184 621 153 211 153 
L 211 -13 
C 365 0 646 0 813 0 
C 979 0 1267 0 1421 -13 
L 1421 153 
C 1011 153 986 178 986 428 
L 986 1658 
C 986 2247 1344 2688 1792 2688 
C 2266 2688 2317 2266 2317 1958 
L 2317 428 
C 2317 184 2291 153 1882 153 
L 1882 -13 
C 2035 0 2317 0 2483 0 
C 2650 0 2938 0 3091 -13 
L 3091 153 
C 2682 153 2656 178 2656 428 
L 2656 1658 
C 2656 2247 3014 2688 3462 2688 
C 3936 2688 3987 2266 3987 1958 
L 3987 428 
C 3987 184 3962 153 3552 153 
L 3552 -13 
C 3706 0 3987 0 4154 0 
C 4320 0 4608 0 4762 -13 
L 4762 153 
C 4352 153 4326 178 4326 428 
L 4326 1933 
z
" transform="scale(0.015625)"/>
      <path id="CMR17-65" d="M 2438 1472 
C 2464 1498 2464 1511 2464 1576 
C 2464 2238 2118 2816 1389 2816 
C 710 2816 173 2169 173 1383 
C 173 551 781 -64 1459 -64 
C 2176 -64 2458 607 2458 740 
C 2458 784 2419 784 2406 784 
C 2362 784 2355 771 2330 696 
C 2189 265 1837 51 1504 51 
C 1229 51 954 203 781 480 
C 582 803 582 1176 582 1472 
L 2438 1472 
z
M 589 1568 
C 634 2505 1126 2714 1382 2714 
C 1818 2714 2112 2297 2118 1568 
L 589 1568 
z
" transform="scale(0.015625)"/>
      <path id="CMR17-5b" d="M 1504 -1600 
L 1504 -1377 
L 902 -1377 
L 902 4544 
L 1504 4544 
L 1504 4767 
L 678 4767 
L 678 -1600 
L 1504 -1600 
z
" transform="scale(0.015625)"/>
      <path id="CMMI12-73" d="M 1459 1280 
C 1568 1261 1741 1223 1779 1216 
C 1862 1192 2150 1090 2150 783 
C 2150 586 1971 70 1229 70 
C 1094 70 614 70 486 436 
C 742 404 870 603 870 745 
C 870 880 781 950 653 950 
C 512 950 326 841 326 552 
C 326 173 710 -64 1222 -64 
C 2195 -64 2483 651 2483 984 
C 2483 1079 2483 1258 2278 1462 
C 2118 1616 1965 1648 1619 1718 
C 1446 1756 1171 1814 1171 2101 
C 1171 2229 1286 2689 1894 2689 
C 2163 2689 2426 2589 2490 2368 
C 2208 2368 2195 2125 2195 2119 
C 2195 1984 2317 1946 2374 1946 
C 2464 1946 2643 2015 2643 2281 
C 2643 2545 2400 2816 1901 2816 
C 1062 2816 838 2160 838 1899 
C 838 1414 1312 1312 1459 1280 
z
" transform="scale(0.015625)"/>
      <path id="CMR17-5d" d="M 915 4767 
L 90 4767 
L 90 4544 
L 691 4544 
L 691 -1377 
L 90 -1377 
L 90 -1600 
L 915 -1600 
L 915 4767 
z
" transform="scale(0.015625)"/>
     </defs>
     <use xlink:href="#CMR17-54" transform="scale(0.996264)"/>
     <use xlink:href="#CMR17-69" transform="translate(66.509881 0) scale(0.996264)"/>
     <use xlink:href="#CMR17-6d" transform="translate(91.380939 0) scale(0.996264)"/>
     <use xlink:href="#CMR17-65" transform="translate(168.300529 0) scale(0.996264)"/>
     <use xlink:href="#CMR17-5b" transform="translate(238.862156 0) scale(0.996264)"/>
     <use xlink:href="#CMMI12-73" transform="translate(263.733214 0) scale(0.996264)"/>
     <use xlink:href="#CMR17-5d" transform="translate(309.683262 0) scale(0.996264)"/>
    </g>
   </g>
  </g>
  <g id="axis3d_2">
   <g id="line2d_13">
    <path d="M 114.040908 78.039804 
L 78.817147 114.188048 
" style="fill: none; stroke: #000000; stroke-width: 0.5; stroke-linecap: square"/>
   </g>
   <g id="xtick_12">
    <g id="line2d_14">
     <path d="M 78.708979 113.543753 
L 80.385934 114.090655 
" style="fill: none; stroke: #000000; stroke-width: 0.5; stroke-linecap: square"/>
    </g>
    <g id="text_4">
     <!-- $\mathdefault{0}$ -->
     <g transform="translate(89.727241 134.146) scale(0.1 -0.1)">
      <use xlink:href="#CMR17-30" transform="scale(0.996264)"/>
     </g>
    </g>
   </g>
   <g id="xtick_13">
    <g id="line2d_15">
     <path d="M 98.209233 93.567543 
L 99.830633 94.063733 
" style="fill: none; stroke: #000000; stroke-width: 0.5; stroke-linecap: square"/>
    </g>
    <g id="text_5">
     <!-- $\mathdefault{10000}$ -->
     <g transform="translate(98.655838 113.485156) scale(0.1 -0.1)">
      <use xlink:href="#CMR17-31" transform="scale(0.996264)"/>
      <use xlink:href="#CMR17-30" transform="translate(45.690477 0) scale(0.996264)"/>
      <use xlink:href="#CMR17-30" transform="translate(91.380954 0) scale(0.996264)"/>
      <use xlink:href="#CMR17-30" transform="translate(137.071431 0) scale(0.996264)"/>
      <use xlink:href="#CMR17-30" transform="translate(182.761908 0) scale(0.996264)"/>
     </g>
    </g>
   </g>
   <g id="xtick_14">
    <g id="line2d_16">
     <path d="M 82.762956 109.390827 
L 84.42856 109.926983 
" style="fill: none; stroke: #000000; stroke-width: 0.5; stroke-linecap: square"/>
    </g>
   </g>
   <g id="xtick_15">
    <g id="line2d_17">
     <path d="M 86.737714 105.319054 
L 88.392087 105.844778 
" style="fill: none; stroke: #000000; stroke-width: 0.5; stroke-linecap: square"/>
    </g>
   </g>
   <g id="xtick_16">
    <g id="line2d_18">
     <path d="M 90.635553 101.326078 
L 92.278815 101.841671 
" style="fill: none; stroke: #000000; stroke-width: 0.5; stroke-linecap: square"/>
    </g>
   </g>
   <g id="xtick_17">
    <g id="line2d_19">
     <path d="M 94.458683 97.409634 
L 96.090955 97.915386 
" style="fill: none; stroke: #000000; stroke-width: 0.5; stroke-linecap: square"/>
    </g>
   </g>
   <g id="xtick_18">
    <g id="line2d_20">
     <path d="M 101.889249 89.797706 
L 103.499896 90.284602 
" style="fill: none; stroke: #000000; stroke-width: 0.5; stroke-linecap: square"/>
    </g>
   </g>
   <g id="xtick_19">
    <g id="line2d_21">
     <path d="M 105.500703 86.098104 
L 107.100715 86.575967 
" style="fill: none; stroke: #000000; stroke-width: 0.5; stroke-linecap: square"/>
    </g>
   </g>
   <g id="xtick_20">
    <g id="line2d_22">
     <path d="M 109.045494 82.466794 
L 110.634986 82.935871 
" style="fill: none; stroke: #000000; stroke-width: 0.5; stroke-linecap: square"/>
    </g>
   </g>
   <g id="xtick_21">
    <g id="line2d_23">
     <path d="M 112.525449 78.9019 
L 114.104537 79.362432 
" style="fill: none; stroke: #000000; stroke-width: 0.5; stroke-linecap: square"/>
    </g>
   </g>
   <g id="text_6">
    <!-- Cost [\euro] -->
    <g transform="translate(113.423517 138.019166) rotate(-45.742112) scale(0.1 -0.1)">
     <defs>
      <path id="CMR17-43" d="M 3974 4289 
C 3974 4403 3968 4410 3930 4410 
C 3904 4410 3898 4403 3853 4327 
L 3571 3792 
C 3258 4187 2874 4416 2381 4416 
C 1286 4416 294 3456 294 2148 
C 294 826 1286 -128 2387 -128 
C 3366 -128 3974 730 3974 1461 
C 3974 1524 3974 1550 3917 1550 
C 3866 1550 3866 1531 3859 1474 
C 3808 585 3168 38 2477 38 
C 1824 38 781 495 781 2147 
C 781 3805 1843 4250 2464 4250 
C 3187 4250 3712 3628 3834 2745 
C 3846 2668 3846 2655 3904 2655 
C 3974 2655 3974 2668 3974 2783 
L 3974 4289 
z
" transform="scale(0.015625)"/>
      <path id="CMR17-6f" d="M 2758 1356 
C 2758 2176 2163 2816 1466 2816 
C 768 2816 173 2176 173 1356 
C 173 551 768 -64 1466 -64 
C 2163 -64 2758 551 2758 1356 
z
M 1466 51 
C 1165 51 909 230 762 480 
C 602 767 582 1126 582 1408 
C 582 1677 595 2010 762 2298 
C 890 2509 1139 2714 1466 2714 
C 1754 2714 1997 2554 2150 2330 
C 2349 2029 2349 1607 2349 1408 
C 2349 1158 2336 775 2163 467 
C 1984 173 1709 51 1466 51 
z
" transform="scale(0.015625)"/>
      <path id="CMR17-73" d="M 1978 2697 
C 1978 2813 1971 2819 1933 2819 
C 1907 2819 1901 2813 1824 2717 
C 1805 2691 1747 2626 1728 2601 
C 1523 2819 1235 2819 1126 2819 
C 416 2819 160 2447 160 2076 
C 160 1498 813 1365 998 1325 
C 1402 1243 1542 1217 1677 1101 
C 1760 1025 1901 884 1901 654 
C 1901 384 1747 38 1158 38 
C 602 38 403 460 288 1021 
C 269 1110 269 1117 218 1117 
C 166 1117 160 1110 160 983 
L 160 63 
C 160 -51 166 -58 205 -58 
C 237 -58 243 -51 275 0 
C 314 57 410 211 448 276 
C 576 103 800 -64 1158 -64 
C 1792 -64 2131 283 2131 784 
C 2131 1112 1958 1285 1875 1362 
C 1683 1561 1459 1606 1190 1657 
C 838 1735 390 1825 390 2217 
C 390 2383 480 2737 1126 2737 
C 1811 2737 1850 2094 1862 1888 
C 1869 1856 1901 1849 1920 1849 
C 1978 1849 1978 1869 1978 1978 
L 1978 2697 
z
" transform="scale(0.015625)"/>
      <path id="CMR17-74" d="M 966 2560 
L 1862 2560 
L 1862 2725 
L 966 2725 
L 966 3904 
L 851 3904 
C 838 3245 614 2668 70 2668 
L 70 2560 
L 627 2560 
L 627 771 
C 627 650 627 -64 1370 -64 
C 1747 -64 1965 306 1965 777 
L 1965 1140 
L 1850 1140 
L 1850 783 
C 1850 344 1677 51 1408 51 
C 1222 51 966 178 966 758 
L 966 2560 
z
" transform="scale(0.015625)"/>
      <path id="TeX-feymr10-65" d="M 0 2371 
L 608 2371 
L 608 1981 
L 294 1981 
L 166 1968 
L 109 1865 
L 0 1600 
L 499 1600 
L 614 1600 
C 634 1600 653 1600 672 1581 
C 698 1549 704 1484 717 1439 
C 749 1342 787 1252 832 1162 
C 973 865 1178 606 1427 394 
C 2061 -129 2938 -265 3699 19 
C 3866 84 4026 168 4173 271 
C 4211 297 4243 323 4282 348 
C 4301 361 4326 381 4333 400 
C 4358 445 4346 516 4346 561 
L 4346 936 
C 4256 865 4186 774 4102 703 
C 3904 535 3680 413 3437 335 
C 2758 122 1997 329 1504 852 
C 1306 1065 1158 1323 1069 1600 
L 2880 1600 
L 3379 1600 
L 3520 1600 
L 3590 1607 
L 3642 1710 
L 3757 1981 
L 992 1981 
L 986 2371 
L 3098 2371 
L 3674 2371 
L 3834 2371 
L 3904 2378 
L 3962 2481 
L 4070 2752 
L 1069 2752 
C 1158 3025 1306 3279 1504 3488 
C 1875 3875 2419 4096 2957 4096 
C 3283 4096 3610 3991 3885 3815 
C 4051 3709 4218 3572 4339 3408 
C 4390 3491 4422 3601 4461 3691 
C 4474 3724 4499 3769 4493 3801 
C 4480 3840 4429 3879 4397 3904 
C 4307 3982 4211 4059 4109 4124 
C 3680 4389 3181 4518 2682 4472 
C 2003 4408 1363 4040 986 3459 
C 890 3317 813 3170 755 3009 
C 730 2958 717 2900 698 2849 
C 691 2823 685 2791 672 2772 
C 640 2739 576 2752 538 2752 
L 294 2752 
C 256 2752 211 2759 173 2746 
C 141 2733 128 2681 115 2649 
C 77 2559 32 2468 0 2371 
z
" transform="scale(0.015625)"/>
     </defs>
     <use xlink:href="#CMR17-43" transform="scale(0.996264)"/>
     <use xlink:href="#CMR17-6f" transform="translate(66.509881 0) scale(0.996264)"/>
     <use xlink:href="#CMR17-73" transform="translate(112.200358 0) scale(0.996264)"/>
     <use xlink:href="#CMR17-74" transform="translate(148.001695 0) scale(0.996264)"/>
     <use xlink:href="#CMR17-5b" transform="translate(213.358429 0) scale(0.996264)"/>
     <use xlink:href="#TeX-feymr10-65" transform="translate(238.229488 0) scale(0.996264)"/>
     <use xlink:href="#CMR17-5d" transform="translate(310.667015 0) scale(0.996264)"/>
    </g>
   </g>
  </g>
  <g id="axis3d_3">
   <g id="line2d_24">
    <path d="M 114.040908 78.039804 
L 116.273046 29.295623 
" style="fill: none; stroke: #000000; stroke-width: 0.5; stroke-linecap: square"/>
   </g>
   <g id="xtick_22">
    <g id="line2d_25">
     <path d="M 113.736699 73.014707 
L 115.32014 73.469054 
" style="fill: none; stroke: #000000; stroke-width: 0.5; stroke-linecap: square"/>
    </g>
    <g id="text_7">
     <!-- $\mathdefault{25}$ -->
     <g transform="translate(127.542389 77.510718) scale(0.1 -0.1)">
      <defs>
       <path id="CMR17-35" d="M 730 3692 
C 794 3666 1056 3584 1325 3584 
C 1920 3584 2246 3911 2432 4100 
C 2432 4157 2432 4192 2394 4192 
C 2387 4192 2374 4192 2323 4163 
C 2099 4058 1837 3973 1517 3973 
C 1325 3973 1037 3999 723 4139 
C 653 4171 640 4171 634 4171 
C 602 4171 595 4164 595 4037 
L 595 2203 
C 595 2089 595 2057 659 2057 
C 691 2057 704 2070 736 2114 
C 941 2401 1222 2522 1542 2522 
C 1766 2522 2246 2382 2246 1289 
C 2246 1085 2246 715 2054 421 
C 1894 159 1645 25 1370 25 
C 947 25 518 320 403 814 
C 429 807 480 795 506 795 
C 589 795 749 840 749 1038 
C 749 1210 627 1280 506 1280 
C 358 1280 262 1190 262 1011 
C 262 454 704 -128 1382 -128 
C 2042 -128 2669 440 2669 1264 
C 2669 2030 2170 2624 1549 2624 
C 1222 2624 947 2503 730 2274 
L 730 3692 
z
" transform="scale(0.015625)"/>
      </defs>
      <use xlink:href="#CMR17-32" transform="scale(0.996264)"/>
      <use xlink:href="#CMR17-35" transform="translate(45.690477 0) scale(0.996264)"/>
     </g>
    </g>
   </g>
   <g id="xtick_23">
    <g id="line2d_26">
     <path d="M 114.384683 58.711718 
L 115.989652 59.154708 
" style="fill: none; stroke: #000000; stroke-width: 0.5; stroke-linecap: square"/>
    </g>
    <g id="text_8">
     <!-- $\mathdefault{50}$ -->
     <g transform="translate(128.430425 63.268515) scale(0.1 -0.1)">
      <use xlink:href="#CMR17-35" transform="scale(0.996264)"/>
      <use xlink:href="#CMR17-30" transform="translate(45.690477 0) scale(0.996264)"/>
     </g>
    </g>
   </g>
   <g id="xtick_24">
    <g id="line2d_27">
     <path d="M 115.049849 44.029472 
L 116.676938 44.460339 
" style="fill: none; stroke: #000000; stroke-width: 0.5; stroke-linecap: square"/>
    </g>
    <g id="text_9">
     <!-- $\mathdefault{75}$ -->
     <g transform="translate(129.341855 48.651135) scale(0.1 -0.1)">
      <defs>
       <path id="CMR17-37" d="M 2886 3941 
L 2886 4081 
L 1382 4081 
C 634 4081 621 4165 595 4288 
L 480 4288 
L 294 3094 
L 410 3094 
C 429 3215 474 3540 550 3661 
C 589 3712 1062 3712 1171 3712 
L 2579 3712 
L 1869 2661 
C 1395 1954 1069 999 1069 165 
C 1069 89 1069 -128 1299 -128 
C 1530 -128 1530 89 1530 171 
L 1530 465 
C 1530 1508 1709 2196 2003 2636 
L 2886 3941 
z
" transform="scale(0.015625)"/>
      </defs>
      <use xlink:href="#CMR17-37" transform="scale(0.996264)"/>
      <use xlink:href="#CMR17-35" transform="translate(45.690477 0) scale(0.996264)"/>
     </g>
    </g>
   </g>
  </g>
  <g id="axes_1">
   <g id="Poly3DCollection_1">
    <path d="M 28.210923 82.996802 
L 29.079278 79.922803 
L 29.434481 81.931737 
z
" clip-path="url(#pbfe44b98b9)" style="fill: #0a4a83"/>
    <path d="M 28.210923 82.996802 
L 27.246878 81.516892 
L 29.079278 79.922803 
z
" clip-path="url(#pbfe44b98b9)" style="fill: #094982"/>
    <path d="M 28.210923 82.996802 
L 27.246878 81.516892 
L 25.656777 82.942346 
z
" clip-path="url(#pbfe44b98b9)" style="fill: #084173"/>
    <path d="M 28.210923 82.996802 
L 20.312596 90.996064 
L 29.434481 81.931737 
z
" clip-path="url(#pbfe44b98b9)" style="fill: #09477e"/>
    <path d="M 28.210923 82.996802 
L 23.424079 85.10047 
L 25.656777 82.942346 
z
" clip-path="url(#pbfe44b98b9)" style="fill: #063259"/>
    <path d="M 29.079278 79.922803 
L 104.714242 29.847104 
L 29.434481 81.931737 
z
" clip-path="url(#pbfe44b98b9)" style="fill: #09477e"/>
    <path d="M 28.210923 82.996802 
L 23.424079 85.10047 
L 22.13983 88.92713 
z
" clip-path="url(#pbfe44b98b9)" style="fill: #09477e"/>
    <path d="M 27.246878 81.516892 
L 104.11564 30.364987 
L 29.079278 79.922803 
z
" clip-path="url(#pbfe44b98b9)" style="fill: #09477f"/>
    <path d="M 28.210923 82.996802 
L 21.032289 90.091744 
L 22.13983 88.92713 
z
" clip-path="url(#pbfe44b98b9)" style="fill: #063258"/>
    <path d="M 28.210923 82.996802 
L 21.032289 90.091744 
L 20.312596 90.996064 
z
" clip-path="url(#pbfe44b98b9)" style="fill: #09477e"/>
    <path d="M 27.246878 81.516892 
L 25.656777 82.942346 
L 103.980623 30.488558 
z
" clip-path="url(#pbfe44b98b9)" style="fill: #09477f"/>
    <path d="M 23.424079 85.10047 
L 21.032289 90.091744 
L 22.824372 85.795148 
z
" clip-path="url(#pbfe44b98b9)" style="fill: #09487f"/>
    <path d="M 23.424079 85.10047 
L 21.032289 90.091744 
L 22.13983 88.92713 
z
" clip-path="url(#pbfe44b98b9)" style="fill: #09477d"/>
    <path d="M 23.424079 85.10047 
L 25.656777 82.942346 
L 103.980623 30.488558 
z
" clip-path="url(#pbfe44b98b9)" style="fill: #063258"/>
    <path d="M 104.502921 30.024843 
L 29.079278 79.922803 
L 104.714242 29.847104 
z
" clip-path="url(#pbfe44b98b9)" style="fill: #063258"/>
    <path d="M 22.445711 86.389157 
L 20.312596 90.996064 
L 22.824372 85.795148 
z
" clip-path="url(#pbfe44b98b9)" style="fill: #063158"/>
    <path d="M 104.159437 30.326265 
L 104.502921 30.024843 
L 29.079278 79.922803 
z
" clip-path="url(#pbfe44b98b9)" style="fill: #09477f"/>
    <path d="M 21.032289 90.091744 
L 20.312596 90.996064 
L 22.824372 85.795148 
z
" clip-path="url(#pbfe44b98b9)" style="fill: #09487f"/>
    <path d="M 22.445711 86.389157 
L 22.454032 86.501357 
L 20.312596 90.996064 
z
" clip-path="url(#pbfe44b98b9)" style="fill: #063258"/>
    <path d="M 104.159437 30.326265 
L 104.11564 30.364987 
L 29.079278 79.922803 
z
" clip-path="url(#pbfe44b98b9)" style="fill: #063258"/>
    <path d="M 23.424079 85.10047 
L 103.980623 30.488558 
L 22.824372 85.795148 
z
" clip-path="url(#pbfe44b98b9)" style="fill: #063258"/>
    <path d="M 27.246878 81.516892 
L 104.11564 30.364987 
L 103.980623 30.488558 
z
" clip-path="url(#pbfe44b98b9)" style="fill: #063258"/>
    <path d="M 104.159437 30.326265 
L 104.502921 30.024843 
L 104.714242 29.847104 
z
" clip-path="url(#pbfe44b98b9)" style="fill: #063258"/>
    <path d="M 104.159437 30.326265 
L 104.11564 30.364987 
L 103.980623 30.488558 
z
" clip-path="url(#pbfe44b98b9)" style="fill: #09477e"/>
    <path d="M 20.312596 90.996064 
L 95.134145 44.121711 
L 29.434481 81.931737 
z
" clip-path="url(#pbfe44b98b9)" style="fill: #09477f"/>
    <path d="M 104.714242 29.847104 
L 95.134145 44.121711 
L 29.434481 81.931737 
z
" clip-path="url(#pbfe44b98b9)" style="fill: #063258"/>
    <path d="M 22.445711 86.389157 
L 22.824372 85.795148 
L 95.134145 44.121711 
z
" clip-path="url(#pbfe44b98b9)" style="fill: #063258"/>
    <path d="M 22.445711 86.389157 
L 22.454032 86.501357 
L 95.134145 44.121711 
z
" clip-path="url(#pbfe44b98b9)" style="fill: #09477f"/>
    <path d="M 22.454032 86.501357 
L 20.312596 90.996064 
L 95.134145 44.121711 
z
" clip-path="url(#pbfe44b98b9)" style="fill: #09477f"/>
    <path d="M 103.980623 30.488558 
L 22.824372 85.795148 
L 95.134145 44.121711 
z
" clip-path="url(#pbfe44b98b9)" style="fill: #09477f"/>
    <path d="M 104.159437 30.326265 
L 104.714242 29.847104 
L 95.134145 44.121711 
z
" clip-path="url(#pbfe44b98b9)" style="fill: #063258"/>
    <path d="M 104.159437 30.326265 
L 103.980623 30.488558 
L 95.134145 44.121711 
z
" clip-path="url(#pbfe44b98b9)" style="fill: #09477e"/>
   </g>
  </g>
 </g>
 <defs>
  <clipPath id="pbfe44b98b9">
   <rect x="3.6" y="3.6" width="118.037174" height="118.037174"/>
  </clipPath>
 </defs>
</svg>
